<?xml version="1.0" encoding="UTF-8"?>
<svg width="2338px" height="2741px" viewBox="0 0 2338 2741" version="1.1" xmlns="http://www.w3.org/2000/svg" xmlns:xlink="http://www.w3.org/1999/xlink">
    <!-- Generator: Sketch 51.3 (57544) - http://www.bohemiancoding.com/sketch -->
    <title>logo stack</title>
    <desc>Created with Sketch.</desc>
    <defs>
        <polygon id="path-1" points="668.580952 1143.85448 0.196330492 757.683179 0.196330492 0.793915189 668.580952 391.69645"></polygon>
        <polygon id="path-3" points="665.900136 1143.99848 0.321058983 754.924412 0.321058983 0.0351478679 665.900136 393.840455"></polygon>
        <polygon id="path-5" points="665.900136 1143.99848 0.321058983 754.924412 0.321058983 0.0351478679 665.900136 393.840455"></polygon>
        <polygon id="path-7" points="668.192701 0.0889400279 1335.62027 391.110866 668.192701 782.132793 0.765128108 391.110866"></polygon>
    </defs>
    <g id="logo-stack" stroke="none" stroke-width="1" fill="none" fill-rule="evenodd">
        <path d="M1066.83949,2403.1296 C1066.83949,2414.75528 1056.58155,2421.59391 1045.98166,2421.59391 C1038.11724,2421.59391 1029.91088,2417.83266 1026.49156,2408.94244 C1022.38838,2399.02642 1013.49816,2371.67189 1002.89828,2339.87225 C1002.21441,2337.82066 1001.18862,2336.79486 999.137029,2336.79486 C993.666122,2336.45293 979.646925,2336.45293 964.260001,2336.45293 C943.744102,2336.45293 920.834682,2336.45293 913.654117,2336.79486 C911.944459,2336.79486 910.234801,2337.82066 909.550937,2339.87225 C901.002646,2366.88485 893.138218,2391.50393 888.009244,2407.91665 C884.931859,2417.49073 877.067431,2421.93584 868.861072,2421.93584 C859.286986,2421.93584 849.370968,2415.43914 849.370968,2404.83926 C849.370968,2398.68449 850.396763,2395.94904 925.279793,2185.31914 C930.7507,2169.59029 943.060239,2162.40972 955.369778,2162.40972 C968.363181,2162.40972 981.698515,2170.61608 987.169421,2186.00301 C1009.05305,2247.5507 1053.50416,2366.54292 1064.7879,2393.21359 C1066.15563,2396.6329 1066.83949,2400.05222 1066.83949,2403.1296 Z M989.221011,2299.18238 C989.221011,2298.84045 989.221011,2298.15659 988.879079,2297.47272 C978.279198,2265.33115 968.021249,2234.21537 962.550343,2217.46072 C960.498753,2211.30595 958.789094,2207.88663 956.737505,2207.88663 C955.027846,2207.88663 952.976256,2210.96402 950.582735,2217.80265 C945.45376,2231.47992 923.228203,2295.42113 923.228203,2298.49852 C923.228203,2299.86625 923.912067,2300.55011 925.963656,2300.55011 C932.802289,2300.55011 945.45376,2300.89204 957.421368,2300.89204 C969.730907,2300.89204 981.698515,2300.55011 986.485558,2300.55011 C988.537148,2300.55011 989.221011,2300.20818 989.221011,2299.18238 Z M1246.11299,2402.78767 C1246.11299,2413.38755 1236.5389,2422.61971 1225.93902,2422.61971 C1221.49391,2422.61971 1216.70687,2420.56812 1212.60369,2416.46494 C1202.68767,2406.20699 1161.9978,2362.09781 1147.29474,2345.00122 C1145.92702,2343.29157 1143.5335,2342.6077 1140.45611,2342.6077 C1132.59168,2342.6077 1132.59168,2344.65929 1132.59168,2367.56871 C1132.59168,2375.09121 1132.93361,2386.03302 1133.61748,2405.18119 C1133.95941,2412.36176 1129.85623,2422.61971 1116.17896,2422.61971 C1106.94681,2422.61971 1098.05659,2416.80687 1098.05659,2405.86506 L1098.05659,2405.18119 C1099.08238,2369.6203 1099.76624,2318.33056 1099.76624,2271.82785 C1099.76624,2233.53151 1099.42431,2198.65448 1098.74045,2178.13858 C1098.39852,2168.90643 1105.92101,2162.40972 1117.54669,2162.40972 C1126.43691,2162.40972 1135.32714,2167.19677 1135.32714,2177.79665 L1135.32714,2178.48051 C1134.30134,2216.09299 1133.95941,2304.31136 1133.95941,2304.31136 C1133.95941,2307.38874 1137.03679,2309.0984 1139.43032,2309.0984 C1144.55929,2309.0984 1145.92702,2308.07261 1210.5521,2256.44093 C1214.31335,2253.70547 1218.07459,2252.33775 1221.49391,2252.33775 C1231.75186,2252.33775 1240.30015,2262.5957 1240.30015,2272.51171 C1240.30015,2277.64069 1238.24856,2282.42773 1233.46152,2285.84705 C1213.28755,2300.20818 1198.24256,2310.80806 1180.12018,2322.77567 C1177.72666,2324.14339 1176.70086,2325.51112 1176.70086,2326.53691 C1176.70086,2327.90464 1177.72666,2329.27237 1179.43632,2330.98203 C1196.87483,2348.42054 1231.068,2379.19439 1240.30015,2389.11041 C1244.40333,2393.55552 1246.11299,2398.34256 1246.11299,2402.78767 Z M1297.50405,2422.61971 C1288.27189,2422.61971 1279.38167,2416.80687 1279.38167,2405.86506 L1279.38167,2405.18119 C1280.40747,2372.69769 1280.7494,2350.1302 1280.7494,2329.95623 C1280.7494,2309.44033 1280.40747,2291.65989 1279.7236,2268.75047 L1279.7236,2268.0666 C1279.7236,2257.80865 1289.63962,2252.67968 1298.18791,2252.67968 C1306.7362,2252.67968 1315.62643,2257.80865 1315.62643,2268.75047 C1315.62643,2270.11819 1315.28449,2271.14399 1315.28449,2272.16978 L1315.28449,2273.53751 C1315.28449,2274.22137 1315.28449,2274.5633 1315.62643,2274.5633 C1315.62643,2274.5633 1316.31029,2274.22137 1316.99415,2273.19558 C1330.67142,2258.15059 1349.13573,2252.33775 1360.7614,2252.33775 C1371.36128,2252.33775 1377.51605,2260.20218 1377.51605,2268.75047 C1377.51605,2277.29876 1371.36128,2286.18898 1358.02595,2287.55671 C1337.85198,2289.6083 1315.28449,2306.36295 1314.2587,2327.90464 C1313.91677,2334.05941 1313.91677,2341.23998 1313.91677,2350.47213 C1313.91677,2363.80746 1314.2587,2380.90405 1314.94256,2405.18119 C1315.28449,2412.36176 1311.18131,2422.61971 1297.50405,2422.61971 Z M1427.88132,2208.5705 C1414.54598,2208.5705 1403.9461,2200.02221 1403.9461,2184.29335 C1403.9461,2167.5387 1418.30723,2161.042 1427.88132,2161.042 C1440.19086,2161.042 1451.81653,2171.29995 1451.81653,2184.29335 C1451.81653,2196.60289 1442.58438,2208.5705 1427.88132,2208.5705 Z M1446.34563,2406.20699 C1446.34563,2417.83266 1437.11347,2423.6455 1427.88132,2423.6455 C1418.64916,2423.6455 1409.75894,2417.83266 1409.75894,2406.20699 C1409.75894,2377.82666 1410.10087,2338.84645 1410.10087,2307.73067 C1410.10087,2292.34375 1410.10087,2278.66648 1409.75894,2269.43433 C1409.41701,2258.15059 1417.9653,2251.99582 1428.22325,2251.99582 C1437.11347,2251.99582 1446.34563,2257.46672 1446.34563,2268.40853 C1446.34563,2268.75047 1446.34563,2268.75047 1446.34563,2269.0924 C1446.00369,2283.1116 1445.66176,2310.1242 1445.66176,2338.84645 C1445.66176,2362.43974 1446.00369,2386.71688 1446.34563,2405.52312 C1446.34563,2405.86506 1446.34563,2405.86506 1446.34563,2406.20699 Z" id="Akri" fill="#3E446F"></path>
        <g id="Cube-Main" transform="translate(1163.593750, 1150.468750) scale(-1, -1) translate(-1163.593750, -1150.468750) translate(495.093750, 382.468750)">
            <g id="triange" transform="translate(666.480369, 0.028170)">
                <mask id="mask-2" fill="white">
                    <use xlink:href="#path-1"></use>
                </mask>
                <use id="Rectangle-5" fill="#78FFC9" xlink:href="#path-1"></use>
                <polyline id="Path-5" stroke="#3E446F" stroke-width="118" fill-rule="nonzero" mask="url(#mask-2)" transform="translate(258.800222, 726.239525) scale(1, -1) rotate(299.000000) translate(-258.800222, -726.239525) " points="1126.03656 927.680069 883.144596 979.245465 497.989863 751.086414 176.113582 938.050414 -295.326076 661.913521 -65.9760539 540.099147 169.557813 671.041962 405.135832 542.252708 -59.2826159 261.060979 -752.864673 649.514844 166.651241 1191.41807 1270.46512 565.790686"></polyline>
                <path d="M40.5301749,587.370268 L40.5301749,344.34683" id="Path-2" stroke="#3E446F" stroke-width="118" fill-rule="nonzero" mask="url(#mask-2)"></path>
            </g>
            <g id="circle" transform="translate(1.146846, 0.396590)">
                <mask id="mask-4" fill="white">
                    <use xlink:href="#path-3"></use>
                </mask>
                <use id="Rectangle-5" fill="#78FFEB" transform="translate(333.110597, 572.016815) scale(-1, 1) translate(-333.110597, -572.016815) " xlink:href="#path-3"></use>
                <polyline id="Path-5" stroke="#524886" stroke-width="118" fill-rule="nonzero" mask="url(#mask-4)" points="962.837242 -312.024834 959.782736 945.710567 56.983774 1467.05926 56.8608999 652.208581 507.02526 395.49028 507.025063 643.874151 276.06526 779.384142 276.06526 1072.01079 732.282606 815.752244 728.278755 18.057218 -161.162758 547.43697 -145.508737 1814.1105"></polyline>
            </g>
            <g id="circle" transform="translate(1.146846, 0.396590)">
                <mask id="mask-6" fill="white">
                    <use xlink:href="#path-5"></use>
                </mask>
                <use id="Rectangle-5" fill="#8CCFCE" transform="translate(333.110597, 572.016815) scale(-1, 1) translate(-333.110597, -572.016815) " xlink:href="#path-5"></use>
                <polyline id="Path-5" stroke="#524886" stroke-width="118" fill-rule="nonzero" mask="url(#mask-6)" points="962.837242 -312.024834 959.782736 945.710567 56.983774 1467.05926 56.8608999 652.208581 507.02526 395.49028 507.025063 643.874151 276.06526 779.384142 276.06526 1072.01079 732.282606 815.752244 728.278755 18.057218 -161.162758 547.43697 -145.508737 1814.1105"></polyline>
            </g>
            <g id="square" transform="translate(0.152671, 752.805153)">
                <mask id="mask-8" fill="white">
                    <use xlink:href="#path-7"></use>
                </mask>
                <use id="Rectangle-5" fill="#FFFFFF" xlink:href="#path-7"></use>
                <polyline id="Path-5" stroke="#3E446F" stroke-width="117" fill-rule="nonzero" mask="url(#mask-8)" points="-585.997238 157.523876 502.691119 -459.103824 1355.63085 64.302051 670.020865 453.051692 311.10006 247.202659 545.347583 110.909953 668.579841 187.666909 901.944324 58.7786519 487.298311 -194.25744 -221.8591 193.245933 668.149788 714.028569 1722.92391 98.7053595"></polyline>
                <g id="Group" mask="url(#mask-8)" fill-rule="nonzero" stroke="#FFFFFF" stroke-width="102">
                    <g transform="translate(869.068810, 173.556760)" id="Path-3">
                        <path d="M0.502932641,0.220441464 L252.623491,148.329096"></path>
                    </g>
                </g>
            </g>
        </g>
    </g>
</svg>