<?xml version="1.0" encoding="UTF-8"?>
<svg width="2338px" height="2741px" viewBox="0 0 2338 2741" version="1.1" xmlns="http://www.w3.org/2000/svg" xmlns:xlink="http://www.w3.org/1999/xlink">
    <!-- Generator: Sketch 51.3 (57544) - http://www.bohemiancoding.com/sketch -->
    <title>logo stack dark</title>
    <desc>Created with Sketch.</desc>
    <defs>
        <polygon id="path-1" points="663.244057 1134.72375 0.194763299 751.635032 0.194763299 0.787577823 663.244057 388.569763"></polygon>
        <polygon id="path-3" points="660.58464 1134.8666 0.318496155 748.898287 0.318496155 0.0348673028 660.58464 390.696654"></polygon>
        <polygon id="path-5" points="660.58464 1134.8666 0.318496155 748.898287 0.318496155 0.0348673028 660.58464 390.696654"></polygon>
        <polygon id="path-7" points="662.858905 0.088230071 1324.95879 387.988855 662.858905 775.889479 0.759020533 387.988855"></polygon>
    </defs>
    <g id="logo-stack-dark" stroke="none" stroke-width="1" fill="none" fill-rule="evenodd">
        <path d="M1069.24574,2410.95103 C1069.24574,2422.57671 1058.9878,2429.41534 1048.38791,2429.41534 C1040.52349,2429.41534 1032.31713,2425.65409 1028.89781,2416.76387 C1024.79463,2406.84785 1015.90441,2379.49332 1005.30453,2347.69368 C1004.62066,2345.64209 1003.59487,2344.61629 1001.54328,2344.61629 C996.072372,2344.27436 982.053175,2344.27436 966.666251,2344.27436 C946.150352,2344.27436 923.240932,2344.27436 916.060367,2344.61629 C914.350709,2344.61629 912.641051,2345.64209 911.957187,2347.69368 C903.408896,2374.70628 895.544468,2399.32536 890.415494,2415.73807 C887.338109,2425.31216 879.473681,2429.75727 871.267322,2429.75727 C861.693236,2429.75727 851.777218,2423.26057 851.777218,2412.66069 C851.777218,2406.50592 852.803013,2403.77047 927.686043,2193.14057 C933.15695,2177.41172 945.466489,2170.23115 957.776028,2170.23115 C970.769431,2170.23115 984.104765,2178.43751 989.575671,2193.82444 C1011.4593,2255.37213 1055.91041,2374.36435 1067.19415,2401.03501 C1068.56188,2404.45433 1069.24574,2407.87365 1069.24574,2410.95103 Z M991.627261,2307.00381 C991.627261,2306.66188 991.627261,2305.97802 991.285329,2305.29415 C980.685448,2273.15258 970.427499,2242.0368 964.956593,2225.28215 C962.905003,2219.12738 961.195344,2215.70806 959.143755,2215.70806 C957.434096,2215.70806 955.382506,2218.78545 952.988985,2225.62408 C947.86001,2239.30135 925.634453,2303.24256 925.634453,2306.31995 C925.634453,2307.68767 926.318317,2308.37154 928.369906,2308.37154 C935.208539,2308.37154 947.86001,2308.71347 959.827618,2308.71347 C972.137157,2308.71347 984.104765,2308.37154 988.891808,2308.37154 C990.943398,2308.37154 991.627261,2308.02961 991.627261,2307.00381 Z M1248.51924,2410.6091 C1248.51924,2421.20898 1238.94515,2430.44114 1228.34527,2430.44114 C1223.90016,2430.44114 1219.11312,2428.38955 1215.00994,2424.28637 C1205.09392,2414.02842 1164.40405,2369.91923 1149.70099,2352.82265 C1148.33327,2351.11299 1145.93975,2350.42913 1142.86236,2350.42913 C1134.99793,2350.42913 1134.99793,2352.48072 1134.99793,2375.39014 C1134.99793,2382.91264 1135.33986,2393.85445 1136.02373,2413.00262 C1136.36566,2420.18319 1132.26248,2430.44114 1118.58521,2430.44114 C1109.35306,2430.44114 1100.46284,2424.6283 1100.46284,2413.68648 L1100.46284,2413.00262 C1101.48863,2377.44173 1102.17249,2326.15198 1102.17249,2279.64928 C1102.17249,2241.35294 1101.83056,2206.47591 1101.1467,2185.96001 C1100.80477,2176.72785 1108.32726,2170.23115 1119.95294,2170.23115 C1128.84316,2170.23115 1137.73339,2175.0182 1137.73339,2185.61808 L1137.73339,2186.30194 C1136.70759,2223.91442 1136.36566,2312.13279 1136.36566,2312.13279 C1136.36566,2315.21017 1139.44304,2316.91983 1141.83657,2316.91983 C1146.96554,2316.91983 1148.33327,2315.89403 1212.95835,2264.26236 C1216.7196,2261.5269 1220.48084,2260.15918 1223.90016,2260.15918 C1234.15811,2260.15918 1242.7064,2270.41713 1242.7064,2280.33314 C1242.7064,2285.46212 1240.65481,2290.24916 1235.86777,2293.66848 C1215.6938,2308.02961 1200.64881,2318.62949 1182.52643,2330.5971 C1180.13291,2331.96482 1179.10711,2333.33255 1179.10711,2334.35834 C1179.10711,2335.72607 1180.13291,2337.0938 1181.84257,2338.80345 C1199.28108,2356.24197 1233.47425,2387.01582 1242.7064,2396.93183 C1246.80958,2401.37695 1248.51924,2406.16399 1248.51924,2410.6091 Z M1299.9103,2430.44114 C1290.67814,2430.44114 1281.78792,2424.6283 1281.78792,2413.68648 L1281.78792,2413.00262 C1282.81372,2380.51912 1283.15565,2357.95163 1283.15565,2337.77766 C1283.15565,2317.26176 1282.81372,2299.48132 1282.12985,2276.5719 L1282.12985,2275.88803 C1282.12985,2265.63008 1292.04587,2260.50111 1300.59416,2260.50111 C1309.14245,2260.50111 1318.03268,2265.63008 1318.03268,2276.5719 C1318.03268,2277.93962 1317.69074,2278.96542 1317.69074,2279.99121 L1317.69074,2281.35894 C1317.69074,2282.0428 1317.69074,2282.38473 1318.03268,2282.38473 C1318.03268,2282.38473 1318.71654,2282.0428 1319.4004,2281.01701 C1333.07767,2265.97201 1351.54198,2260.15918 1363.16765,2260.15918 C1373.76753,2260.15918 1379.9223,2268.0236 1379.9223,2276.5719 C1379.9223,2285.12019 1373.76753,2294.01041 1360.4322,2295.37814 C1340.25823,2297.42973 1317.69074,2314.18438 1316.66495,2335.72607 C1316.32302,2341.88084 1316.32302,2349.0614 1316.32302,2358.29356 C1316.32302,2371.62889 1316.66495,2388.72547 1317.34881,2413.00262 C1317.69074,2420.18319 1313.58756,2430.44114 1299.9103,2430.44114 Z M1430.28757,2216.39193 C1416.95223,2216.39193 1406.35235,2207.84363 1406.35235,2192.11478 C1406.35235,2175.36013 1420.71348,2168.86343 1430.28757,2168.86343 C1442.59711,2168.86343 1454.22278,2179.12138 1454.22278,2192.11478 C1454.22278,2204.42432 1444.99063,2216.39193 1430.28757,2216.39193 Z M1448.75188,2414.02842 C1448.75188,2425.65409 1439.51972,2431.46693 1430.28757,2431.46693 C1421.05541,2431.46693 1412.16519,2425.65409 1412.16519,2414.02842 C1412.16519,2385.64809 1412.50712,2346.66788 1412.50712,2315.5521 C1412.50712,2300.16518 1412.50712,2286.48791 1412.16519,2277.25576 C1411.82326,2265.97201 1420.37155,2259.81724 1430.6295,2259.81724 C1439.51972,2259.81724 1448.75188,2265.28815 1448.75188,2276.22996 C1448.75188,2276.5719 1448.75188,2276.5719 1448.75188,2276.91383 C1448.40994,2290.93302 1448.06801,2317.94562 1448.06801,2346.66788 C1448.06801,2370.26117 1448.40994,2394.53831 1448.75188,2413.34455 C1448.75188,2413.68648 1448.75188,2413.68648 1448.75188,2414.02842 Z" id="Akri" fill="#FFFFFF"></path>
        <g id="Cube-Main" transform="translate(1153.000000, 1106.182718) scale(-1, -1) translate(-1153.000000, -1106.182718) translate(490.000000, 344.682718)">
            <g id="triange" transform="translate(661.160241, 0.027945)">
                <mask id="mask-2" fill="white">
                    <use xlink:href="#path-1"></use>
                </mask>
                <use id="Rectangle-5" fill="#52BC91" xlink:href="#path-1"></use>
                <polyline id="Path-5" stroke="#FFFFFF" stroke-width="103" fill-rule="nonzero" mask="url(#mask-2)" transform="translate(256.734370, 720.442375) scale(1, -1) rotate(299.000000) translate(-256.734370, -720.442375) " points="1117.04806 920.274936 876.094964 971.428715 494.014698 745.090925 174.707769 930.5625 -292.968658 656.629848 -65.4494052 535.787848 168.204331 665.685422 401.901867 537.924218 -58.809397 258.97708 -746.85499 644.330142 165.32096 1181.90767 1260.32373 561.274306"></polyline>
                <path d="M40.206646,582.681631 L40.206646,341.598109" id="Path-2" stroke="#FFFFFF" stroke-width="138" fill-rule="nonzero" mask="url(#mask-2)"></path>
            </g>
            <g id="circle" transform="translate(1.137691, 0.393424)">
                <mask id="mask-4" fill="white">
                    <use xlink:href="#path-3"></use>
                </mask>
                <use id="Rectangle-5" fill="#3FB594" transform="translate(330.451568, 567.450736) scale(-1, 1) translate(-330.451568, -567.450736) " xlink:href="#path-3"></use>
                <polyline id="Path-5" stroke="#EAE9F0" stroke-width="108" fill-rule="nonzero" mask="url(#mask-4)" points="955.151469 -309.534121 952.121345 938.161507 56.5289055 1455.34858 56.4070122 647.002377 502.977971 392.33331 502.977776 638.734476 273.861591 773.162769 273.861591 1063.45355 726.437217 809.240566 722.465327 17.9130776 -159.876289 543.067097 -144.347225 1799.6295"></polyline>
            </g>
            <g id="circle" transform="translate(1.137691, 0.393424)">
                <mask id="mask-6" fill="white">
                    <use xlink:href="#path-5"></use>
                </mask>
                <use id="Rectangle-5" fill="#0AABA9" transform="translate(330.451568, 567.450736) scale(-1, 1) translate(-330.451568, -567.450736) " xlink:href="#path-5"></use>
                <polyline id="Path-5" stroke="#EAE9F0" stroke-width="108" fill-rule="nonzero" mask="url(#mask-6)" points="955.151469 -309.534121 952.121345 938.161507 56.5289055 1455.34858 56.4070122 647.002377 502.977971 392.33331 502.977776 638.734476 273.861591 773.162769 273.861591 1063.45355 726.437217 809.240566 722.465327 17.9130776 -159.876289 543.067097 -144.347225 1799.6295"></polyline>
            </g>
            <g id="square" transform="translate(0.151452, 746.795945)">
                <mask id="mask-8" fill="white">
                    <use xlink:href="#path-7"></use>
                </mask>
                <g id="Rectangle-5"></g>
                <polyline id="Path-5" stroke="#FFFFFF" stroke-width="97" fill-rule="nonzero" mask="url(#mask-8)" points="-581.319561 156.266454 498.678427 -455.439064 1344.80963 63.7887649 664.672476 449.435242 308.616728 245.229383 540.994389 110.024623 663.242954 186.168873 894.744624 58.3094559 483.408491 -192.706795 -220.088127 191.703362 662.816334 708.328892 1709.17081 97.9174517"></polyline>
                <g id="Group" mask="url(#mask-8)" fill-rule="nonzero" stroke="#3E446F" stroke-width="122">
                    <g transform="translate(862.131536, 172.171357)" id="Path-3">
                        <path d="M0.498918021,0.218681807 L250.606944,147.145071"></path>
                    </g>
                </g>
            </g>
        </g>
    </g>
</svg>