<?xml version="1.0" encoding="UTF-8"?>
<svg width="2509px" height="1508px" viewBox="0 0 2509 1508" version="1.1" xmlns="http://www.w3.org/2000/svg" xmlns:xlink="http://www.w3.org/1999/xlink">
    <!-- Generator: Sketch 51.3 (57544) - http://www.bohemiancoding.com/sketch -->
    <title>wordmark</title>
    <desc>Created with Sketch.</desc>
    <defs></defs>
    <g id="wordmark" stroke="none" stroke-width="1" fill="none" fill-rule="evenodd">
        <path d="M672.028133,947.071866 L504.437487,947.071866 L459.57476,1095.90218 L344.616172,1095.90218 L561.189941,452.339369 L616.616404,452.339369 L833.190173,1095.90218 L716.178753,1095.90218 L672.028133,947.071866 Z M529.498734,863.932173 L647.364683,863.932173 L588.903172,666.860307 L529.498734,863.932173 Z M1054.89602,879.328412 L1016.91863,917.305803 L1016.91863,1095.90218 L898.880795,1095.90218 L898.880795,407.177066 L1025.12996,407.177066 L1025.12996,416.41481 C1021.70856,420.520495 1019.48468,424.968253 1018.45826,429.758218 C1017.43183,434.548183 1016.91863,442.759429 1016.91863,454.392201 L1016.91863,791.056639 L1199.62067,614.513092 C1205.09492,615.197373 1210.91122,616.052711 1217.06975,617.079132 C1223.22827,618.105553 1229.38671,618.960891 1235.54523,619.645172 C1241.70376,620.329453 1247.86219,620.842656 1254.02072,621.184796 C1260.17925,621.526936 1265.31128,621.698004 1269.41696,621.698004 L1324.84342,621.698004 L1134.95647,807.479294 L1350.50382,1094.87577 L1218.09616,1100.00785 L1054.89602,879.328412 Z M1558.87397,695.453324 C1560.1853,692.703817 1561.5798,690.015585 1563.05746,687.388626 C1572.29525,670.965888 1583.92785,656.596208 1597.9556,644.279155 C1611.98336,631.962102 1627.37945,622.724451 1644.14432,616.565924 C1660.9092,610.407397 1678.18703,607.32818 1695.97833,607.32818 C1722.66528,607.32818 1746.78581,611.604871 1768.34066,620.15838 C1789.8955,628.711889 1809.91041,642.568366 1828.38599,661.728227 L1779.11802,759.237744 L1776.03878,767.449071 L1766.80103,763.343408 C1764.74819,757.869162 1762.69538,752.22393 1760.64254,746.407544 C1758.58969,740.591158 1753.45766,733.919521 1745.2463,726.392433 C1735.66637,718.865345 1725.57338,713.049046 1714.96702,708.943361 C1704.36067,704.837677 1692.89914,702.784865 1680.58209,702.784865 C1664.15935,702.784865 1648.42113,705.521947 1633.36696,710.996193 C1618.31278,716.470439 1605.14057,725.02382 1593.84994,736.656592 C1582.55931,748.289365 1573.66379,763.172248 1567.16313,781.305687 C1560.66246,799.439126 1557.41217,820.822579 1557.41217,845.456685 L1557.41217,1095.90218 L1439.37434,1095.90218 L1439.37434,618.618756 L1559.46501,618.618756 L1558.87397,695.453324 Z M1903.61373,1095.90218 L1903.61373,1004.55116 L2020.62515,1004.55116 L2020.62515,709.969777 L1909.77222,709.969777 L1909.77222,618.618756 L2137.63657,618.618756 L2137.63657,1004.55116 L2244.38383,1004.55116 L2244.38383,1095.90218 L1903.61373,1095.90218 Z M2073.99878,539.584726 C2054.15464,539.584726 2037.04787,532.742022 2022.67798,519.056407 C2008.30808,505.370792 2001.12324,488.948301 2001.12324,469.788441 C2001.12324,449.260019 2007.96595,432.495392 2021.65156,419.494058 C2035.33718,406.492724 2052.78607,399.992155 2073.99878,399.992155 C2093.15864,399.992155 2110.09433,406.834859 2124.80637,420.520474 C2139.5184,434.206089 2146.87431,450.62858 2146.87431,469.788441 C2146.87431,488.948301 2139.5184,505.370792 2124.80637,519.056407 C2110.09433,532.742022 2093.15864,539.584726 2073.99878,539.584726 Z" id="Akri" fill="#FFFFFF"></path>
    </g>
</svg>