<?xml version="1.0" encoding="UTF-8"?>
<svg width="2509px" height="1508px" viewBox="0 0 2509 1508" version="1.1" xmlns="http://www.w3.org/2000/svg" xmlns:xlink="http://www.w3.org/1999/xlink">
    <!-- Generator: Sketch 51.3 (57544) - http://www.bohemiancoding.com/sketch -->
    <title>wordmark</title>
    <desc>Created with Sketch.</desc>
    <defs></defs>
    <g id="wordmark" stroke="none" stroke-width="1" fill="none" fill-rule="evenodd">
        <path d="M1011.21902,1065.79966 C1011.21902,1099.56876 981.422752,1119.43294 950.633278,1119.43294 C927.789474,1119.43294 903.952462,1108.50764 894.020374,1082.68421 C882.101868,1053.88116 856.278438,974.424451 825.488964,882.056029 C823.502546,876.096776 820.52292,873.117149 814.563667,873.117149 C798.672325,872.12394 757.950763,872.12394 713.256365,872.12394 C653.663835,872.12394 587.118842,872.12394 566.261457,873.117149 C561.295413,873.117149 556.329368,876.096776 554.342951,882.056029 C529.51273,960.519527 506.668926,1032.03056 491.770794,1079.70459 C482.831914,1107.51444 459.988111,1120.42615 436.151099,1120.42615 C408.341251,1120.42615 379.538195,1101.55518 379.538195,1070.76571 C379.538195,1052.88795 382.517822,1044.94228 600.030557,433.125633 C615.921899,387.438027 651.677417,366.580641 687.432935,366.580641 C725.174871,366.580641 763.910016,390.417653 779.801357,435.112051 C843.366723,613.889642 972.483872,959.526318 1005.25976,1036.99661 C1009.2326,1046.9287 1011.21902,1056.86078 1011.21902,1065.79966 Z M785.76061,763.864177 C785.76061,762.870968 785.76061,760.88455 784.767402,758.898133 C753.977928,665.536502 724.181662,575.154497 708.290321,526.487264 C702.331068,508.609505 697.365024,498.677417 691.405771,498.677417 C686.439726,498.677417 680.480473,507.616296 673.528012,527.480473 C658.629879,567.208827 594.071304,752.93888 594.071304,761.877759 C594.071304,765.850594 596.057722,767.837012 602.016975,767.837012 C621.881152,767.837012 658.629879,768.830221 693.392188,768.830221 C729.147707,768.830221 763.910016,767.837012 777.81494,767.837012 C783.774193,767.837012 785.76061,766.843803 785.76061,763.864177 Z M1531.95473,1064.80646 C1531.95473,1095.59593 1504.14488,1122.41257 1473.35541,1122.41257 C1460.44369,1122.41257 1446.53877,1116.45331 1434.62026,1104.53481 C1405.81721,1074.73854 1287.62536,946.614603 1244.91738,896.954161 C1240.94454,891.988117 1233.99208,890.001699 1225.0532,890.001699 C1202.2094,890.001699 1202.2094,895.960952 1202.2094,962.505945 C1202.2094,984.356539 1203.2026,1016.13922 1205.18902,1071.75892 C1206.18223,1092.6163 1194.26372,1122.41257 1154.53537,1122.41257 C1127.71873,1122.41257 1101.8953,1105.52802 1101.8953,1073.74533 L1101.8953,1071.75892 C1104.87493,968.465198 1106.86135,819.483872 1106.86135,684.40747 C1106.86135,573.16808 1105.86814,471.860778 1103.88172,412.268248 C1102.88851,385.451609 1124.73911,366.580641 1158.50821,366.580641 C1184.33164,366.580641 1210.15507,380.485565 1210.15507,411.275039 L1210.15507,413.261456 C1207.17544,522.514429 1206.18223,778.762309 1206.18223,778.762309 C1206.18223,787.701189 1215.12111,792.667233 1222.07357,792.667233 C1236.9717,792.667233 1240.94454,789.687607 1428.66101,639.713072 C1439.58631,631.767401 1450.51161,627.794566 1460.44369,627.794566 C1490.23996,627.794566 1515.07018,657.590831 1515.07018,686.393887 C1515.07018,701.29202 1509.11093,715.196944 1495.206,725.129032 C1436.60668,766.843803 1392.90549,797.633277 1340.26542,832.395587 C1333.31296,836.368422 1330.33334,840.341257 1330.33334,843.320884 C1330.33334,847.293719 1333.31296,851.266555 1338.27901,856.232599 C1388.93266,906.88625 1488.25354,996.275045 1515.07018,1025.0781 C1526.98869,1037.98982 1531.95473,1051.89474 1531.95473,1064.80646 Z M1681.23034,1122.41257 C1654.4137,1122.41257 1628.59027,1105.52802 1628.59027,1073.74533 L1628.59027,1071.75892 C1631.5699,977.404077 1632.5631,911.852294 1632.5631,853.252972 C1632.5631,793.660442 1631.5699,742.013582 1629.58348,675.46859 L1629.58348,673.482172 C1629.58348,643.685907 1658.38653,628.787775 1683.21675,628.787775 C1708.04698,628.787775 1733.87041,643.685907 1733.87041,675.46859 C1733.87041,679.441425 1732.8772,682.421052 1732.8772,685.400678 L1732.8772,689.373514 C1732.8772,691.359932 1732.8772,692.35314 1733.87041,692.35314 C1733.87041,692.35314 1735.85682,691.359932 1737.84324,688.380305 C1777.57159,644.679116 1831.20487,627.794566 1864.97397,627.794566 C1895.76345,627.794566 1913.64121,650.638369 1913.64121,675.46859 C1913.64121,700.298811 1895.76345,726.122241 1857.0283,730.095076 C1798.42898,736.054329 1732.8772,784.721562 1729.89757,847.293719 C1728.90436,865.171478 1728.90436,886.028864 1728.90436,912.845503 C1728.90436,951.580647 1729.89757,1001.24109 1731.88399,1071.75892 C1732.8772,1092.6163 1720.95869,1122.41257 1681.23034,1122.41257 Z M2059.93719,500.663834 C2021.20204,500.663834 1990.41257,475.833613 1990.41257,430.146007 C1990.41257,381.478774 2032.12734,362.607806 2059.93719,362.607806 C2095.6927,362.607806 2129.4618,392.404071 2129.4618,430.146007 C2129.4618,465.901525 2102.64517,500.663834 2059.93719,500.663834 Z M2113.57046,1074.73854 C2113.57046,1108.50764 2086.75382,1125.39219 2059.93719,1125.39219 C2033.12055,1125.39219 2007.29712,1108.50764 2007.29712,1074.73854 C2007.29712,992.30221 2008.29033,879.076402 2008.29033,788.694398 C2008.29033,744 2008.29033,704.271646 2007.29712,677.455008 C2006.30391,644.679116 2031.13413,626.801357 2060.9304,626.801357 C2086.75382,626.801357 2113.57046,642.692698 2113.57046,674.475381 C2113.57046,675.46859 2113.57046,675.46859 2113.57046,676.461799 C2112.57725,717.183361 2111.58405,795.64686 2111.58405,879.076402 C2111.58405,947.607812 2112.57725,1018.12564 2113.57046,1072.75213 C2113.57046,1073.74533 2113.57046,1073.74533 2113.57046,1074.73854 Z" id="Akri" fill="#FFFFFF"></path>
    </g>
</svg>