<svg height="1500" viewBox="0 0 3850 1500" width="3850" xmlns="http://www.w3.org/2000/svg"><g fill="none" fill-rule="evenodd"><g fill-rule="nonzero"><g stroke="#444a6d" stroke-linecap="round" stroke-linejoin="round" stroke-width="44" transform="translate(369 269)"><path d="m845.181984 178.972621-310.939796 252.714879c5.399747 14.673932 9.162768 26.452578 11.289062 35.335937 2.126294 8.88336 4.009106 22.537006 5.648438 40.960938l379.258304 106.457497-245.958522 308.35042h-421.288813l-262.67389462-329.278293 93.75457842-410.585933 379.5526902-182.72160362z"/><path d="m707.338732 291.004085-173.096544 140.683415c5.399747 14.673932 9.162768 26.452578 11.289062 35.335937 2.126294 8.88336 4.009106 22.537006 5.648438 40.960938l217.144615 60.952317-159.667492 200.170086h-269.651436l-168.127875-210.758894 60.008848-262.800917 242.937683-116.953362z"/></g><g stroke-linecap="round" stroke-width="38" transform="translate(1071 538)"><path d="m148.244058.9863568 55.074672 241.9767692" stroke="#028b58"/><path d="m72.2146628 61.4908662 39.1768442 162.6207258" stroke="#028b58"/><path d="m.48508025 118.412641 21.68270285 88.660832" stroke="#0e9e78"/></g><g stroke="#444a6d" stroke-width="44" transform="translate(748 463)"><path d="m147.234375 244.535156 297-244.441406"/><path d="m168.339844 311.414062 356.273437 102.054688"/><circle cx="95.682101" cy="293.265854" r="72.88216"/></g></g><path d="m1815.22 914.7c-28.22681 0-53.64989-4.833285-76.27-14.5s-40.50327-23.586576-53.65-41.76-19.91333-39.63321-20.3-64.38h87c1.16001 16.62675 7.05661 29.773285 17.69 39.44s25.22991 14.5 43.79 14.5c18.94676 0 33.83328-4.543288 44.66-13.63s16.24-20.976593 16.24-35.67c0-11.986727-3.6733-21.846628-11.02-29.58s-16.52994-13.823311-27.55-18.27-26.19657-9.37664-45.53-14.79c-26.29346-7.733372-47.65658-15.369962-64.09-22.91s-30.54661-18.94659-42.34-34.22-17.69-35.669872-17.69-61.19c0-23.973453 5.99327-44.853244 17.98-62.64s28.80656-31.416619 50.46-40.89 46.39986-14.21 74.24-14.21c41.76021 0 75.68987 10.149898 101.79 30.45s40.50332 48.623152 43.21 84.97h-89.32c-.77334-13.92007-6.66994-25.423288-17.69-34.51s-25.61658-13.63-43.79-13.63c-15.85341 0-28.51662 4.059959-37.99 12.18s-14.21 19.913256-14.21 35.38c0 10.826721 3.57663 19.816631 10.73 26.97s16.04661 12.953311 26.68 17.4 25.61657 9.569971 44.95 15.37c26.29346 7.733372 47.75325 15.466628 64.38 23.2s30.93327 19.333256 42.92 34.8 17.98 35.766541 17.98 60.9c0 21.653442-5.60661 41.759907-16.82 60.32s-27.64656 33.349945-49.3 44.37-47.36652 16.53-77.14 16.53zm361.05956 1.16c-30.93349 0-58.77321-6.863265-83.52-20.59s-44.17659-33.156541-58.29-58.29c-14.1134-25.133459-21.17-54.133169-21.17-87s7.24993-61.866541 21.75-87 34.31654-44.563265 59.45-58.29 53.16651-20.59 84.1-20.59 58.96654 6.863265 84.1 20.59 44.94993 33.156541 59.45 58.29 21.75 54.133169 21.75 87-7.44326 61.866541-22.33 87-34.9932 44.563265-60.32 58.29c-25.32679 13.726735-53.64984 20.59-84.97 20.59zm0-70.76c14.69341 0 28.5166-3.576631 41.47-10.73s23.29663-17.883262 31.03-32.19 11.6-31.706564 11.6-52.2c0-30.546819-8.02325-54.036584-24.07-70.47-16.04674-16.433416-35.66988-24.65-58.87-24.65-23.20011 0-42.62992 8.216584-58.29 24.65s-23.49 39.923181-23.49 70.47 7.63659 54.036584 22.91 70.47c15.27341 16.433415 34.50989 24.65 57.71 24.65zm410.35956-260.42c38.2802 0 69.21322 12.083212 92.8 36.25 23.58679 24.166788 35.38 57.903117 35.38 101.21v188.5h-81.2v-177.48c0-25.520128-6.37993-45.143265-19.14-58.87-12.76006-13.726735-30.15989-20.59-52.2-20.59-22.42677 0-40.1166 6.863265-53.07 20.59-12.95339 13.726735-19.43 33.349872-19.43 58.87v177.48h-81.2v-321.32h81.2v40.02c10.82672-13.92007 24.64992-24.843294 41.47-32.77 16.82009-7.926706 35.28324-11.89 55.39-11.89zm189.37957 164.14c0-32.480162 6.4766-61.286541 19.43-86.42 12.95339-25.133459 30.54655-44.466599 52.78-58 22.23344-13.533401 47.07653-20.3 74.53-20.3 23.97345 0 44.94991 4.833285 62.93 14.5s32.38328 21.846593 43.21 36.54v-45.82h81.78v321.32h-81.78v-46.98c-10.44006 15.080075-24.84325 27.549951-43.21 37.41-18.36676 9.860049-39.53655 14.79-63.51 14.79-27.06681 0-51.71656-6.95993-73.95-20.88-22.23345-13.92007-39.82661-33.543207-52.78-58.87-12.9534-25.326793-19.43-54.423169-19.43-87.29zm252.88 1.16c0-19.720099-3.86663-36.636596-11.6-50.75-7.73338-14.113404-18.17327-24.939962-31.32-32.48-13.14674-7.540038-27.25993-11.31-42.34-11.31-15.08008 0-28.99994 3.673297-41.76 11.02-12.76007 7.346703-23.1033 18.076596-31.03 32.19-7.92671 14.113404-11.89 30.83657-11.89 50.17s3.96329 36.249927 11.89 50.75c7.9267 14.500072 18.3666 25.616628 31.32 33.35 12.95339 7.733372 26.77659 11.6 41.47 11.6 15.08007 0 29.19326-3.769962 42.34-11.31 13.14673-7.540038 23.58662-18.366596 31.32-32.48 7.73337-14.113404 11.6-31.029901 11.6-50.75zm247.37956-110.78c10.44005-17.013418 24.06991-30.353285 40.89-40.02 16.82008-9.666715 36.05656-14.5 57.71-14.5v85.26h-21.46c-25.52013 0-44.7566 5.993273-57.71 17.98s-19.43 32.866518-19.43 62.64v160.08h-81.2v-321.32h81.2z" fill="#444a6d"/></g></svg>