<?xml version="1.0" encoding="UTF-8"?>
<svg width="2509px" height="1441px" viewBox="0 0 2509 1441" version="1.1" xmlns="http://www.w3.org/2000/svg" xmlns:xlink="http://www.w3.org/1999/xlink">
    <!-- Generator: Sketch 51.3 (57544) - http://www.bohemiancoding.com/sketch -->
    <title>logo strip</title>
    <desc>Created with Sketch.</desc>
    <defs>
        <polygon id="path-1" points="372.056053 636.539198 0.109255203 421.64021 0.109255203 0.441802823 372.056053 217.973657"></polygon>
        <polygon id="path-3" points="371.334837 0.0494938955 742.74905 217.647788 371.334837 435.246082 0.315596385 217.863525"></polygon>
    </defs>
    <g id="logo-strip" stroke="none" stroke-width="1" fill="none" fill-rule="evenodd">
        <path d="M1617.24574,846.660853 C1617.24574,858.286529 1606.9878,865.125162 1596.38791,865.125162 C1588.52349,865.125162 1580.31713,861.363914 1576.89781,852.473691 C1572.79463,842.557673 1563.90441,815.203142 1553.30453,783.403499 C1552.62066,781.351909 1551.59487,780.326114 1549.54328,780.326114 C1544.07237,779.984182 1530.05317,779.984182 1514.66625,779.984182 C1494.15035,779.984182 1471.24093,779.984182 1464.06037,780.326114 C1462.35071,780.326114 1460.64105,781.351909 1459.95719,783.403499 C1451.4089,810.416099 1443.54447,835.035177 1438.41549,851.447896 C1435.33811,861.021982 1427.47368,865.467094 1419.26732,865.467094 C1409.69324,865.467094 1399.77722,858.970392 1399.77722,848.370511 C1399.77722,842.215742 1400.80301,839.480289 1475.68604,628.850395 C1481.15695,613.121539 1493.46649,605.940975 1505.77603,605.940975 C1518.76943,605.940975 1532.10476,614.147334 1537.57567,629.534258 C1559.4593,691.081954 1603.91041,810.074167 1615.19415,836.744835 C1616.56188,840.164152 1617.24574,843.583468 1617.24574,846.660853 Z M1539.62726,742.713633 C1539.62726,742.371701 1539.62726,741.687838 1539.28533,741.003975 C1528.68545,708.8624 1518.4275,677.74662 1512.95659,660.99197 C1510.905,654.8372 1509.19534,651.417884 1507.14375,651.417884 C1505.4341,651.417884 1503.38251,654.495268 1500.98898,661.333901 C1495.86001,675.011167 1473.63445,738.952385 1473.63445,742.02977 C1473.63445,743.397496 1474.31832,744.081359 1476.36991,744.081359 C1483.20854,744.081359 1495.86001,744.423291 1507.82762,744.423291 C1520.13716,744.423291 1532.10476,744.081359 1536.89181,744.081359 C1538.9434,744.081359 1539.62726,743.739428 1539.62726,742.713633 Z M1796.51924,846.318922 C1796.51924,856.918803 1786.94515,866.150957 1776.34527,866.150957 C1771.90016,866.150957 1767.11312,864.099367 1763.00994,859.996187 C1753.09392,849.738238 1712.40405,805.629056 1697.70099,788.532473 C1696.33327,786.822815 1693.93975,786.138952 1690.86236,786.138952 C1682.99793,786.138952 1682.99793,788.190542 1682.99793,811.099962 C1682.99793,818.622458 1683.33986,829.564271 1684.02373,848.712443 C1684.36566,855.893008 1680.26248,866.150957 1666.58521,866.150957 C1657.35306,866.150957 1648.46284,860.338119 1648.46284,849.396306 L1648.46284,848.712443 C1649.48863,813.151552 1650.17249,761.861805 1650.17249,715.359101 C1650.17249,677.062757 1649.83056,642.185729 1649.1467,621.66983 C1648.80477,612.437676 1656.32726,605.940975 1667.95294,605.940975 C1676.84316,605.940975 1685.73339,610.728018 1685.73339,621.327899 L1685.73339,622.011762 C1684.70759,659.624243 1684.36566,747.842608 1684.36566,747.842608 C1684.36566,750.919992 1687.44304,752.629651 1689.83657,752.629651 C1694.96554,752.629651 1696.33327,751.603856 1760.95835,699.972177 C1764.7196,697.236724 1768.48084,695.868997 1771.90016,695.868997 C1782.15811,695.868997 1790.7064,706.126947 1790.7064,716.042965 C1790.7064,721.171939 1788.65481,725.958982 1783.86777,729.378299 C1763.6938,743.739428 1748.64881,754.339309 1730.52643,766.306916 C1728.13291,767.674643 1727.10711,769.04237 1727.10711,770.068165 C1727.10711,771.435891 1728.13291,772.803618 1729.84257,774.513276 C1747.28108,791.95179 1781.47425,822.725638 1790.7064,832.641656 C1794.80958,837.086767 1796.51924,841.87381 1796.51924,846.318922 Z M1847.9103,866.150957 C1838.67814,866.150957 1829.78792,860.338119 1829.78792,849.396306 L1829.78792,848.712443 C1830.81372,816.228937 1831.15565,793.661448 1831.15565,773.487481 C1831.15565,752.971582 1830.81372,735.191137 1830.12985,712.281716 L1830.12985,711.597853 C1830.12985,701.339904 1840.04587,696.210929 1848.59416,696.210929 C1857.14245,696.210929 1866.03268,701.339904 1866.03268,712.281716 C1866.03268,713.649443 1865.69074,714.675238 1865.69074,715.701033 L1865.69074,717.068759 C1865.69074,717.752623 1865.69074,718.094554 1866.03268,718.094554 C1866.03268,718.094554 1866.71654,717.752623 1867.4004,716.726828 C1881.07767,701.681835 1899.54198,695.868997 1911.16765,695.868997 C1921.76753,695.868997 1927.9223,703.733425 1927.9223,712.281716 C1927.9223,720.830008 1921.76753,729.72023 1908.4322,731.087957 C1888.25823,733.139547 1865.69074,749.894197 1864.66495,771.435891 C1864.32302,777.590661 1864.32302,784.771225 1864.32302,794.00338 C1864.32302,807.338714 1864.66495,824.435296 1865.34881,848.712443 C1865.69074,855.893008 1861.58756,866.150957 1847.9103,866.150957 Z M1978.28757,652.101747 C1964.95223,652.101747 1954.35235,643.553456 1954.35235,627.8246 C1954.35235,611.069949 1968.71348,604.573248 1978.28757,604.573248 C1990.59711,604.573248 2002.22278,614.831197 2002.22278,627.8246 C2002.22278,640.134139 1992.99063,652.101747 1978.28757,652.101747 Z M1996.75188,849.738238 C1996.75188,861.363914 1987.51972,867.176752 1978.28757,867.176752 C1969.05541,867.176752 1960.16519,861.363914 1960.16519,849.738238 C1960.16519,821.357911 1960.50712,782.377704 1960.50712,751.261924 C1960.50712,735.875 1960.50712,722.197734 1960.16519,712.96558 C1959.82326,701.681835 1968.37155,695.527066 1978.6295,695.527066 C1987.51972,695.527066 1996.75188,700.997972 1996.75188,711.939785 C1996.75188,712.281716 1996.75188,712.281716 1996.75188,712.623648 C1996.40994,726.642846 1996.06801,753.655446 1996.06801,782.377704 C1996.06801,805.970987 1996.40994,830.248134 1996.75188,849.054375 C1996.75188,849.396306 1996.75188,849.396306 1996.75188,849.738238 Z" id="Akri" fill="#3E446F"></path>
        <g id="Cube-Main" transform="translate(720.687500, 740.921170) scale(-1, -1) translate(-720.687500, -740.921170) translate(348.687500, 313.421170)">
            <g id="left" transform="translate(370.381948, 0.015676)">
                <mask id="mask-2" fill="white">
                    <use xlink:href="#path-1"></use>
                </mask>
                <use id="Rectangle-5" fill="#78FFC9" xlink:href="#path-1"></use>
                <polygon id="Path-6" fill="#3E446F" fill-rule="nonzero" mask="url(#mask-2)" points="253.702976 493.041472 253.702976 283.900185 -5.91289974 129.431644 -5.91289974 356.054239 -0.205180623 358.501109 58.2947471 394.573697 58.2947471 452.867417 58.2947471 474.01015 127.731592 505.501763 127.731592 356.054239 57.3559581 312.120588 57.3559581 245.478404 189.493356 323.765421 189.493356 539.044109 381.097096 649.716141 381.097096 210.320433 -2.2948866 -9.4292194 -2.2948866 66.6043084 -0.205180623 70.4916746 310.417083 253.51657 310.417083 525.420075"></polygon>
            </g>
            <g id="top" transform="translate(0.084959, 418.925657)">
                <mask id="mask-4" fill="white">
                    <use xlink:href="#path-3"></use>
                </mask>
                <use id="Rectangle-5" fill="#FFFFFF" xlink:href="#path-3"></use>
                <polygon id="Path-4" fill="#3E446F" fill-rule="nonzero" mask="url(#mask-4)" points="742.338691 217.527451 371.444493 435.207624 0.269964232 217.81888 66.6014795 178.574858 371.317709 356.948727 683.615783 174.675652 504.024399 71.3807355 498.562353 74.4817486 371.444493 144.813477 302.085592 102.492491 241.920214 137.571531 371.444493 211.963288 498.057193 140.5798 567.320389 181.573754 371.949653 292.050924 118.834756 146.579565 318.350372 30.3344899 372.454813 63.9325813 455.004119 19.4094123 763.026583 192.031163"></polygon>
            </g>
            <g id="right" transform="translate(0.000000, 0.505160)" fill-rule="nonzero">
                <polygon id="Path-3" fill="#8CCFCE" points="370.84867 0.235807238 0.533628983 218.756105 0.533628983 635.729406 370.84867 418.351639"></polygon>
                <polygon id="Path-2" fill="#524886" points="66.5053903 597.621871 66.5053903 376.014867 255.364295 269.082697 255.364295 339.161846 120.906811 414.880635 120.906811 565.854492 188.333868 526.418445 188.333868 453.146526 315.884864 379.24513 315.884864 161.501318 0.570984254 342.160856 0.362940062 636.403282"></polygon>
                <polygon id="Path-7" fill="#524886" points="370.808217 0.0315725172 370.808217 69.8729404 0.319712846 285.809287 0.00281603832 218.93666"></polygon>
            </g>
        </g>
    </g>
</svg>