<?xml version="1.0" encoding="UTF-8"?>
<svg width="2509px" height="1441px" viewBox="0 0 2509 1441" version="1.1" xmlns="http://www.w3.org/2000/svg" xmlns:xlink="http://www.w3.org/1999/xlink">
    <!-- Generator: Sketch 51.3 (57544) - http://www.bohemiancoding.com/sketch -->
    <title>logo strip</title>
    <desc>Created with Sketch.</desc>
    <defs>
        <polygon id="path-1" points="372.056053 636.539198 0.109255203 421.64021 0.109255203 0.441802823 372.056053 217.973657"></polygon>
        <polygon id="path-3" points="371.334837 0.0494938955 742.74905 217.647788 371.334837 435.246082 0.315596385 217.863525"></polygon>
    </defs>
    <g id="logo-strip" stroke="none" stroke-width="1" fill="none" fill-rule="evenodd">
        <path d="M1462.42658,802.008253 L1393.46983,802.008253 L1375.01063,863.245894 L1327.70984,863.245894 L1416.82116,598.445887 L1439.6269,598.445887 L1528.73823,863.245894 L1480.59277,863.245894 L1462.42658,802.008253 Z M1403.78151,767.79964 L1452.27857,767.79964 L1428.22403,686.712556 L1403.78151,767.79964 Z M1619.9612,774.134568 L1604.33504,789.760725 L1604.33504,863.245894 L1555.76726,863.245894 L1555.76726,579.863431 L1607.71367,579.863431 L1607.71367,583.664388 C1606.3059,585.353711 1605.39086,587.183783 1604.96853,589.154659 C1604.5462,591.125536 1604.33504,594.50413 1604.33504,599.290545 L1604.33504,737.814312 L1679.50952,665.1738 C1681.76196,665.455354 1684.15513,665.807291 1686.68911,666.229621 C1689.22309,666.651952 1691.75704,667.003889 1694.29102,667.285443 C1696.82501,667.566996 1699.35895,667.778159 1701.89294,667.918935 C1704.42692,668.059712 1706.53854,668.1301 1708.22787,668.1301 L1731.03361,668.1301 L1652.90283,744.571569 L1741.59182,862.823566 L1687.11144,864.935208 L1619.9612,774.134568 Z M1827.32769,698.477424 C1827.86725,697.346113 1828.44103,696.240015 1829.04903,695.159128 C1832.85,688.401837 1837.63635,682.489296 1843.4082,677.421328 C1849.18005,672.35336 1855.51492,668.552441 1862.41299,666.018457 C1869.31105,663.484473 1876.42018,662.2175 1883.74058,662.2175 C1894.72117,662.2175 1904.6458,663.977185 1913.51474,667.496607 C1922.38368,671.016029 1930.61901,676.717408 1938.22096,684.600914 L1917.94919,724.722127 L1916.6822,728.100755 L1912.88125,726.411441 C1912.03659,724.159011 1911.19194,721.836227 1910.34728,719.44302 C1909.50262,717.049813 1907.39099,714.304704 1904.01235,711.207613 C1900.0706,708.110521 1895.91774,705.71735 1891.55366,704.028027 C1887.18957,702.338705 1882.47362,701.494056 1877.40565,701.494056 C1870.64836,701.494056 1864.17272,702.620254 1857.97854,704.872684 C1851.78435,707.125115 1846.36452,710.644484 1841.71889,715.430898 C1837.07325,720.217313 1833.4131,726.341015 1830.73834,733.802191 C1828.06358,741.263366 1826.72622,750.06179 1826.72622,760.197726 L1826.72622,863.245894 L1778.15844,863.245894 L1778.15844,666.863114 L1827.57088,666.863114 L1827.32769,698.477424 Z M1969.17413,863.245894 L1969.17413,825.658652 L2017.31958,825.658652 L2017.31958,704.450356 L1971.7081,704.450356 L1971.7081,666.863114 L2065.46504,666.863114 L2065.46504,825.658652 L2109.38721,825.658652 L2109.38721,863.245894 L1969.17413,863.245894 Z M2039.28067,634.343815 C2031.11561,634.343815 2024.07687,631.528319 2018.16424,625.897244 C2012.25161,620.266168 2009.29534,613.508979 2009.29534,605.625473 C2009.29534,597.17886 2012.11083,590.280895 2017.74191,584.931374 C2023.37299,579.581852 2030.5525,576.907131 2039.28067,576.907131 C2047.16417,576.907131 2054.13252,579.722627 2060.18593,585.353702 C2066.23934,590.984778 2069.26599,597.741967 2069.26599,605.625473 C2069.26599,613.508979 2066.23934,620.266168 2060.18593,625.897244 C2054.13252,631.528319 2047.16417,634.343815 2039.28067,634.343815 Z" id="Akri" fill="#3E446F"></path>
        <g id="Cube-Main" transform="translate(720.687500, 740.921170) scale(-1, -1) translate(-720.687500, -740.921170) translate(348.687500, 313.421170)">
            <g id="left" transform="translate(370.381948, 0.015676)">
                <mask id="mask-2" fill="white">
                    <use xlink:href="#path-1"></use>
                </mask>
                <use id="Rectangle-5" fill="#78FFC9" xlink:href="#path-1"></use>
                <polygon id="Path-6" fill="#3E446F" fill-rule="nonzero" mask="url(#mask-2)" points="253.702976 493.041472 253.702976 283.900185 -5.91289974 129.431644 -5.91289974 356.054239 -0.205180623 358.501109 58.2947471 394.573697 58.2947471 452.867417 58.2947471 474.01015 127.731592 505.501763 127.731592 356.054239 57.3559581 312.120588 57.3559581 245.478404 189.493356 323.765421 189.493356 539.044109 381.097096 649.716141 381.097096 210.320433 -2.2948866 -9.4292194 -2.2948866 66.6043084 -0.205180623 70.4916746 310.417083 253.51657 310.417083 525.420075"></polygon>
            </g>
            <g id="top" transform="translate(0.084959, 418.925657)">
                <mask id="mask-4" fill="white">
                    <use xlink:href="#path-3"></use>
                </mask>
                <use id="Rectangle-5" fill="#FFFFFF" xlink:href="#path-3"></use>
                <polygon id="Path-4" fill="#3E446F" fill-rule="nonzero" mask="url(#mask-4)" points="742.338691 217.527451 371.444493 435.207624 0.269964232 217.81888 66.6014795 178.574858 371.317709 356.948727 683.615783 174.675652 504.024399 71.3807355 498.562353 74.4817486 371.444493 144.813477 302.085592 102.492491 241.920214 137.571531 371.444493 211.963288 498.057193 140.5798 567.320389 181.573754 371.949653 292.050924 118.834756 146.579565 318.350372 30.3344899 372.454813 63.9325813 455.004119 19.4094123 763.026583 192.031163"></polygon>
            </g>
            <g id="right" transform="translate(0.000000, 0.505160)" fill-rule="nonzero">
                <polygon id="Path-3" fill="#8CCFCE" points="370.84867 0.235807238 0.533628983 218.756105 0.533628983 635.729406 370.84867 418.351639"></polygon>
                <polygon id="Path-2" fill="#524886" points="66.5053903 597.621871 66.5053903 376.014867 255.364295 269.082697 255.364295 339.161846 120.906811 414.880635 120.906811 565.854492 188.333868 526.418445 188.333868 453.146526 315.884864 379.24513 315.884864 161.501318 0.570984254 342.160856 0.362940062 636.403282"></polygon>
                <polygon id="Path-7" fill="#524886" points="370.808217 0.0315725172 370.808217 69.8729404 0.319712846 285.809287 0.00281603832 218.93666"></polygon>
            </g>
        </g>
    </g>
</svg>