<?xml version="1.0" encoding="UTF-8"?>
<svg width="2509px" height="1441px" viewBox="0 0 2509 1441" version="1.1" xmlns="http://www.w3.org/2000/svg" xmlns:xlink="http://www.w3.org/1999/xlink">
    <!-- Generator: Sketch 51.3 (57544) - http://www.bohemiancoding.com/sketch -->
    <title>logo strip</title>
    <desc>Created with Sketch.</desc>
    <defs>
        <polygon id="path-1" points="371.369533 635.364651 0.109053605 420.862197 0.109053605 0.440987605 371.369533 217.571451"></polygon>
        <polygon id="path-3" points="370.649647 0.049402569 741.378525 217.246183 370.649647 434.442963 0.315014045 217.461522"></polygon>
    </defs>
    <g id="logo-strip" stroke="none" stroke-width="1" fill="none" fill-rule="evenodd">
        <path d="M1621.30824,842.660853 C1621.30824,854.286529 1611.0503,861.125162 1600.45041,861.125162 C1592.58599,861.125162 1584.37963,857.363914 1580.96031,848.473691 C1576.85713,838.557673 1567.96691,811.203142 1557.36703,779.403499 C1556.68316,777.351909 1555.65737,776.326114 1553.60578,776.326114 C1548.13487,775.984182 1534.11567,775.984182 1518.72875,775.984182 C1498.21285,775.984182 1475.30343,775.984182 1468.12287,776.326114 C1466.41321,776.326114 1464.70355,777.351909 1464.01969,779.403499 C1455.4714,806.416099 1447.60697,831.035177 1442.47799,847.447896 C1439.40061,857.021982 1431.53618,861.467094 1423.32982,861.467094 C1413.75574,861.467094 1403.83972,854.970392 1403.83972,844.370511 C1403.83972,838.215742 1404.86551,835.480289 1479.74854,624.850395 C1485.21945,609.121539 1497.52899,601.940975 1509.83853,601.940975 C1522.83193,601.940975 1536.16726,610.147334 1541.63817,625.534258 C1563.5218,687.081954 1607.97291,806.074167 1619.25665,832.744835 C1620.62438,836.164152 1621.30824,839.583468 1621.30824,842.660853 Z M1543.68976,738.713633 C1543.68976,738.371701 1543.68976,737.687838 1543.34783,737.003975 C1532.74795,704.8624 1522.49,673.74662 1517.01909,656.99197 C1514.9675,650.8372 1513.25784,647.417884 1511.20625,647.417884 C1509.4966,647.417884 1507.44501,650.495268 1505.05148,657.333901 C1499.92251,671.011167 1477.69695,734.952385 1477.69695,738.02977 C1477.69695,739.397496 1478.38082,740.081359 1480.43241,740.081359 C1487.27104,740.081359 1499.92251,740.423291 1511.89012,740.423291 C1524.19966,740.423291 1536.16726,740.081359 1540.95431,740.081359 C1543.0059,740.081359 1543.68976,739.739428 1543.68976,738.713633 Z M1800.58174,842.318922 C1800.58174,852.918803 1791.00765,862.150957 1780.40777,862.150957 C1775.96266,862.150957 1771.17562,860.099367 1767.07244,855.996187 C1757.15642,845.738238 1716.46655,801.629056 1701.76349,784.532473 C1700.39577,782.822815 1698.00225,782.138952 1694.92486,782.138952 C1687.06043,782.138952 1687.06043,784.190542 1687.06043,807.099962 C1687.06043,814.622458 1687.40236,825.564271 1688.08623,844.712443 C1688.42816,851.893008 1684.32498,862.150957 1670.64771,862.150957 C1661.41556,862.150957 1652.52534,856.338119 1652.52534,845.396306 L1652.52534,844.712443 C1653.55113,809.151552 1654.23499,757.861805 1654.23499,711.359101 C1654.23499,673.062757 1653.89306,638.185729 1653.2092,617.66983 C1652.86727,608.437676 1660.38976,601.940975 1672.01544,601.940975 C1680.90566,601.940975 1689.79589,606.728018 1689.79589,617.327899 L1689.79589,618.011762 C1688.77009,655.624243 1688.42816,743.842608 1688.42816,743.842608 C1688.42816,746.919992 1691.50554,748.629651 1693.89907,748.629651 C1699.02804,748.629651 1700.39577,747.603856 1765.02085,695.972177 C1768.7821,693.236724 1772.54334,691.868997 1775.96266,691.868997 C1786.22061,691.868997 1794.7689,702.126947 1794.7689,712.042965 C1794.7689,717.171939 1792.71731,721.958982 1787.93027,725.378299 C1767.7563,739.739428 1752.71131,750.339309 1734.58893,762.306916 C1732.19541,763.674643 1731.16961,765.04237 1731.16961,766.068165 C1731.16961,767.435891 1732.19541,768.803618 1733.90507,770.513276 C1751.34358,787.95179 1785.53675,818.725638 1794.7689,828.641656 C1798.87208,833.086767 1800.58174,837.87381 1800.58174,842.318922 Z M1851.9728,862.150957 C1842.74064,862.150957 1833.85042,856.338119 1833.85042,845.396306 L1833.85042,844.712443 C1834.87622,812.228937 1835.21815,789.661448 1835.21815,769.487481 C1835.21815,748.971582 1834.87622,731.191137 1834.19235,708.281716 L1834.19235,707.597853 C1834.19235,697.339904 1844.10837,692.210929 1852.65666,692.210929 C1861.20495,692.210929 1870.09518,697.339904 1870.09518,708.281716 C1870.09518,709.649443 1869.75324,710.675238 1869.75324,711.701033 L1869.75324,713.068759 C1869.75324,713.752623 1869.75324,714.094554 1870.09518,714.094554 C1870.09518,714.094554 1870.77904,713.752623 1871.4629,712.726828 C1885.14017,697.681835 1903.60448,691.868997 1915.23015,691.868997 C1925.83003,691.868997 1931.9848,699.733425 1931.9848,708.281716 C1931.9848,716.830008 1925.83003,725.72023 1912.4947,727.087957 C1892.32073,729.139547 1869.75324,745.894197 1868.72745,767.435891 C1868.38552,773.590661 1868.38552,780.771225 1868.38552,790.00338 C1868.38552,803.338714 1868.72745,820.435296 1869.41131,844.712443 C1869.75324,851.893008 1865.65006,862.150957 1851.9728,862.150957 Z M1982.35007,648.101747 C1969.01473,648.101747 1958.41485,639.553456 1958.41485,623.8246 C1958.41485,607.069949 1972.77598,600.573248 1982.35007,600.573248 C1994.65961,600.573248 2006.28528,610.831197 2006.28528,623.8246 C2006.28528,636.134139 1997.05313,648.101747 1982.35007,648.101747 Z M2000.81438,845.738238 C2000.81438,857.363914 1991.58222,863.176752 1982.35007,863.176752 C1973.11791,863.176752 1964.22769,857.363914 1964.22769,845.738238 C1964.22769,817.357911 1964.56962,778.377704 1964.56962,747.261924 C1964.56962,731.875 1964.56962,718.197734 1964.22769,708.96558 C1963.88576,697.681835 1972.43405,691.527066 1982.692,691.527066 C1991.58222,691.527066 2000.81438,696.997972 2000.81438,707.939785 C2000.81438,708.281716 2000.81438,708.281716 2000.81438,708.623648 C2000.47244,722.642846 2000.13051,749.655446 2000.13051,778.377704 C2000.13051,801.970987 2000.47244,826.248134 2000.81438,845.054375 C2000.81438,845.396306 2000.81438,845.396306 2000.81438,845.738238 Z" id="Akri" fill="#FFFFFF"></path>
        <g id="Cube-Main" transform="translate(717.015625, 743.052314) scale(-1, -1) translate(-717.015625, -743.052314) translate(345.515625, 316.052314)">
            <g id="left" transform="translate(369.698516, 0.015647)">
                <mask id="mask-2" fill="white">
                    <use xlink:href="#path-1"></use>
                </mask>
                <use id="Rectangle-5" fill="#3FB594" xlink:href="#path-1"></use>
                <polygon id="Path-6" fill="#FFFFFF" fill-rule="nonzero" mask="url(#mask-2)" points="253.234841 492.131708 253.234841 283.37633 -5.90198922 129.192816 -5.90198922 355.397246 -0.204802022 357.839601 58.1871813 393.845627 58.1871813 452.031783 58.1871813 473.135503 127.495901 504.569007 127.495901 355.397246 57.2501245 311.544661 57.2501245 245.025446 189.143701 323.168007 189.143701 538.049461 380.393893 648.517281 380.393893 209.932349 -2.29065206 -9.41182054 -2.29065206 66.4814097 -0.204802022 70.3616029 309.844299 253.048779 309.844299 524.450566"></polygon>
            </g>
            <g id="top" transform="translate(0.084803, 418.152652)">
                <mask id="mask-4" fill="white">
                    <use xlink:href="#path-3"></use>
                </mask>
                <g id="Rectangle-5"></g>
                <polygon id="Path-4" fill="#FFFFFF" fill-rule="nonzero" mask="url(#mask-4)" points="740.968923 217.126068 370.759101 434.404576 0.269466092 217.416959 66.478586 178.24535 370.632551 356.290082 682.35437 174.353339 503.094369 71.2490232 497.642402 74.3443144 370.759101 144.546266 301.528182 102.303371 241.473821 137.317683 370.759101 211.572172 497.138174 140.320401 566.273566 181.238712 371.263329 291.51203 118.615481 146.309095 317.762949 30.2785164 371.767557 63.8146125 454.164542 19.3735979 761.618641 191.676826"></polygon>
            </g>
            <g id="right" transform="translate(0.000000, 0.504228)" fill-rule="nonzero">
                <polygon id="Path-3" fill="#0AABA9" points="370.164377 0.235372124 0.532644327 218.352455 0.532644327 634.556354 370.164377 417.579693"></polygon>
                <polygon id="Path-2" fill="#EAE9F0" points="66.382674 596.519135 66.382674 375.321041 254.893095 268.586184 254.893095 338.536022 120.683713 414.115095 120.683713 564.810374 187.986353 525.447094 187.986353 452.310377 315.301991 378.545344 315.301991 161.203315 0.56993067 341.529498 0.362270363 635.228986"></polygon>
                <polygon id="Path-7" fill="#EAE9F0" points="370.123999 0.0315142593 370.123999 69.7440104 0.31912291 285.281909 0.00281084214 218.532677"></polygon>
            </g>
        </g>
    </g>
</svg>