<?xml version="1.0" encoding="UTF-8"?>
<svg width="2509px" height="1441px" viewBox="0 0 2509 1441" version="1.1" xmlns="http://www.w3.org/2000/svg" xmlns:xlink="http://www.w3.org/1999/xlink">
    <!-- Generator: Sketch 51.3 (57544) - http://www.bohemiancoding.com/sketch -->
    <title>logo strip</title>
    <desc>Created with Sketch.</desc>
    <defs>
        <polygon id="path-1" points="371.369533 635.364651 0.109053605 420.862197 0.109053605 0.440987605 371.369533 217.571451"></polygon>
        <polygon id="path-3" points="370.649647 0.049402569 741.378525 217.246183 370.649647 434.442963 0.315014045 217.461522"></polygon>
    </defs>
    <g id="logo-strip" stroke="none" stroke-width="1" fill="none" fill-rule="evenodd">
        <path d="M1479.20543,795.682152 L1419.13006,795.682152 L1403.04834,849.032604 L1361.83972,849.032604 L1439.47382,618.33789 L1459.34227,618.33789 L1536.97637,849.032604 L1495.03188,849.032604 L1479.20543,795.682152 Z M1428.11364,765.879485 L1470.36445,765.879485 L1449.40805,695.236128 L1428.11364,765.879485 Z M1616.45015,771.398498 L1602.83659,785.012061 L1602.83659,849.032604 L1560.52416,849.032604 L1560.52416,602.148787 L1605.78006,602.148787 L1605.78006,605.460194 C1604.55361,606.931938 1603.75643,608.526304 1603.38849,610.243338 C1603.02055,611.960373 1602.83659,614.903817 1602.83659,619.073758 L1602.83659,739.75616 L1668.32887,676.471486 C1670.29119,676.716777 1672.37613,677.023385 1674.58375,677.391321 C1676.79136,677.759257 1678.99895,678.065866 1681.20656,678.311157 C1683.41418,678.556447 1685.62176,678.740413 1687.82938,678.863058 C1690.03699,678.985703 1691.87665,679.047025 1693.34839,679.047025 L1713.21683,679.047025 L1645.14902,745.643107 L1722.41519,848.66467 L1674.95168,850.504341 L1616.45015,771.398498 Z M1797.10858,705.485723 C1797.57865,704.500121 1798.07853,703.536484 1798.60822,702.594811 C1801.91964,696.707835 1806.08952,691.556808 1811.11798,687.141577 C1816.14644,682.726345 1821.6654,679.41497 1827.67502,677.207354 C1833.68464,674.999738 1839.87813,673.895947 1846.25569,673.895947 C1855.82203,673.895947 1864.46839,675.428991 1872.19505,678.495124 C1879.92171,681.561257 1887.09635,686.528319 1893.7192,693.396457 L1876.05836,728.350202 L1874.95456,731.293675 L1871.64315,729.821938 C1870.90728,727.859613 1870.17142,725.835995 1869.43554,723.751025 C1868.69967,721.666054 1866.86002,719.274506 1863.91653,716.576309 C1860.48246,713.878111 1856.86448,711.793172 1853.06247,710.321428 C1849.26047,708.849684 1845.15191,708.113823 1840.73668,708.113823 C1834.8497,708.113823 1829.2081,709.094971 1823.81171,711.057296 C1818.41531,713.019622 1813.69354,716.085709 1809.64624,720.25565 C1805.59895,724.425592 1802.41022,729.760583 1800.07996,736.260786 C1797.74969,742.760989 1796.58458,750.426207 1796.58458,759.256671 L1796.58458,849.032604 L1754.27215,849.032604 L1754.27215,677.943223 L1797.32045,677.943223 L1797.10858,705.485723 Z M1920.6857,849.032604 L1920.6857,816.286464 L1962.6302,816.286464 L1962.6302,710.689362 L1922.89331,710.689362 L1922.89331,677.943223 L2004.57469,677.943223 L2004.57469,816.286464 L2042.83984,816.286464 L2042.83984,849.032604 L1920.6857,849.032604 Z M1981.76277,649.612293 C1974.64935,649.612293 1968.51717,647.159423 1963.36607,642.25361 C1958.21496,637.347797 1955.63945,631.460909 1955.63945,624.59277 C1955.63945,617.234051 1958.09232,611.22452 1962.99813,606.563997 C1967.90395,601.903474 1974.15876,599.573248 1981.76277,599.573248 C1988.63091,599.573248 1994.70177,602.026118 1999.97551,606.931931 C2005.24926,611.837744 2007.8861,617.724632 2007.8861,624.59277 C2007.8861,631.460909 2005.24926,637.347797 1999.97551,642.25361 C1994.70177,647.159423 1988.63091,649.612293 1981.76277,649.612293 Z" id="Akri" fill="#FFFFFF"></path>
        <g id="Cube-Main" transform="translate(717.015625, 743.052314) scale(-1, -1) translate(-717.015625, -743.052314) translate(345.515625, 316.052314)">
            <g id="left" transform="translate(369.698516, 0.015647)">
                <mask id="mask-2" fill="white">
                    <use xlink:href="#path-1"></use>
                </mask>
                <use id="Rectangle-5" fill="#3FB594" xlink:href="#path-1"></use>
                <polygon id="Path-6" fill="#FFFFFF" fill-rule="nonzero" mask="url(#mask-2)" points="253.234841 492.131708 253.234841 283.37633 -5.90198922 129.192816 -5.90198922 355.397246 -0.204802022 357.839601 58.1871813 393.845627 58.1871813 452.031783 58.1871813 473.135503 127.495901 504.569007 127.495901 355.397246 57.2501245 311.544661 57.2501245 245.025446 189.143701 323.168007 189.143701 538.049461 380.393893 648.517281 380.393893 209.932349 -2.29065206 -9.41182054 -2.29065206 66.4814097 -0.204802022 70.3616029 309.844299 253.048779 309.844299 524.450566"></polygon>
            </g>
            <g id="top" transform="translate(0.084803, 418.152652)">
                <mask id="mask-4" fill="white">
                    <use xlink:href="#path-3"></use>
                </mask>
                <g id="Rectangle-5"></g>
                <polygon id="Path-4" fill="#FFFFFF" fill-rule="nonzero" mask="url(#mask-4)" points="740.968923 217.126068 370.759101 434.404576 0.269466092 217.416959 66.478586 178.24535 370.632551 356.290082 682.35437 174.353339 503.094369 71.2490232 497.642402 74.3443144 370.759101 144.546266 301.528182 102.303371 241.473821 137.317683 370.759101 211.572172 497.138174 140.320401 566.273566 181.238712 371.263329 291.51203 118.615481 146.309095 317.762949 30.2785164 371.767557 63.8146125 454.164542 19.3735979 761.618641 191.676826"></polygon>
            </g>
            <g id="right" transform="translate(0.000000, 0.504228)" fill-rule="nonzero">
                <polygon id="Path-3" fill="#0AABA9" points="370.164377 0.235372124 0.532644327 218.352455 0.532644327 634.556354 370.164377 417.579693"></polygon>
                <polygon id="Path-2" fill="#EAE9F0" points="66.382674 596.519135 66.382674 375.321041 254.893095 268.586184 254.893095 338.536022 120.683713 414.115095 120.683713 564.810374 187.986353 525.447094 187.986353 452.310377 315.301991 378.545344 315.301991 161.203315 0.56993067 341.529498 0.362270363 635.228986"></polygon>
                <polygon id="Path-7" fill="#EAE9F0" points="370.123999 0.0315142593 370.123999 69.7440104 0.31912291 285.281909 0.00281084214 218.532677"></polygon>
            </g>
        </g>
    </g>
</svg>