<?xml version="1.0" encoding="UTF-8" standalone="no"?>
<!DOCTYPE svg PUBLIC "-//W3C//DTD SVG 1.1//EN" "http://www.w3.org/Graphics/SVG/1.1/DTD/svg11.dtd">
<!-- Generated by Microsoft Visio, SVG Export broker-deployment-feasible.svg Currently Feasible Architecture -->
<svg xmlns="http://www.w3.org/2000/svg" xmlns:xlink="http://www.w3.org/1999/xlink" xmlns:ev="http://www.w3.org/2001/xml-events"
		xmlns:v="http://schemas.microsoft.com/visio/2003/SVGExtensions/" width="15.5755in" height="9.48798in"
		viewBox="0 0 1121.43 683.134" xml:space="preserve" color-interpolation-filters="sRGB" class="st14">
	<v:documentProperties v:langID="1033" v:viewMarkup="false">
		<v:userDefs>
			<v:ud v:nameU="msvSubprocessMaster" v:prompt="" v:val="VT4(Rectangle)"/>
			<v:ud v:nameU="msvNoAutoConnect" v:val="VT0(1):26"/>
		</v:userDefs>
	</v:documentProperties>

	<style type="text/css">
	<![CDATA[
		.st1 {fill:none;stroke:none;stroke-width:0.25}
		.st2 {fill:#000000;font-family:Calibri;font-size:2.50001em}
		.st3 {fill:#75a4f5;stroke:#c7c8c8;stroke-width:0.25}
		.st4 {fill:none;stroke:#2b74ef;stroke-width:1.5}
		.st5 {stroke:#2b74ef;stroke-linecap:round;stroke-linejoin:round;stroke-width:1.5}
		.st6 {fill:#2b74ef;stroke:#2b74ef;stroke-width:0.25}
		.st7 {fill:#feffff;font-family:Calibri;font-size:1.99999em}
		.st8 {font-size:1em}
		.st9 {stroke:#03a587;stroke-linecap:round;stroke-linejoin:round;stroke-width:1.5}
		.st10 {fill:#7b67e1;stroke:none;stroke-width:0.25}
		.st11 {fill:#feffff;font-family:Calibri;font-size:3em}
		.st12 {fill:#03a587;stroke:#03a587;stroke-width:0.25}
		.st13 {fill:#feffff;font-family:Calibri;font-size:1.66667em}
		.st14 {fill:none;fill-rule:evenodd;font-size:12px;overflow:visible;stroke-linecap:square;stroke-miterlimit:3}
	]]>
	</style>

	<g v:mID="5" v:index="3" v:groupContext="foregroundPage">
		<v:userDefs>
			<v:ud v:nameU="msvThemeOrder" v:val="VT0(0):26"/>
		</v:userDefs>
		<title>Currently Feasible Architecture</title>
		<v:pageProperties v:drawingScale="1" v:pageScale="1" v:drawingUnits="0" v:shadowOffsetX="9" v:shadowOffsetY="-9"/>
		<v:layer v:name="Connector" v:index="0"/>
		<g id="shape1000-1" v:mID="1000" v:groupContext="shape" transform="translate(245.716,-604.134)">
			<title>Sheet.1000</title>
			<desc>Currently Feasible Architecture</desc>
			<v:textBlock v:margins="rect(4,4,4,4)"/>
			<v:textRect cx="310.5" cy="652.759" width="621" height="60.75"/>
			<rect x="0" y="622.384" width="621" height="60.75" class="st1"/>
			<text x="121.14" y="661.76" class="st2" v:langID="1033"><v:paragraph v:horizAlign="1"/><v:tabList/>Currently Feasible Architecture</text>		</g>
		<g id="shape1001-4" v:mID="1001" v:groupContext="shape" transform="translate(792.408,82.2282) rotate(90)">
			<title>Rectangle.1061</title>
			<v:userDefs>
				<v:ud v:nameU="visVersion" v:val="VT0(15):26"/>
			</v:userDefs>
			<rect x="0" y="359.135" width="432" height="324" class="st3"/>
		</g>
		<g id="shape1002-6" v:mID="1002" v:groupContext="shape" transform="translate(1368.41,82.2282) rotate(90)">
			<title>Rectangle.1062</title>
			<v:userDefs>
				<v:ud v:nameU="visVersion" v:val="VT0(15):26"/>
			</v:userDefs>
			<rect x="0" y="359.135" width="432" height="324" class="st3"/>
		</g>
		<g id="group1003-8" transform="translate(195.365,-19.5)" v:mID="1003" v:groupContext="group">
			<title>Sheet.1003</title>
			<g id="shape1004-9" v:mID="1004" v:groupContext="shape" transform="translate(0,-9.5625)">
				<title>Sheet.1004</title>
				<path d="M36 669.07 L0 683.13 L0 611.13 L36 624.63 L36 669.07 Z" class="st4"/>
			</g>
			<g id="shape1005-11" v:mID="1005" v:groupContext="shape" transform="translate(36.3649,0)">
				<title>Rectangle.1005</title>
				<v:userDefs>
					<v:ud v:nameU="visVersion" v:val="VT0(15):26"/>
				</v:userDefs>
				<rect x="0" y="592.009" width="112.5" height="91.125" class="st4"/>
			</g>
		</g>
		<g id="group1006-13" transform="translate(771.365,-19.5)" v:mID="1006" v:groupContext="group">
			<title>Sheet.1006</title>
			<g id="shape1007-14" v:mID="1007" v:groupContext="shape" transform="translate(0,-9.5625)">
				<title>Sheet.1007</title>
				<path d="M36 669.07 L0 683.13 L0 611.13 L36 624.63 L36 669.07 Z" class="st4"/>
			</g>
			<g id="shape1008-16" v:mID="1008" v:groupContext="shape" transform="translate(36.3649,0)">
				<title>Rectangle.1005</title>
				<v:userDefs>
					<v:ud v:nameU="visVersion" v:val="VT0(15):26"/>
				</v:userDefs>
				<rect x="0" y="592.009" width="112.5" height="91.125" class="st4"/>
			</g>
		</g>
		<g id="group1009-18" transform="translate(595.5,-19.5)" v:mID="1009" v:groupContext="group">
			<title>Sheet.1009</title>
			<g id="shape1010-19" v:mID="1010" v:groupContext="shape" transform="translate(0,-9.5625)">
				<title>Sheet.1010</title>
				<path d="M36 669.07 L0 683.13 L0 611.13 L36 624.63 L36 669.07 Z" class="st4"/>
			</g>
			<g id="shape1011-21" v:mID="1011" v:groupContext="shape" transform="translate(36.3649,0)">
				<title>Rectangle.1005</title>
				<v:userDefs>
					<v:ud v:nameU="visVersion" v:val="VT0(15):26"/>
				</v:userDefs>
				<rect x="0" y="592.009" width="112.5" height="91.125" class="st4"/>
			</g>
		</g>
		<g id="group1012-23" transform="translate(371.23,-19.5)" v:mID="1012" v:groupContext="group">
			<title>Sheet.1012</title>
			<g id="shape1013-24" v:mID="1013" v:groupContext="shape" transform="translate(0,-9.5625)">
				<title>Sheet.1013</title>
				<path d="M36 669.07 L0 683.13 L0 611.13 L36 624.63 L36 669.07 Z" class="st4"/>
			</g>
			<g id="shape1014-26" v:mID="1014" v:groupContext="shape" transform="translate(36.3649,0)">
				<title>Rectangle.1005</title>
				<v:userDefs>
					<v:ud v:nameU="visVersion" v:val="VT0(15):26"/>
				</v:userDefs>
				<rect x="0" y="592.009" width="112.5" height="91.125" class="st4"/>
			</g>
		</g>
		<g id="group1015-28" transform="translate(19.5,-19.5)" v:mID="1015" v:groupContext="group">
			<title>Sheet.1015</title>
			<g id="shape1016-29" v:mID="1016" v:groupContext="shape" transform="translate(0,-9.5625)">
				<title>Sheet.1016</title>
				<path d="M36 669.07 L0 683.13 L0 611.13 L36 624.63 L36 669.07 Z" class="st4"/>
			</g>
			<g id="shape1017-31" v:mID="1017" v:groupContext="shape" transform="translate(36.3649,0)">
				<title>Rectangle.1005</title>
				<v:userDefs>
					<v:ud v:nameU="visVersion" v:val="VT0(15):26"/>
				</v:userDefs>
				<rect x="0" y="592.009" width="112.5" height="91.125" class="st4"/>
			</g>
		</g>
		<g id="shape1018-33" v:mID="1018" v:groupContext="shape" transform="translate(970.92,537.544) rotate(89.6621)">
			<title>Sheet.1018</title>
			<path d="M0 683.13 L30.94 683.13" class="st5"/>
		</g>
		<g id="shape1019-36" v:mID="1019" v:groupContext="shape" transform="translate(1146.99,541.907) rotate(90.0281)">
			<title>Sheet.1019</title>
			<path d="M0 683.13 L30.94 683.13" class="st5"/>
		</g>
		<g id="shape1020-39" v:mID="1020" v:groupContext="shape" transform="translate(1371.42,545.6) rotate(90.3379)">
			<title>Sheet.1020</title>
			<path d="M0 683.13 L30.94 683.13" class="st5"/>
		</g>
		<g id="shape1021-42" v:mID="1021" v:groupContext="shape" transform="translate(188.024,-381.313)">
			<title>Rectangle.1083</title>
			<desc>ML Processing Broker</desc>
			<v:userDefs>
				<v:ud v:nameU="visVersion" v:val="VT0(15):26"/>
			</v:userDefs>
			<v:textBlock v:margins="rect(4,4,4,4)"/>
			<v:textRect cx="83.25" cy="638.134" width="166.5" height="90"/>
			<rect x="0" y="593.135" width="166.5" height="90" class="st6"/>
			<text x="13.38" y="630.93" class="st7" v:langID="1033"><v:paragraph v:horizAlign="1"/><v:tabList/>ML Processing <tspan
						x="50.6" dy="1.2em" class="st8">Broker</tspan></text>		</g>
		<g id="shape1022-46" v:mID="1022" v:groupContext="shape" v:layerMember="0" transform="translate(148.245,-168.906)">
			<title>Dynamic connector.1084</title>
			<path d="M0 683.13 L-36.13 786.98" class="st9"/>
		</g>
		<g id="shape1023-49" v:mID="1023" v:groupContext="shape" v:layerMember="0" transform="translate(287.98,-65.0625)">
			<title>Dynamic connector.1085</title>
			<path d="M0 683.13 L-18.18 579.29" class="st9"/>
		</g>
		<g id="shape1024-52" v:mID="1024" v:groupContext="shape" v:layerMember="0" transform="translate(463.845,-65.0625)">
			<title>Dynamic connector.1086</title>
			<path d="M0 683.13 L-69.54 579.29" class="st9"/>
		</g>
		<g id="shape1025-55" v:mID="1025" v:groupContext="shape" transform="translate(1523.86,365.198) rotate(77.5925)">
			<title>Sheet.1025</title>
			<path d="M0 683.13 L33.19 683.13" class="st5"/>
		</g>
		<g id="shape1026-58" v:mID="1026" v:groupContext="shape" transform="translate(-276.681,925.478) rotate(-124.193)">
			<title>Sheet.1026</title>
			<path d="M0 683.13 L33.06 683.13" class="st5"/>
		</g>
		<g id="group1027-61" transform="translate(953.068,-19.5)" v:mID="1027" v:groupContext="group">
			<title>Sheet.1027</title>
			<g id="shape1028-62" v:mID="1028" v:groupContext="shape" transform="translate(0,-9.5625)">
				<title>Sheet.1028</title>
				<path d="M36 669.07 L0 683.13 L0 611.13 L36 624.63 L36 669.07 Z" class="st4"/>
			</g>
			<g id="shape1029-64" v:mID="1029" v:groupContext="shape" transform="translate(36.3649,0)">
				<title>Rectangle.1005</title>
				<v:userDefs>
					<v:ud v:nameU="visVersion" v:val="VT0(15):26"/>
				</v:userDefs>
				<rect x="0" y="592.009" width="112.5" height="91.125" class="st4"/>
			</g>
		</g>
		<g id="shape1030-66" v:mID="1030" v:groupContext="shape" v:layerMember="0" transform="translate(1054.59,-110.625)">
			<title>Dynamic connector.1093</title>
			<path d="M-8.91 683.13 L-9.09 652.2" class="st5"/>
		</g>
		<g id="shape1031-69" v:mID="1031" v:groupContext="shape" transform="translate(764.024,-381.313)">
			<title>Rectangle.1094</title>
			<desc>ML Processing Broker</desc>
			<v:userDefs>
				<v:ud v:nameU="visVersion" v:val="VT0(15):26"/>
			</v:userDefs>
			<v:textBlock v:margins="rect(4,4,4,4)"/>
			<v:textRect cx="83.25" cy="638.134" width="166.5" height="90"/>
			<rect x="0" y="593.135" width="166.5" height="90" class="st6"/>
			<text x="13.38" y="630.93" class="st7" v:langID="1033"><v:paragraph v:horizAlign="1"/><v:tabList/>ML Processing <tspan
						x="50.6" dy="1.2em" class="st8">Broker</tspan></text>		</g>
		<g id="shape1032-73" v:mID="1032" v:groupContext="shape" v:layerMember="0" transform="translate(1045.68,-65.0625)">
			<title>Dynamic connector.1095</title>
			<path d="M0 683.13 L-64.42 579.29" class="st9"/>
		</g>
		<g id="shape1033-76" v:mID="1033" v:groupContext="shape" v:layerMember="0" transform="translate(869.331,-65.0625)">
			<title>Dynamic connector.1096</title>
			<path d="M-5.35 683.13 L-12.65 577.04" class="st9"/>
		</g>
		<g id="shape1034-79" v:mID="1034" v:groupContext="shape" v:layerMember="0" transform="translate(724.245,-168.906)">
			<title>Dynamic connector.1097</title>
			<path d="M0 683.13 L-36.13 786.98" class="st9"/>
		</g>
		<g id="shape1035-82" v:mID="1035" v:groupContext="shape" transform="translate(180.87,566.707) rotate(-89.5134)">
			<title>Sheet.1035</title>
			<path d="M0 683.13 L28.84 683.13" class="st5"/>
		</g>
		<g id="shape1036-85" v:mID="1036" v:groupContext="shape" v:layerMember="0" transform="translate(1045.5,-150.563)">
			<title>Dynamic connector.1099</title>
			<path d="M0 692.13 L-44.27 692.13 A3 3 -180 1 0 -50.27 692.13 L-183.78 692.13 A3 3 -180 1 0 -189.78 692.13 L-327.77 692.13
						 A3 3 -180 1 0 -333.77 692.13 L-629.89 692.13 A3 3 -180 1 0 -635.89 692.13 L-767.91 692.13 A3 3 -180 1 0
						 -773.91 692.13 L-903.77 692.13 A3 3 -180 0 0 -909.77 692.13 L-931.5 692.13" class="st5"/>
		</g>
		<g id="shape1037-88" v:mID="1037" v:groupContext="shape" transform="translate(-571.02,572.509) rotate(-90)">
			<title>Sheet.1037</title>
			<path d="M0 683.13 L30.94 683.13" class="st5"/>
		</g>
		<g id="shape1038-91" v:mID="1038" v:groupContext="shape" transform="translate(110.716,-492.906)">
			<title>Square.1072</title>
			<desc>GPU</desc>
			<v:userDefs>
				<v:ud v:nameU="visVersion" v:val="VT0(15):26"/>
			</v:userDefs>
			<v:textBlock v:margins="rect(4,4,4,4)"/>
			<v:textRect cx="54" cy="629.134" width="108" height="108"/>
			<rect x="0" y="575.134" width="108" height="108" class="st10"/>
			<text x="21.8" y="639.93" class="st11" v:langID="1033"><v:paragraph v:horizAlign="1"/><v:tabList/>GPU</text>		</g>
		<g id="shape1039-94" v:mID="1039" v:groupContext="shape" transform="translate(901.274,-492.906)">
			<title>Square.1074</title>
			<desc>GPU</desc>
			<v:userDefs>
				<v:ud v:nameU="visVersion" v:val="VT0(15):26"/>
			</v:userDefs>
			<v:textBlock v:margins="rect(4,4,4,4)"/>
			<v:textRect cx="54" cy="629.134" width="108" height="108"/>
			<rect x="0" y="575.134" width="108" height="108" class="st10"/>
			<text x="21.8" y="639.93" class="st11" v:langID="1033"><v:paragraph v:horizAlign="1"/><v:tabList/>GPU</text>		</g>
		<g id="shape1040-97" v:mID="1040" v:groupContext="shape" v:layerMember="0" transform="translate(271.274,-471.313)">
			<title>Dynamic connector.1076</title>
			<path d="M0 683.13 L-106.56 661.54" class="st9"/>
		</g>
		<g id="shape1041-100" v:mID="1041" v:groupContext="shape" v:layerMember="0" transform="translate(847.274,-471.313)">
			<title>Dynamic connector.1078</title>
			<path d="M0 683.13 L108 661.54" class="st9"/>
		</g>
		<g id="shape1042-103" v:mID="1042" v:groupContext="shape" transform="translate(109.995,-301.656)">
			<title>Rectangle.1129</title>
			<desc>ONVIF Configuration Service</desc>
			<v:userDefs>
				<v:ud v:nameU="visVersion" v:val="VT0(15):26"/>
			</v:userDefs>
			<v:textBlock v:margins="rect(4,4,4,4)"/>
			<v:textRect cx="449.279" cy="664.681" width="898.56" height="36.9063"/>
			<rect x="0" y="646.228" width="898.557" height="36.9063" class="st12"/>
			<text x="334.21" y="670.68" class="st13" v:langID="1033"><v:paragraph v:horizAlign="1"/><v:tabList/>ONVIF Configuration Service</text>		</g>
		<g id="shape1043-106" v:mID="1043" v:groupContext="shape" v:layerMember="0" transform="translate(271.274,-381.313)">
			<title>Dynamic connector.1130</title>
			<path d="M0 683.13 L201.17 725.88" class="st9"/>
		</g>
		<g id="shape1044-109" v:mID="1044" v:groupContext="shape" v:layerMember="0" transform="translate(847.274,-381.313)">
			<title>Dynamic connector.1131</title>
			<path d="M0 683.13 L-201.17 725.88" class="st9"/>
		</g>
		<g id="shape1045-112" v:mID="1045" v:groupContext="shape" transform="translate(109.274,-168.906)">
			<title>Rectangle.1132</title>
			<desc>ONVIF Broker</desc>
			<v:userDefs>
				<v:ud v:nameU="visVersion" v:val="VT0(15):26"/>
			</v:userDefs>
			<v:textBlock v:margins="rect(4,4,4,4)"/>
			<v:textRect cx="38.9713" cy="638.134" width="77.95" height="90"/>
			<rect x="0" y="593.135" width="77.9425" height="90" class="st6"/>
			<text x="7.93" y="630.93" class="st7" v:langID="1033"><v:paragraph v:horizAlign="1"/><v:tabList/>ONVIF <tspan x="6.32"
						dy="1.2em" class="st8">Broker</tspan></text>		</g>
		<g id="shape1046-116" v:mID="1046" v:groupContext="shape" transform="translate(230.826,-168.906)">
			<title>Rectangle.1133</title>
			<desc>ONVIF Broker</desc>
			<v:userDefs>
				<v:ud v:nameU="visVersion" v:val="VT0(15):26"/>
			</v:userDefs>
			<v:textBlock v:margins="rect(4,4,4,4)"/>
			<v:textRect cx="38.9713" cy="638.134" width="77.95" height="90"/>
			<rect x="0" y="593.135" width="77.9425" height="90" class="st6"/>
			<text x="7.93" y="630.93" class="st7" v:langID="1033"><v:paragraph v:horizAlign="1"/><v:tabList/>ONVIF <tspan x="6.32"
						dy="1.2em" class="st8">Broker</tspan></text>		</g>
		<g id="shape1047-120" v:mID="1047" v:groupContext="shape" transform="translate(355.331,-168.906)">
			<title>Rectangle.1134</title>
			<desc>ONVIF Broker</desc>
			<v:userDefs>
				<v:ud v:nameU="visVersion" v:val="VT0(15):26"/>
			</v:userDefs>
			<v:textBlock v:margins="rect(4,4,4,4)"/>
			<v:textRect cx="38.9713" cy="638.134" width="77.95" height="90"/>
			<rect x="0" y="593.135" width="77.9425" height="90" class="st6"/>
			<text x="7.93" y="630.93" class="st7" v:langID="1033"><v:paragraph v:horizAlign="1"/><v:tabList/>ONVIF <tspan x="6.32"
						dy="1.2em" class="st8">Broker</tspan></text>		</g>
		<g id="shape1048-124" v:mID="1048" v:groupContext="shape" transform="translate(685.274,-168.906)">
			<title>Rectangle.1135</title>
			<desc>ONVIF Broker</desc>
			<v:userDefs>
				<v:ud v:nameU="visVersion" v:val="VT0(15):26"/>
			</v:userDefs>
			<v:textBlock v:margins="rect(4,4,4,4)"/>
			<v:textRect cx="38.9713" cy="638.134" width="77.95" height="90"/>
			<rect x="0" y="593.135" width="77.9425" height="90" class="st6"/>
			<text x="7.93" y="630.93" class="st7" v:langID="1033"><v:paragraph v:horizAlign="1"/><v:tabList/>ONVIF <tspan x="6.32"
						dy="1.2em" class="st8">Broker</tspan></text>		</g>
		<g id="shape1049-128" v:mID="1049" v:groupContext="shape" transform="translate(817.711,-171.156)">
			<title>Rectangle.1136</title>
			<desc>ONVIF Broker</desc>
			<v:userDefs>
				<v:ud v:nameU="visVersion" v:val="VT0(15):26"/>
			</v:userDefs>
			<v:textBlock v:margins="rect(4,4,4,4)"/>
			<v:textRect cx="38.9713" cy="638.134" width="77.95" height="90"/>
			<rect x="0" y="593.135" width="77.9425" height="90" class="st6"/>
			<text x="7.93" y="630.93" class="st7" v:langID="1033"><v:paragraph v:horizAlign="1"/><v:tabList/>ONVIF <tspan x="6.32"
						dy="1.2em" class="st8">Broker</tspan></text>		</g>
		<g id="shape1050-132" v:mID="1050" v:groupContext="shape" transform="translate(931.331,-171.156)">
			<title>Rectangle.1137</title>
			<desc>ONVIF Broker</desc>
			<v:userDefs>
				<v:ud v:nameU="visVersion" v:val="VT0(15):26"/>
			</v:userDefs>
			<v:textBlock v:margins="rect(4,4,4,4)"/>
			<v:textRect cx="38.9713" cy="638.134" width="77.95" height="90"/>
			<rect x="0" y="593.135" width="77.9425" height="90" class="st6"/>
			<text x="7.93" y="630.93" class="st7" v:langID="1033"><v:paragraph v:horizAlign="1"/><v:tabList/>ONVIF <tspan x="6.32"
						dy="1.2em" class="st8">Broker</tspan></text>		</g>
		<g id="shape1051-136" v:mID="1051" v:groupContext="shape" v:layerMember="0" transform="translate(148.245,-258.906)">
			<title>Dynamic connector.1138</title>
			<path d="M0 683.13 L0 669.63 L411.03 669.63 L411.03 640.38" class="st9"/>
		</g>
		<g id="shape1052-139" v:mID="1052" v:groupContext="shape" v:layerMember="0" transform="translate(394.302,-258.906)">
			<title>Dynamic connector.1140</title>
			<path d="M0 683.13 L0 669.63 L164.97 669.63 L164.97 640.38" class="st9"/>
		</g>
		<g id="shape1053-142" v:mID="1053" v:groupContext="shape" v:layerMember="0" transform="translate(724.245,-258.906)">
			<title>Dynamic connector.1141</title>
			<path d="M0 683.13 L0 669.63 L-164.97 669.63 L-164.97 640.38" class="st9"/>
		</g>
		<g id="shape1054-145" v:mID="1054" v:groupContext="shape" v:layerMember="0" transform="translate(856.682,-261.156)">
			<title>Dynamic connector.1142</title>
			<path d="M0 683.13 L0 669.63 L-297.41 669.63 L-297.41 642.63" class="st9"/>
		</g>
		<g id="shape1055-148" v:mID="1055" v:groupContext="shape" v:layerMember="0" transform="translate(970.302,-261.156)">
			<title>Dynamic connector.1143</title>
			<path d="M0 683.13 L0 669.63 L-411.03 669.63 L-411.03 642.63" class="st9"/>
		</g>
		<g id="shape1056-151" v:mID="1056" v:groupContext="shape" v:layerMember="0" transform="translate(269.797,-258.906)">
			<title>Dynamic connector.1144</title>
			<path d="M0 683.13 L0 669.63 L289.48 669.63 L289.48 640.38" class="st9"/>
		</g>
	</g>
</svg>
