<svg version="1.1" xmlns="http://www.w3.org/2000/svg" xmlns:xlink="http://www.w3.org/1999/xlink" width="1123" height="1094"><defs/><g><g/><g/><g/><g/><g/><g/><g/><g/><g/><g/><g/><g/><g/><g/><g/><g/><g/><g/><g/><g/><g/><g/><g/><g/><g><rect fill="white" stroke="none" x="0" y="0" width="1123" height="1094"/></g><g/><g><path fill="none" stroke="black" paint-order="fill stroke markers" d=" M 37.09386355185547 88.04674578699999 L 37.09386355185547 1094.9486771989996" stroke-miterlimit="10" stroke-width="1.3612669416666667" stroke-dasharray="12.565541,5.445067766666667"/><path fill="none" stroke="black" paint-order="fill stroke markers" d=" M 208.59994706702471 88.04674578699999 L 208.59994706702471 1094.9486771989996" stroke-miterlimit="10" stroke-width="1.3612669416666667" stroke-dasharray="12.565541,5.445067766666667"/><path fill="none" stroke="black" paint-order="fill stroke markers" d=" M 305.5936968147786 88.04674578699999 L 305.5936968147786 1094.9486771989996" stroke-miterlimit="10" stroke-width="1.3612669416666667" stroke-dasharray="12.565541,5.445067766666667"/><path fill="none" stroke="black" paint-order="fill stroke markers" d=" M 506.4412415115885 88.04674578699999 L 506.4412415115885 1094.9486771989996" stroke-miterlimit="10" stroke-width="1.3612669416666667" stroke-dasharray="12.565541,5.445067766666667"/><path fill="none" stroke="black" paint-order="fill stroke markers" d=" M 644.7497489674154 88.04674578699999 L 644.7497489674154 1094.9486771989996" stroke-miterlimit="10" stroke-width="1.3612669416666667" stroke-dasharray="12.565541,5.445067766666667"/><path fill="none" stroke="black" paint-order="fill stroke markers" d=" M 754.7162728717748 88.04674578699999 L 754.7162728717748 1094.9486771989996" stroke-miterlimit="10" stroke-width="1.3612669416666667" stroke-dasharray="12.565541,5.445067766666667"/><path fill="none" stroke="black" paint-order="fill stroke markers" d=" M 871.5320170520131 639.1965051289999 L 871.5320170520131 1094.9486771989996" stroke-miterlimit="10" stroke-width="1.3612669416666667" stroke-dasharray="12.565541,5.445067766666667"/><path fill="none" stroke="black" paint-order="fill stroke markers" d=" M 1069.1225579646432 344.836141663 L 1069.1225579646432 1094.9486771989996" stroke-miterlimit="10" stroke-width="1.3612669416666667" stroke-dasharray="12.565541,5.445067766666667"/></g><g><g><path fill="white" stroke="black" paint-order="fill stroke markers" d=" M 46.40492943285547 18.948835828 A 9.311065881 9.311065881 0 1 1 46.40492477732292 18.93952476367084 M 37.09386355185547 28.259901709 L 37.09386355185547 48.188849735000005 M 25.33251717585547 35.447391161 L 48.85520992785547 35.447391161 M 37.09386355185547 48.188849735000005 L 25.33251717585547 66.810981497 M 37.09386355185547 48.188849735000005 L 48.85520992785547 66.810981497" stroke-miterlimit="10" stroke-width="2.7769845610000004" stroke-dasharray=""/></g><g><g/><text fill="black" stroke="none" font-family="sans-serif" font-size="11pt" font-style="normal" font-weight="normal" text-decoration="normal" x="8.167601650000002" y="83.14618479699999" text-anchor="start" dominant-baseline="alphabetic" xml:space="preserve">Operator</text></g><g><path fill="#78FFC9" stroke="black" paint-order="fill stroke markers" d=" M 184.7505502490247 56.029747319 L 184.7505502490247 21.725820389 L 232.44934388502472 21.725820389 L 232.44934388502472 56.029747319" stroke-miterlimit="10" stroke-width="2.7769845610000004" stroke-dasharray=""/><path fill="#78FFC9" stroke="black" paint-order="fill stroke markers" d=" M 232.44934388502472 20.5333505481 L 232.44815142512104 20.64116109301662 L 232.44457416465497 20.748960856968594 L 232.4386124613496 20.85673906006935 L 232.4302669113703 20.964484924588405 L 232.41953834926508 21.072187676029085 L 232.40642784788125 21.179836544206 L 232.390936718258 21.287420764322043 L 232.37306650949537 21.394929578044856 L 232.35281900859937 21.502352234582652 L 232.33019624030322 21.6096779917593 L 232.30520046686485 21.716896117088513 L 232.27783418784082 21.82399588884712 L 232.24810013983623 21.93096659714718 L 232.21600129623107 22.037797545007013 L 232.18154086688298 22.144478049420858 L 232.14472229780617 22.250997442427174 L 232.10554927082686 22.357345072175423 L 232.06402570321512 22.463510303991256 L 232.02015574729307 22.56948252143996 L 231.97394379001977 22.6752511273881 L 231.92539445255244 22.780805545063224 L 231.8745125897844 22.886135219111527 L 231.82130328985943 22.991229616653374 L 231.76577187366328 23.09607822833659 L 231.70792389429124 23.200670569387384 L 231.64776513649306 23.304996180658804 L 231.5853016160944 23.40904462967667 L 231.5205395793952 23.51280551168278 L 231.45348550254522 23.616268450675403 L 231.38414609089622 23.719423100446857 L 231.31252827833163 23.82225914561813 L 231.23863922657299 23.9247663026704 L 231.16248632446388 24.026934320973382 L 231.08407718723112 24.128752983810383 L 231.003419655723 24.230212109399975 L 230.92052179562558 24.331301551914144 L 230.83539189665566 24.432011202492884 L 230.74803847173226 24.532330990255055 L 230.6584702561251 24.63225088330548 L 230.56669620658104 24.731760889738126 L 230.4727255004286 24.830851058635275 L 230.37656753466007 24.929511481062605 L 230.2782319249919 25.027732291060094 L 230.17772850490311 25.125503666628596 L 230.07506732465197 25.222815830712022 L 229.97025865027092 25.319659052175062 L 229.8633129625401 25.416023646776274 L 229.75424095593914 25.511899978136498 L 229.64305353757777 25.607278458702496 L 229.52976182610524 25.70214955070569 L 229.41437715059828 25.796503767115947 L 229.29691104942822 25.890331672590246 L 229.17737526910736 25.983623884416232 L 229.05578176311408 26.076371073450467 L 228.93214269069765 26.168563965051334 L 228.80647041566232 26.260193340006502 L 228.67877750513082 26.351250035454832 L 228.54907672828782 26.44172494580266 L 228.4173810551029 26.531609023634346 L 228.28370365503366 26.62089328061701 L 228.1480578957087 26.709568788399363 L 228.0104573415909 26.79762667950451 L 227.87091575262102 26.885058148216736 L 227.72944708284166 26.97185445146202 L 227.58606547900192 27.05800690968237 L 227.4407852791427 27.143506907703753 L 227.29362101116288 27.228345895597624 L 227.1445873913667 27.31251538953589 L 226.9936993229919 27.3960069726393 L 226.84097189471953 27.47881229581911 L 226.68642037916524 27.56092307861202 L 226.53006023135174 27.64233111000817 L 226.37190708716352 27.723028249272257 L 226.21197676178318 27.803006426757605 L 226.05028524811001 27.882257644713114 L 225.88684871516065 27.96077397808303 L 225.7216835064522 28.038547575299447 L 225.55480613836784 28.115570659067455 L 225.38623329850535 28.19183552714286 L 225.21598184400824 28.267334553102412 L 225.04406879988008 28.34206018710643 L 224.87051135728203 28.416004956653783 L 224.6953268718137 28.489161467329136 L 224.5185328617777 28.561522403542384 L 224.34014700642763 28.633080529260212 L 224.16018714420042 28.70382868872968 L 223.97867127093232 28.773759807193787 L 223.7956175380594 28.842866891598973 L 223.61104425080237 28.911143031294383 L 223.42496986633617 28.978581398722945 L 223.23741299194418 29.045175250104112 L 223.04839238315756 29.110917926108243 L 222.85792694187967 29.175802852522523 L 222.66603571449588 29.239823540908375 L 222.47273788996907 29.30297358925032 L 222.27805279792057 29.365246682596148 L 222.08199990669735 29.426636593688414 L 221.8845988214252 29.487137183587166 L 221.6858692820481 29.546742402283833 L 221.48583116135438 29.605446289306215 L 221.28450446298945 29.663242974314535 L 221.08190931945535 29.720126677688448 L 220.87806599009758 29.776091711105025 L 220.67299485907927 29.831132478107563 L 220.46671643334258 29.885243474665224 L 220.2592513405582 29.938419289723445 L 220.05062032706252 29.990654605745036 L 219.84084425578305 30.041944199241925 L 219.62994410415206 30.092282941297498 L 219.417940962009 30.1416657980795 L 219.20485602949142 30.190087831343412 L 218.99071061491497 30.23754419892625 L 218.77552613264268 30.28403015523081 L 218.55932410094346 30.329541051700197 L 218.34212613984027 30.374072337282684 L 218.12395396894829 30.417619558886827 L 217.90482940530273 30.460178361826756 L 217.6847743611774 30.501744490257643 L 217.46381084189335 30.54231378760128 L 217.2419609436183 30.581882196961743 L 217.01924685115725 30.620445761531066 L 216.79569083573386 30.658000624984936 L 216.57131525276336 30.694543031868292 L 216.34614253961706 30.730069327970906 L 216.12019521337865 30.764575960692767 L 215.89349586859245 30.798059479399367 L 215.66606717500406 30.830516535766726 L 215.43793187529326 30.86194388411627 L 215.20911278279993 30.892338381739336 L 214.97963277924265 30.921696989211505 L 214.74951481243053 30.950016770696486 L 214.5187818939685 30.977294894239733 L 214.28745709695613 31.003528632051626 L 214.05556355368034 31.028715360780247 L 213.8231244533022 31.052852561773705 L 213.59016303953808 31.075937821332012 L 213.35670260833518 31.097968830948464 L 213.12276650554213 31.118943387540448 L 212.88837812457422 31.138859393669783 L 212.65356090407425 31.15771485775246 L 212.41833832556856 31.175507894257777 L 212.18273391111902 31.19223672389691 L 211.94677122097067 31.207899673800846 L 211.71047385119599 31.222495177687634 L 211.47386543133496 31.236021776019058 L 211.2369696220324 31.24847811614655 L 210.9998101126719 31.259862952446483 L 210.7624106190067 31.27017514644471 L 210.52479488078833 31.279413666930427 L 210.28698665939262 31.287577590059286 L 210.04900973544355 31.29466609944577 L 209.81088790643517 31.300678486244855 L 209.572644984352 31.30561414922287 L 209.33430479328763 31.309472594817628 L 209.09589116706263 31.31225343718779 L 208.8574279468409 31.313956398251428 L 208.61893897874575 31.31458130771386 L 208.38044811147523 31.314128103084656 L 208.1419791939174 31.312596829683912 L 207.9035560727652 31.30998764063768 L 207.66520259013214 31.306300796862697 L 207.4269425811678 31.301536667040267 L 207.18879987167455 31.2956957275794 L 206.95079827572485 31.288778562569174 L 206.71296159328003 31.280785863720332 L 206.4753136078101 31.27171843029609 L 206.23787808391555 31.261577169032243 L 206.00067876495095 31.25036309404646 L 205.76373937065048 31.238077326736896 L 205.5270835947562 31.224721095670045 L 205.29073510264837 31.21029573645788 L 205.05471752897935 31.194802691624307 L 204.81905447530977 31.178243510460895 L 204.58376950774866 31.16061984887196 L 204.34888615459664 31.14193346920898 L 204.11442790399332 31.12218624009434 L 203.8804182015684 31.101380136234503 L 203.6468804480971 31.079517238222515 L 203.41383799716016 31.056599732329957 L 203.18131415280843 31.03262991028832 L 202.94933216723263 31.007610169059838 L 202.717915238438 30.98154301059778 L 202.48708650792452 30.954431041596266 L 202.25686905837293 30.926276973229612 L 202.02728591133632 30.897083620881187 L 201.79836002493806 30.866853903861898 L 201.57011429157606 30.835590845118258 L 201.34257153563343 30.803297570930084 L 201.11575451119614 30.769977310597895 L 200.88968589977765 30.735633396119944 L 200.66438830805066 30.70026926185907 L 200.43988426558664 30.663888444199216 L 200.21619622260272 30.62649458119185 L 199.9933465477168 30.588091412192092 L 199.7713575257107 30.54868277748485 L 199.55025135530158 30.50827261790075 L 199.33005014692225 30.46686497442208 L 199.11077592051004 30.42446398777868 L 198.89245060330487 30.381073898033875 L 198.6750960276565 30.33669904416049 L 198.4587339288414 30.291343863606926 L 198.24338594288915 30.245012891853445 L 198.02907360441884 30.197710761958614 L 197.8158183444858 30.149442204096005 L 197.60364148843823 30.10021204508118 L 197.392564253785 30.050025207889014 L 197.18260774807362 29.998886711161404 L 196.9737929667797 29.94680166870541 L 196.7661407912074 29.893775288981875 L 196.55967198640118 29.839812874584574 L 196.35440719906953 29.784919821709988 L 196.15036695552007 29.729101619617655 L 195.94757165960715 29.67236385008127 L 195.74604159069136 29.61471218683051 L 195.54579690161165 29.55615239498365 L 195.3468576166701 29.496690330471075 L 195.14924362962932 29.43633193944969 L 194.95297470172343 29.375083257708297 L 194.75807045968162 29.312950410064026 L 194.56455039376567 29.249939609749873 L 194.37243385582096 29.186057157793353 L 194.18174005734113 29.121309442386426 L 193.99248806754713 29.055702938246682 L 193.80469681148023 28.98924420596986 L 193.61838506810957 28.921939891373807 L 193.4335714684542 28.85379672483389 L 193.25027449372007 28.784821520609988 L 193.06851247345193 28.71502117616503 L 192.88830358370032 28.644402671475305 L 192.70966584520406 28.572973068332434 L 192.53261712158812 28.5007395096372 L 192.35717511757733 28.42770921868528 L 192.1833573772259 28.353889498444914 L 192.011181282163 28.279287730826603 L 191.84066404985464 28.20391137594495 L 191.67182273188197 28.127767971372624 L 191.50467421223613 28.05086513138663 L 191.3392352056297 27.973210546206882 L 191.17552225582557 27.894811981227186 L 191.01355173398224 27.81567727623871 L 190.85333983701696 27.735814344646005 L 190.69490258598586 27.655231172675677 L 190.53825582448206 27.573935818577773 L 190.38341521705115 27.491936411819957 L 190.23039624762484 27.409241152274568 L 190.07921421797258 27.325858309398654 L 189.9298842461713 27.241796221407014 L 189.7824212650938 27.157063294438398 L 189.63684002091526 27.07166800171489 L 189.4931550716388 26.985618882694595 L 189.3513807856396 26.89892454221772 L 189.2115313402281 26.811593649646056 L 189.07362072023236 26.723634937996092 L 188.9376627165994 26.63505720306569 L 188.8036709250163 26.54586930255453 L 188.67165874455054 26.45608015517834 L 188.5416393763102 26.365698739777034 L 188.41362582212372 26.274734094416832 L 188.28763088323987 26.183195315486472 L 188.1636671590475 26.09109155678756 L 188.04174704581575 25.998432028619217 L 187.92188273545437 25.90522599685704 L 187.80408621429447 25.811482782026534 L 187.68836926189002 25.717211758371064 L 187.57474344983981 25.62242235291444 L 187.4632201406304 25.527124044518214 L 187.35381048649973 25.431326362933806 L 187.24652542832206 25.33503888784955 L 187.1413756945138 25.238271247932712 L 187.03837179996071 25.141033119866645 L 186.9375240449664 25.043334227383127 L 186.83884251422236 24.945184340289984 L 186.74233707579938 24.84659327349414 L 186.64801738016092 24.74757088602011 L 186.55589285919794 24.648127080024132 L 186.46597272528575 24.548271799803928 L 186.37826597036283 24.448015030804306 L 186.29278136503154 24.34736679861863 L 186.20952745768125 24.246337167986233 L 186.12851257363323 24.144936241786 L 186.04974481430844 24.043174160026034 L 185.97323205641715 23.941061098829724 L 185.89898195117138 23.83860726941809 L 185.8270019235198 23.735822917088697 L 185.75729917140515 23.63271832019112 L 185.6898806650446 23.52930378909913 L 185.6247531462326 23.425589665179665 L 185.56192312766674 23.32158631975868 L 185.50139689229653 23.21730415308405 L 185.44318049269506 23.112753593285547 L 185.38727975045379 23.00794509533202 L 185.33370025560035 22.90288913998592 L 185.28244736603955 22.797596232755243 L 185.2335262070177 22.692076902842967 L 185.18694167060988 22.58634170209415 L 185.14269841523094 22.48040120394075 L 185.10080086516953 22.374266002344307 L 185.06125321014574 22.267946710736528 L 185.02405940489214 22.161453960957978 L 184.98922316875826 22.05479840219489 L 184.95674798533864 21.94799069991426 L 184.9266371021246 21.841041534797313 L 184.89889353017935 21.733961601671435 L 184.87352004383698 21.62676160844071 L 184.85051918042495 21.51945227501512 L 184.8298932400105 21.412044332238587 L 184.81164428517042 21.30454852081588 L 184.795774140785 21.19697559023857 L 184.78228439385543 21.08933629771006 L 184.77117639334523 20.98164140706991 L 184.76245125004516 20.87390168771744 L 184.75610983646226 20.7661279135348 L 184.7521527867326 20.658330861809592 L 184.7505804965579 20.55052131215717 L 184.75139312316583 20.442710045442645 L 184.7545905852944 20.334907842702854 L 184.76017256320011 20.227125484068235 L 184.76813849868978 20.119373747684833 L 184.7784875951765 20.011663408636494 L 184.79121881775927 19.904005237867363 L 184.80633089332642 19.7964100011048 L 184.823822310683 19.688888457782824 L 184.84369132070182 19.581451359966163 L 184.8659359364985 19.47410945127507 L 184.89055393362992 19.366873465810958 L 184.91754285031692 19.259754127083017 L 184.9468999876903 19.15276214693585 L 184.97862241006084 19.04590822447831 L 185.0127069452127 18.939203045013606 L 185.04915018472076 18.832657278970757 L 185.08794848429147 18.72628158083758 L 185.12909796412717 18.620086588095244 L 185.1725945093142 18.51408292015453 L 185.21843377023424 18.408281177293887 L 185.26661116299945 18.302691939599445 L 185.3171218699107 18.197325765906974 L 185.36996083993935 18.092193192746045 L 185.42512278923246 17.987304733286358 L 185.48260220164104 17.882670876286454 L 185.5423933292718 17.77830208504484 L 185.60449019306174 17.674208796353664 L 185.6688865833763 17.570401419455052 L 185.73557606063002 17.46689033500019 L 185.80455195593083 17.36368589401126 L 185.87580737174665 17.260798416846367 L 185.94933518259526 17.158238192167477 L 186.0251280357569 17.056015475911597 L 186.10317835200937 16.954140490265164 L 186.18347832638608 16.85262342264185 L 186.26601992895652 16.751474424663822 L 186.35079490562924 16.650703611146586 L 186.4377947789772 16.550321059087512 L 186.52701084908554 16.450336806658164 L 186.61843419442167 16.35076085220046 L 186.71205567272716 16.25160315322686 L 186.80786592193223 16.15287362542464 L 186.90585536109182 16.054582141664305 L 187.00601419134364 15.956738531012315 L 187.10833239688816 15.859352577748204 L 187.21279974599005 15.762434020386143 L 187.31940579200148 15.665992550701102 L 187.4281398744067 15.570037812759686 L 187.53899111988807 15.47457940195572 L 187.6519484434134 15.379626864050742 L 187.76700054934452 15.285189694219413 L 187.88413593256664 15.191277336100018 L 188.0033428796391 15.097899180850114 L 188.12460946996652 15.005064566207405 L 188.24792357699093 14.912782775555993 L 188.37327286940436 14.821063036998048 L 188.50064481238206 14.729914522430988 L 188.63002666883585 14.639346346630315 L 188.76140550068794 14.549367566338134 L 188.89476817016458 14.459987179357494 L 189.03010134110997 14.371214123652608 L 189.16739148031982 14.283057276455072 L 189.3066248588946 14.195525453376138 L 189.44778755361247 14.108627407525177 L 189.5908654483216 14.022371828634352 L 189.73584423535175 13.936767342189675 L 189.88270941694503 13.851822508568457 L 190.03144630670567 13.76754582218327 L 190.18204003106865 13.683945710632521 L 190.33447553078702 13.601030533857704 L 190.48873756243785 13.518808583307395 L 190.6448106999465 13.437288081108132 L 190.8026793361293 13.356477179242205 L 190.96232768425418 13.276383958732454 L 191.12373977961937 13.19701642883419 L 191.28689948114985 13.11838252623426 L 191.4517904730114 13.040490114257395 L 191.6183962662423 12.963346982079887 L 191.786700200402 12.886960843950664 L 191.9566854452374 12.811339338419888 L 192.12833500236565 12.73649002757509 L 192.30163170697404 12.662420396284984 L 192.47655822953655 12.589137851450971 L 192.6530970775467 12.516649721266472 L 192.83123059726682 12.444963254484088 L 193.01094097549336 12.37408561969077 L 193.19221024133824 12.304023904590924 L 193.37502026802596 12.234785115297683 L 193.55935277470618 12.166376175632273 L 193.74518932828184 12.098803926431655 L 193.93251134525246 12.032075124864438 L 194.12130009357242 11.966196443755171 L 194.31153669452425 11.901174470917068 L 194.50320212460633 11.837015708493228 L 194.69627721743544 11.773726572306426 L 194.89074266566314 11.71131339121754 L 195.08657902290668 11.64978240649267 L 195.2837667056935 11.589139771179015 L 195.48228599541972 11.529391549489564 L 195.6821170403217 11.470543716196701 L 195.88323985746158 11.412602156034716 L 196.08563433472517 11.355572663111337 L 196.28928023283342 11.299460940328336 L 196.49415718736626 11.244272598811229 L 196.70024471079893 11.190013157348178 L 196.90752219455084 11.136688041838113 L 197.11596891104634 11.084302584748148 L 197.32556401578748 11.03286202458034 L 197.53628654943844 10.982371505347833 L 197.74811543992152 10.932836076060482 L 197.9610295045241 10.88426069021993 L 198.17500745201724 10.836650205324288 L 198.39002788478442 10.790009382382364 L 198.60606930096162 10.74434288543759 L 198.8231100965872 10.6996552811016 L 199.04112856776248 10.655951038097594 L 199.26010291282205 10.613234526813446 L 199.48001123451385 10.571510018864695 L 199.70083154218898 10.530781686667359 L 199.9225417540007 10.49105360302072 L 200.14511969911257 10.452329740700035 L 200.36854311991556 10.41461397205927 L 200.5927896742538 10.377910068643855 L 200.81783693765868 10.342221700813546 L 201.04366240559145 10.307552437375389 L 201.27024349569348 10.273905745226832 L 201.49755755004455 10.241284989009054 L 201.7255818374287 10.209693430770495 L 201.9542935556072 10.179134229640646 L 202.1836698335988 10.14961044151416 L 202.41368773396687 10.121125018745243 L 202.64432425511302 10.093680809852438 L 202.87555633357738 10.067280559233762 L 203.1073608463448 10.041926906892275 L 203.3397146131571 10.017622388172084 L 203.5725943988313 9.99436943350481 L 203.80597691558287 9.972170368166541 L 204.03983882535465 9.95102741204531 L 204.27415674215047 9.930942679419111 L 204.508907234374 9.91191817874447 L 204.7440668271716 9.893955812455602 L 204.97961200477994 9.877057376774163 L 205.21551921287758 9.861224561529642 L 205.4517648609403 9.846458949990371 L 205.68832532460016 9.832762018705198 L 205.9251769480079 9.820135137355836 L 206.16229604619858 9.808579568619898 L 206.39965890745995 9.798096468044628 L 206.63724179570374 9.78868688393135 L 206.87502095283907 9.780351757230632 L 207.11297260114839 9.773091921448197 L 207.35107294566515 9.766908102561576 L 207.5892981765533 9.761800918947504 L 207.82762447148835 9.757770881320084 L 208.06602799803932 9.754818392679725 L 208.30448491605225 9.752943748272825 L 208.54297138003406 9.752147135562266 L 208.7814635415371 9.752428634208655 L 209.01993755154393 9.753788216062361 L 209.25836956285232 9.756225745166333 L 209.49673573245983 9.75974097776969 L 209.73501222394808 9.764333562352103 L 209.97317520986655 9.770003039658938 L 210.21120087411506 9.776748842747192 L 210.4490654143256 9.784570297042176 L 210.68674504424231 9.793466620404978 L 210.92421599610032 9.803436923210677 L 211.16145452300228 9.8144802084373 L 211.39843690129322 9.826595371765528 L 211.63513943293282 9.83978120168912 L 211.87153844786513 9.854036379636078 L 212.10761030638568 9.869359480100481 L 212.34333140150537 9.885748970785057 L 212.57867816131105 9.903203212754391 L 212.8136270513229 9.921720460598834 L 213.0481545768477 9.941298862609031 L 213.2822372853284 9.961936460961097 L 213.51585176868912 9.983631191912394 L 213.74897466567623 10.006380886007905 L 213.98158266419435 10.030183268297183 L 214.21365250363743 10.055035958561827 L 214.44516097721493 10.080936471553528 L 214.67608493427238 10.107882217242567 L 214.90640128260654 10.13587050107683 L 215.13608699077452 10.164898524251257 L 215.3651190903969 10.194963383987721 L 215.59347467845453 10.226062073825304 L 215.82113091957896 10.258191483920934 L 216.04806504833576 10.291348401360379 L 216.2742543715012 10.325529510479525 L 216.4996762703314 10.360731393195941 L 216.72430820282435 10.396950529350695 L 216.948127705974 10.434183297060352 L 217.1711123980166 10.472425973079169 L 217.39323998066865 10.51167473317141 L 217.61448824135707 10.551925652493777 L 217.83483505544015 10.593174705987877 L 218.05425838842012 10.635417768782737 L 218.27273629814653 10.678650616607278 L 218.49024693701043 10.722868926212747 L 218.7067685541292 10.76806827580503 L 218.92227949752163 10.814244145486835 L 219.1367582162729 10.861391917709673 L 219.3501832626899 10.909506877735609 L 219.56253329444584 10.95858421410874 L 219.77378707671448 11.008619019136324 L 219.98392348429365 11.059606289379555 L 220.1929215037177 11.111540926153898 L 220.40076023535892 11.164417736038953 L 220.60741889551724 11.218231431397797 L 220.8128768184989 11.272976630905736 L 221.01711345868281 11.328647860088443 L 221.22010839257518 11.385239551869391 L 221.42184132085177 11.442746047126562 L 221.62229207038786 11.501161595258353 L 221.8214405962755 11.560480354758626 L 222.0192669838281 11.620696393800868 L 222.21575145057176 11.681803690831353 L 222.4108743482235 11.7437961351713 L 222.60461616465622 11.806667527627935 L 222.79695752584968 11.870411581114405 L 222.98787919782808 11.935021921278484 L 223.1773620885833 12.000492087139994 L 223.36538724998414 12.066815531736909 L 223.5519358796712 12.133985622780036 L 223.73698932293695 12.201995643316248 L 223.92052907459126 12.270838792400168 L 224.1025367808119 12.340508185774253 L 224.28299424097997 12.410996856557224 L 224.46188340949982 12.482297755940746 L 224.63918639760362 12.554403753894292 L 224.8148854751404 12.627307639878161 L 224.98896307234872 12.701002123564503 L 225.16140178161402 12.775479835566365 L 225.33218435920898 12.85073332817461 L 225.50129372701824 12.926755076102687 L 225.66871297424592 13.003537477239155 L 225.83442535910677 13.081072853407886 L 225.99841431050044 13.159353451135875 L 226.16066342966843 13.238371442428583 L 226.32115649183405 13.318118925552731 L 226.47987744782483 13.398587925826458 L 226.6368104256774 13.4797703964168 L 226.79193973222476 13.561658219144345 L 226.94524985466558 13.64424320529506 L 227.0967254621153 13.727517096439154 L 227.24635140713949 13.811471565256904 L 227.39411272726824 13.89609821637139 L 227.53999464649274 13.981388587188025 L 227.6839825767426 14.0673341487408 L 227.8260621193448 14.153926306545182 L 227.9662190664635 14.241156401457552 L 228.10443940252074 14.329015710541107 L 228.24070930559813 14.417495447938157 L 228.3750151488189 14.506586765748693 L 228.50734350171066 14.59628075491518 L 228.63768113154842 14.68656844611344 L 228.76601500467777 14.777440810649601 L 228.89233228781833 14.868888761362928 L 229.0166203493471 14.96090315353456 L 229.13886676056148 15.05347478580196 L 229.2590592969222 15.146594401079039 L 229.3771859392758 15.240252687481874 L 229.4932348750565 15.33444027925987 L 229.6071944994674 15.429147757732338 L 229.71905341664103 15.524365652230356 L 229.8288004407789 15.62008444104382 L 229.93642459727005 15.716294552373615 L 230.0419151237885 15.812986365288783 L 230.14526147136954 15.910150210688608 L 230.2464533054645 16.00777637226952 L 230.34548050697433 16.105855087496717 L 230.44233317326137 16.204376548580406 L 230.53700161913972 16.30333090345658 L 230.62947637784367 16.402708256772215 L 230.71974820197443 16.502498670874793 L 230.8078080644248 16.602692166806058 L 230.8936471592819 16.703278725299917 L 230.9772569027078 16.80424828778434 L 231.05862893379785 16.90559075738722 L 231.13775511541672 17.00729599994605 L 231.21462753501217 17.10935384502132 L 231.28923850540636 17.211754086913583 L 231.36158056556437 17.314486485683975 L 231.4316464813405 17.41754076817823 L 231.49942924620154 17.52090662905398 L 231.5649220819275 17.62457373181127 L 231.6281184392894 17.728531709826218 L 231.68901199870416 17.83277016738765 L 231.74759667086656 17.93727868073668 L 231.80386659735822 18.04204679910906 L 231.85781615123338 18.147064045780258 L 231.90943993758162 18.252319919113123 L 231.95873279406732 18.357803893608033 L 232.0056897914459 18.463505420955443 L 232.05030623405673 18.569413931090704 L 232.0925776602928 18.675518833251058 L 232.13249984304667 18.781809517034706 L 232.1700687901333 18.88827535346185 L 232.20528074468933 18.994905696037566 L 232.23813218554866 19.101689881816455 L 232.26861982759456 19.208617232468924 L 232.2967406220882 19.31567705534902 L 232.32249175697365 19.422858644563664 L 232.34587065715877 19.530151282043253 L 232.36687498477312 19.637544238613454 L 232.38550263940138 19.745026775068098 L 232.40175175829364 19.852588143243114 L 232.41562071655153 19.960217587091314 L 232.4271081272908 20.067904343758006 L 232.43621284177996 20.17563764465726 L 232.44293394955514 20.283406716548765 L 232.44727077851115 20.39120078261514 L 232.4492228949687 20.49900906353961 M 232.44934388502472 54.8372774781 L 232.44815142512104 54.94508802301662 L 232.44457416465497 55.05288778696859 L 232.4386124613496 55.160665990069354 L 232.4302669113703 55.2684118545884 L 232.41953834926508 55.376114606029084 L 232.40642784788125 55.483763474206 L 232.390936718258 55.591347694322046 L 232.37306650949537 55.698856508044855 L 232.35281900859937 55.80627916458265 L 232.33019624030322 55.913604921759294 L 232.30520046686485 56.02082304708851 L 232.27783418784082 56.12792281884712 L 232.24810013983623 56.23489352714718 L 232.21600129623107 56.34172447500701 L 232.18154086688298 56.44840497942086 L 232.14472229780617 56.55492437242717 L 232.10554927082686 56.66127200217542 L 232.06402570321512 56.76743723399125 L 232.02015574729307 56.87340945143996 L 231.97394379001977 56.979178057388104 L 231.92539445255244 57.08473247506323 L 231.8745125897844 57.190062149111526 L 231.82130328985943 57.295156546653374 L 231.76577187366328 57.40000515833659 L 231.70792389429124 57.50459749938738 L 231.64776513649306 57.60892311065881 L 231.5853016160944 57.71297155967667 L 231.5205395793952 57.81673244168278 L 231.45348550254522 57.9201953806754 L 231.38414609089622 58.023350030446856 L 231.31252827833163 58.12618607561813 L 231.23863922657299 58.228693232670395 L 231.16248632446388 58.33086125097338 L 231.08407718723112 58.43267991381038 L 231.003419655723 58.534139039399975 L 230.92052179562558 58.63522848191415 L 230.83539189665566 58.73593813249288 L 230.74803847173226 58.83625792025505 L 230.6584702561251 58.93617781330548 L 230.56669620658104 59.03568781973813 L 230.4727255004286 59.13477798863527 L 230.37656753466007 59.23343841106261 L 230.2782319249919 59.33165922106009 L 230.17772850490311 59.42943059662859 L 230.07506732465197 59.52674276071202 L 229.97025865027092 59.623585982175065 L 229.8633129625401 59.71995057677627 L 229.75424095593914 59.8158269081365 L 229.64305353757777 59.9112053887025 L 229.52976182610524 60.006076480705694 L 229.41437715059828 60.10043069711595 L 229.29691104942822 60.194258602590246 L 229.17737526910736 60.287550814416235 L 229.05578176311408 60.38029800345047 L 228.93214269069765 60.47249089505134 L 228.80647041566232 60.564120270006505 L 228.67877750513082 60.655176965454835 L 228.54907672828782 60.74565187580266 L 228.4173810551029 60.83553595363435 L 228.28370365503366 60.924820210617014 L 228.1480578957087 61.01349571839936 L 228.0104573415909 61.10155360950451 L 227.87091575262102 61.18898507821673 L 227.72944708284166 61.27578138146202 L 227.58606547900192 61.361933839682365 L 227.4407852791427 61.447433837703755 L 227.29362101116288 61.53227282559762 L 227.1445873913667 61.61644231953589 L 226.9936993229919 61.699933902639295 L 226.84097189471953 61.782739225819114 L 226.68642037916524 61.86485000861202 L 226.53006023135174 61.94625804000817 L 226.37190708716352 62.02695517927226 L 226.21197676178318 62.1069333567576 L 226.05028524811001 62.18618457471311 L 225.88684871516065 62.26470090808303 L 225.7216835064522 62.34247450529945 L 225.55480613836784 62.419497589067454 L 225.38623329850535 62.49576245714286 L 225.21598184400824 62.57126148310241 L 225.04406879988008 62.64598711710643 L 224.87051135728203 62.71993188665378 L 224.6953268718137 62.793088397329136 L 224.5185328617777 62.86544933354239 L 224.34014700642763 62.937007459260215 L 224.16018714420042 63.007755618729675 L 223.97867127093232 63.07768673719379 L 223.7956175380594 63.146793821598976 L 223.61104425080237 63.21506996129438 L 223.42496986633617 63.28250832872294 L 223.23741299194418 63.34910218010411 L 223.04839238315756 63.414844856108246 L 222.85792694187967 63.47972978252252 L 222.66603571449588 63.54375047090838 L 222.47273788996907 63.606900519250324 L 222.27805279792057 63.66917361259615 L 222.08199990669735 63.73056352368841 L 221.8845988214252 63.79106411358716 L 221.6858692820481 63.85066933228383 L 221.48583116135438 63.90937321930622 L 221.28450446298945 63.96716990431453 L 221.08190931945535 64.02405360768844 L 220.87806599009758 64.08001864110503 L 220.67299485907927 64.13505940810757 L 220.46671643334258 64.18917040466522 L 220.2592513405582 64.24234621972344 L 220.05062032706252 64.29458153574504 L 219.84084425578305 64.34587112924193 L 219.62994410415206 64.3962098712975 L 219.417940962009 64.4455927280795 L 219.20485602949142 64.49401476134341 L 218.99071061491497 64.54147112892625 L 218.77552613264268 64.58795708523081 L 218.55932410094346 64.63346798170019 L 218.34212613984027 64.67799926728269 L 218.12395396894829 64.72154648888683 L 217.90482940530273 64.76410529182675 L 217.6847743611774 64.80567142025764 L 217.46381084189335 64.84624071760128 L 217.2419609436183 64.88580912696175 L 217.01924685115725 64.92437269153106 L 216.79569083573386 64.96192755498494 L 216.57131525276336 64.9984699618683 L 216.34614253961706 65.0339962579709 L 216.12019521337865 65.06850289069277 L 215.89349586859245 65.10198640939936 L 215.66606717500406 65.13444346576672 L 215.43793187529326 65.16587081411626 L 215.20911278279993 65.19626531173934 L 214.97963277924265 65.2256239192115 L 214.74951481243053 65.25394370069648 L 214.5187818939685 65.28122182423974 L 214.28745709695613 65.30745556205163 L 214.05556355368034 65.33264229078024 L 213.8231244533022 65.35677949177371 L 213.59016303953808 65.37986475133201 L 213.35670260833518 65.40189576094846 L 213.12276650554213 65.42287031754044 L 212.88837812457422 65.44278632366978 L 212.65356090407425 65.46164178775246 L 212.41833832556856 65.47943482425778 L 212.18273391111902 65.49616365389691 L 211.94677122097067 65.51182660380084 L 211.71047385119599 65.52642210768764 L 211.47386543133496 65.53994870601906 L 211.2369696220324 65.55240504614655 L 210.9998101126719 65.56378988244649 L 210.7624106190067 65.57410207644472 L 210.52479488078833 65.58334059693043 L 210.28698665939262 65.59150452005929 L 210.04900973544355 65.59859302944577 L 209.81088790643517 65.60460541624485 L 209.572644984352 65.60954107922286 L 209.33430479328763 65.61339952481762 L 209.09589116706263 65.61618036718778 L 208.8574279468409 65.61788332825142 L 208.61893897874575 65.61850823771385 L 208.38044811147523 65.61805503308466 L 208.1419791939174 65.61652375968391 L 207.9035560727652 65.61391457063768 L 207.66520259013214 65.61022772686269 L 207.4269425811678 65.60546359704027 L 207.18879987167455 65.5996226575794 L 206.95079827572485 65.59270549256917 L 206.71296159328003 65.58471279372033 L 206.4753136078101 65.5756453602961 L 206.23787808391555 65.56550409903224 L 206.00067876495095 65.55429002404645 L 205.76373937065048 65.5420042567369 L 205.5270835947562 65.52864802567004 L 205.29073510264837 65.51422266645788 L 205.05471752897935 65.4987296216243 L 204.81905447530977 65.48217044046089 L 204.58376950774866 65.46454677887196 L 204.34888615459664 65.44586039920898 L 204.11442790399332 65.42611317009434 L 203.8804182015684 65.4053070662345 L 203.6468804480971 65.38344416822251 L 203.41383799716016 65.36052666232996 L 203.18131415280843 65.33655684028832 L 202.94933216723263 65.31153709905983 L 202.717915238438 65.28546994059778 L 202.48708650792452 65.25835797159627 L 202.25686905837293 65.23020390322961 L 202.02728591133632 65.2010105508812 L 201.79836002493806 65.1707808338619 L 201.57011429157606 65.13951777511826 L 201.34257153563343 65.10722450093009 L 201.11575451119614 65.0739042405979 L 200.88968589977765 65.03956032611994 L 200.66438830805066 65.00419619185907 L 200.43988426558664 64.96781537419922 L 200.21619622260272 64.93042151119185 L 199.9933465477168 64.89201834219209 L 199.7713575257107 64.85260970748485 L 199.55025135530158 64.81219954790075 L 199.33005014692225 64.77079190442208 L 199.11077592051004 64.72839091777868 L 198.89245060330487 64.68500082803388 L 198.6750960276565 64.64062597416049 L 198.4587339288414 64.59527079360693 L 198.24338594288915 64.54893982185345 L 198.02907360441884 64.50163769195862 L 197.8158183444858 64.45336913409601 L 197.60364148843823 64.40413897508118 L 197.392564253785 64.35395213788901 L 197.18260774807362 64.3028136411614 L 196.9737929667797 64.25072859870541 L 196.7661407912074 64.19770221898187 L 196.55967198640118 64.14373980458457 L 196.35440719906953 64.08884675170998 L 196.15036695552007 64.03302854961765 L 195.94757165960715 63.97629078008127 L 195.74604159069136 63.918639116830505 L 195.54579690161165 63.860079324983644 L 195.3468576166701 63.80061726047107 L 195.14924362962932 63.74025886944969 L 194.95297470172343 63.67901018770829 L 194.75807045968162 63.61687734006403 L 194.56455039376567 63.553866539749876 L 194.37243385582096 63.48998408779335 L 194.18174005734113 63.42523637238643 L 193.99248806754713 63.359629868246685 L 193.80469681148023 63.29317113596986 L 193.61838506810957 63.225866821373806 L 193.4335714684542 63.15772365483389 L 193.25027449372007 63.088748450609984 L 193.06851247345193 63.018948106165034 L 192.88830358370032 62.94832960147531 L 192.70966584520406 62.87689999833243 L 192.53261712158812 62.8046664396372 L 192.35717511757733 62.73163614868528 L 192.1833573772259 62.65781642844491 L 192.011181282163 62.583214660826606 L 191.84066404985464 62.50783830594495 L 191.67182273188197 62.43169490137262 L 191.50467421223613 62.35479206138663 L 191.3392352056297 62.27713747620688 L 191.17552225582557 62.19873891122719 L 191.01355173398224 62.119604206238705 L 190.85333983701696 62.039741274646005 L 190.69490258598586 61.95915810267567 L 190.53825582448206 61.87786274857777 L 190.38341521705115 61.79586334181995 L 190.23039624762484 61.71316808227457 L 190.07921421797258 61.62978523939866 L 189.9298842461713 61.54572315140702 L 189.7824212650938 61.4609902244384 L 189.63684002091526 61.375594931714886 L 189.4931550716388 61.2895458126946 L 189.3513807856396 61.202851472217716 L 189.2115313402281 61.11552057964606 L 189.07362072023236 61.02756186799609 L 188.9376627165994 60.93898413306569 L 188.8036709250163 60.84979623255453 L 188.67165874455054 60.76000708517834 L 188.5416393763102 60.669625669777034 L 188.41362582212372 60.57866102441683 L 188.28763088323987 60.487122245486475 L 188.1636671590475 60.39501848678756 L 188.04174704581575 60.302358958619216 L 187.92188273545437 60.20915292685704 L 187.80408621429447 60.11540971202653 L 187.68836926189002 60.02113868837107 L 187.57474344983981 59.926349282914444 L 187.4632201406304 59.83105097451821 L 187.35381048649973 59.735253292933805 L 187.24652542832206 59.63896581784955 L 187.1413756945138 59.54219817793271 L 187.03837179996071 59.444960049866644 L 186.9375240449664 59.34726115738312 L 186.83884251422236 59.24911127028998 L 186.74233707579938 59.15052020349414 L 186.64801738016092 59.05149781602011 L 186.55589285919794 58.95205401002413 L 186.46597272528575 58.85219872980392 L 186.37826597036283 58.75194196080431 L 186.29278136503154 58.651293728618626 L 186.20952745768125 58.550264097986236 L 186.12851257363323 58.448863171785995 L 186.04974481430844 58.34710109002604 L 185.97323205641715 58.244988028829724 L 185.89898195117138 58.14253419941809 L 185.8270019235198 58.03974984708869 L 185.75729917140515 57.93664525019112 L 185.6898806650446 57.833230719099134 L 185.6247531462326 57.72951659517967 L 185.56192312766674 57.62551324975868 L 185.50139689229653 57.521231083084054 L 185.44318049269506 57.41668052328555 L 185.38727975045379 57.311872025332015 L 185.33370025560035 57.20681606998592 L 185.28244736603955 57.10152316275524 L 185.2335262070177 56.996003832842966 L 185.18694167060988 56.89026863209415 L 185.14269841523094 56.78432813394075 L 185.10080086516953 56.6781929323443 L 185.06125321014574 56.57187364073653 L 185.02405940489214 56.465380890957974 L 184.98922316875826 56.35872533219489 L 184.95674798533864 56.25191762991426 L 184.9266371021246 56.144968464797316 L 184.89889353017935 56.037888531671435 L 184.87352004383698 55.930688538440705 L 184.85051918042495 55.823379205015115 L 184.8298932400105 55.71597126223858 L 184.81164428517042 55.60847545081588 L 184.795774140785 55.50090252023857 L 184.78228439385543 55.39326322771006 L 184.77117639334523 55.28556833706991 L 184.76245125004516 55.17782861771744 L 184.75610983646226 55.0700548435348 L 184.7521527867326 54.96225779180959 L 184.7505804965579 54.85444824215717" stroke-miterlimit="10" stroke-width="2.7769845610000004" stroke-dasharray=""/></g><g><g/><text fill="black" stroke="none" font-family="sans-serif" font-size="11pt" font-style="normal" font-weight="normal" text-decoration="normal" x="171.53122911048175" y="83.14618479699999" text-anchor="start" dominant-baseline="alphabetic" xml:space="preserve">ConfigCRD</text></g><g><path fill="#78FFC9" stroke="black" paint-order="fill stroke markers" d=" M 281.7442999967786 56.029747319 L 281.7442999967786 21.725820389 L 329.4430936327786 21.725820389 L 329.4430936327786 56.029747319" stroke-miterlimit="10" stroke-width="2.7769845610000004" stroke-dasharray=""/><path fill="#78FFC9" stroke="black" paint-order="fill stroke markers" d=" M 329.4430936327786 20.5333505481 L 329.4419011728749 20.64116109301662 L 329.43832391240886 20.748960856968594 L 329.4323622091035 20.85673906006935 L 329.42401665912416 20.964484924588405 L 329.41328809701895 21.072187676029085 L 329.4001775956351 21.179836544206 L 329.3846864660119 21.287420764322043 L 329.36681625724924 21.394929578044856 L 329.34656875635324 21.502352234582652 L 329.32394598805706 21.6096779917593 L 329.29895021461874 21.716896117088513 L 329.2715839355947 21.82399588884712 L 329.2418498875901 21.93096659714718 L 329.20975104398497 22.037797545007013 L 329.1752906146369 22.144478049420858 L 329.13847204556004 22.250997442427174 L 329.0992990185807 22.357345072175423 L 329.05777545096896 22.463510303991256 L 329.0139054950469 22.56948252143996 L 328.96769353777364 22.6752511273881 L 328.91914420030633 22.780805545063224 L 328.8682623375382 22.886135219111527 L 328.8150530376133 22.991229616653374 L 328.75952162141715 23.09607822833659 L 328.7016736420451 23.200670569387384 L 328.64151488424693 23.304996180658804 L 328.57905136384824 23.40904462967667 L 328.5142893271491 23.51280551168278 L 328.4472352502991 23.616268450675403 L 328.3778958386501 23.719423100446857 L 328.30627802608547 23.82225914561813 L 328.23238897432685 23.9247663026704 L 328.1562360722178 24.026934320973382 L 328.07782693498496 24.128752983810383 L 327.9971694034769 24.230212109399975 L 327.9142715433794 24.331301551914144 L 327.8291416444095 24.432011202492884 L 327.7417882194861 24.532330990255055 L 327.65222000387894 24.63225088330548 L 327.5604459543349 24.731760889738126 L 327.46647524818246 24.830851058635275 L 327.3703172824139 24.929511481062605 L 327.27198167274577 25.027732291060094 L 327.171478252657 25.125503666628596 L 327.0688170724058 25.222815830712022 L 326.9640083980248 25.319659052175062 L 326.857062710294 25.416023646776274 L 326.747990703693 25.511899978136498 L 326.63680328533167 25.607278458702496 L 326.52351157385914 25.70214955070569 L 326.4081268983521 25.796503767115947 L 326.2906607971821 25.890331672590246 L 326.1711250168612 25.983623884416232 L 326.04953151086795 26.076371073450467 L 325.9258924384515 26.168563965051334 L 325.80022016341616 26.260193340006502 L 325.67252725288466 26.351250035454832 L 325.5428264760417 26.44172494580266 L 325.41113080285675 26.531609023634346 L 325.27745340278756 26.62089328061701 L 325.1418076434626 26.709568788399363 L 325.0042070893448 26.79762667950451 L 324.8646655003749 26.885058148216736 L 324.7231968305955 26.97185445146202 L 324.5798152267558 27.05800690968237 L 324.4345350268966 27.143506907703753 L 324.2873707589168 27.228345895597624 L 324.13833713912055 27.31251538953589 L 323.98744907074575 27.3960069726393 L 323.8347216424734 27.47881229581911 L 323.6801701269191 27.56092307861202 L 323.52380997910564 27.64233111000817 L 323.3656568349174 27.723028249272257 L 323.20572650953704 27.803006426757605 L 323.0440349958639 27.882257644713114 L 322.8805984629145 27.96077397808303 L 322.71543325420606 28.038547575299447 L 322.5485558861217 28.115570659067455 L 322.3799830462592 28.19183552714286 L 322.20973159176214 28.267334553102412 L 322.03781854763395 28.34206018710643 L 321.8642611050359 28.416004956653783 L 321.6890766195676 28.489161467329136 L 321.51228260953155 28.561522403542384 L 321.3338967541815 28.633080529260212 L 321.1539368919543 28.70382868872968 L 320.9724210186862 28.773759807193787 L 320.7893672858132 28.842866891598973 L 320.6047939985562 28.911143031294383 L 320.41871961409004 28.978581398722945 L 320.23116273969805 29.045175250104112 L 320.04214213091143 29.110917926108243 L 319.8516766896335 29.175802852522523 L 319.6597854622498 29.239823540908375 L 319.46648763772293 29.30297358925032 L 319.2718025456744 29.365246682596148 L 319.0757496544512 29.426636593688414 L 318.878348569179 29.487137183587166 L 318.6796190298019 29.546742402283833 L 318.4795809091082 29.605446289306215 L 318.2782542107433 29.663242974314535 L 318.0756590672092 29.720126677688448 L 317.8718157378515 29.776091711105025 L 317.6667446068331 29.831132478107563 L 317.4604661810964 29.885243474665224 L 317.2530010883121 29.938419289723445 L 317.0443700748164 29.990654605745036 L 316.8345940035369 30.041944199241925 L 316.62369385190595 30.092282941297498 L 316.41169070976287 30.1416657980795 L 316.1986057772453 30.190087831343412 L 315.98446036266887 30.23754419892625 L 315.76927588039655 30.28403015523081 L 315.5530738486973 30.329541051700197 L 315.33587588759417 30.374072337282684 L 315.1177037167022 30.417619558886827 L 314.89857915305663 30.460178361826756 L 314.6785241089313 30.501744490257643 L 314.4575605896472 30.54231378760128 L 314.23571069137216 30.581882196961743 L 314.0129965989111 30.620445761531066 L 313.7894405834877 30.658000624984936 L 313.5650650005172 30.694543031868292 L 313.33989228737096 30.730069327970906 L 313.1139449611325 30.764575960692767 L 312.8872456163463 30.798059479399367 L 312.6598169227579 30.830516535766726 L 312.4316816230471 30.86194388411627 L 312.20286253055383 30.892338381739336 L 311.97338252699655 30.921696989211505 L 311.7432645601844 30.950016770696486 L 311.5125316417224 30.977294894239733 L 311.28120684470997 31.003528632051626 L 311.0493133014342 31.028715360780247 L 310.81687420105607 31.052852561773705 L 310.5839127872919 31.075937821332012 L 310.3504523560891 31.097968830948464 L 310.116516253296 31.118943387540448 L 309.8821278723281 31.138859393669783 L 309.6473106518281 31.15771485775246 L 309.4120880733224 31.175507894257777 L 309.1764836588729 31.19223672389691 L 308.94052096872457 31.207899673800846 L 308.70422359894985 31.222495177687634 L 308.4676151790888 31.236021776019058 L 308.2307193697863 31.24847811614655 L 307.99355986042576 31.259862952446483 L 307.7561603667605 31.27017514644471 L 307.5185446285422 31.279413666930427 L 307.2807364071465 31.287577590059286 L 307.0427594831974 31.29466609944577 L 306.80463765418904 31.300678486244855 L 306.56639473210583 31.30561414922287 L 306.3280545410415 31.309472594817628 L 306.08964091481647 31.31225343718779 L 305.85117769459475 31.313956398251428 L 305.6126887264996 31.31458130771386 L 305.3741978592291 31.314128103084656 L 305.13572894167123 31.312596829683912 L 304.8973058205191 31.30998764063768 L 304.658952337886 31.306300796862697 L 304.42069232892163 31.301536667040267 L 304.1825496194284 31.2956957275794 L 303.9445480234787 31.288778562569174 L 303.7067113410339 31.280785863720332 L 303.46906335556395 31.27171843029609 L 303.2316278316694 31.261577169032243 L 302.9944285127048 31.25036309404646 L 302.75748911840435 31.238077326736896 L 302.52083334251006 31.224721095670045 L 302.28448485040224 31.21029573645788 L 302.0484672767332 31.194802691624307 L 301.81280422306367 31.178243510460895 L 301.5775192555025 31.16061984887196 L 301.3426359023505 31.14193346920898 L 301.1081776517472 31.12218624009434 L 300.87416794932227 31.101380136234503 L 300.640630195851 31.079517238222515 L 300.407587744914 31.056599732329957 L 300.1750639005623 31.03262991028832 L 299.9430819149865 31.007610169059838 L 299.71166498619186 30.98154301059778 L 299.48083625567835 30.954431041596266 L 299.2506188061268 30.926276973229612 L 299.02103565909016 30.897083620881187 L 298.79210977269196 30.866853903861898 L 298.5638640393299 30.835590845118258 L 298.3363212833873 30.803297570930084 L 298.10950425895004 30.769977310597895 L 297.8834356475315 30.735633396119944 L 297.65813805580456 30.70026926185907 L 297.4336340133405 30.663888444199216 L 297.2099459703566 30.62649458119185 L 296.9870962954707 30.588091412192092 L 296.7651072734646 30.54868277748485 L 296.54400110305545 30.50827261790075 L 296.32379989467614 30.46686497442208 L 296.10452566826393 30.42446398777868 L 295.88620035105873 30.381073898033875 L 295.6688457754104 30.33669904416049 L 295.45248367659525 30.291343863606926 L 295.237135690643 30.245012891853445 L 295.02282335217274 30.197710761958614 L 294.80956809223966 30.149442204096005 L 294.5973912361921 30.10021204508118 L 294.38631400153884 30.050025207889014 L 294.17635749582746 29.998886711161404 L 293.9675427145336 29.94680166870541 L 293.75989053896126 29.893775288981875 L 293.55342173415505 29.839812874584574 L 293.3481569468234 29.784919821709988 L 293.14411670327394 29.729101619617655 L 292.94132140736104 29.67236385008127 L 292.73979133844523 29.61471218683051 L 292.53954664936555 29.55615239498365 L 292.34060736442393 29.496690330471075 L 292.14299337738316 29.43633193944969 L 291.9467244494773 29.375083257708297 L 291.75182020743546 29.312950410064026 L 291.55830014151957 29.249939609749873 L 291.3661836035748 29.186057157793353 L 291.17548980509497 29.121309442386426 L 290.98623781530097 29.055702938246682 L 290.7984465592341 28.98924420596986 L 290.61213481586344 28.921939891373807 L 290.42732121620804 28.85379672483389 L 290.24402424147394 28.784821520609988 L 290.0622622212058 28.71502117616503 L 289.8820533314542 28.644402671475305 L 289.7034155929579 28.572973068332434 L 289.526366869342 28.5007395096372 L 289.3509248653312 28.42770921868528 L 289.1771071249798 28.353889498444914 L 289.00493102991686 28.279287730826603 L 288.8344137976085 28.20391137594495 L 288.66557247963584 28.127767971372624 L 288.49842395998996 28.05086513138663 L 288.3329849533836 27.973210546206882 L 288.16927200357947 27.894811981227186 L 288.00730148173614 27.81567727623871 L 287.8470895847708 27.735814344646005 L 287.68865233373975 27.655231172675677 L 287.5320055722359 27.573935818577773 L 287.377164964805 27.491936411819957 L 287.2241459953787 27.409241152274568 L 287.07296396572644 27.325858309398654 L 286.9236339939252 27.241796221407014 L 286.77617101284767 27.157063294438398 L 286.6305897686691 27.07166800171489 L 286.48690481939263 26.985618882694595 L 286.34513053339344 26.89892454221772 L 286.205281087982 26.811593649646056 L 286.0673704679862 26.723634937996092 L 285.9314124643533 26.63505720306569 L 285.79742067277016 26.54586930255453 L 285.66540849230444 26.45608015517834 L 285.53538912406407 26.365698739777034 L 285.4073755698776 26.274734094416832 L 285.28138063099374 26.183195315486472 L 285.15741690680136 26.09109155678756 L 285.0354967935696 25.998432028619217 L 284.91563248320824 25.90522599685704 L 284.79783596204834 25.811482782026534 L 284.6821190096439 25.717211758371064 L 284.5684931975937 25.62242235291444 L 284.45696988838426 25.527124044518214 L 284.3475602342536 25.431326362933806 L 284.2402751760759 25.33503888784955 L 284.1351254422677 25.238271247932712 L 284.0321215477146 25.141033119866645 L 283.9312737927203 25.043334227383127 L 283.83259226197623 24.945184340289984 L 283.73608682355325 24.84659327349414 L 283.6417671279148 24.74757088602011 L 283.5496426069518 24.648127080024132 L 283.4597224730396 24.548271799803928 L 283.3720157181167 24.448015030804306 L 283.28653111278544 24.34736679861863 L 283.2032772054351 24.246337167986233 L 283.1222623213871 24.144936241786 L 283.0434945620623 24.043174160026034 L 282.966981804171 23.941061098829724 L 282.8927316989252 23.83860726941809 L 282.8207516712736 23.735822917088697 L 282.751048919159 23.63271832019112 L 282.6836304127985 23.52930378909913 L 282.6185028939865 23.425589665179665 L 282.5556728754206 23.32158631975868 L 282.4951466400504 23.21730415308405 L 282.43693024044893 23.112753593285547 L 282.3810294982076 23.00794509533202 L 282.3274500033542 22.90288913998592 L 282.27619711379344 22.797596232755243 L 282.2272759547716 22.692076902842967 L 282.1806914183637 22.58634170209415 L 282.1364481629848 22.48040120394075 L 282.0945506129234 22.374266002344307 L 282.0550029578996 22.267946710736528 L 282.017809152646 22.161453960957978 L 281.9829729165121 22.05479840219489 L 281.9504977330925 21.94799069991426 L 281.92038684987847 21.841041534797313 L 281.8926432779332 21.733961601671435 L 281.86726979159084 21.62676160844071 L 281.84426892817885 21.51945227501512 L 281.82364298776434 21.412044332238587 L 281.80539403292426 21.30454852081588 L 281.78952388853884 21.19697559023857 L 281.77603414160933 21.08933629771006 L 281.7649261410991 20.98164140706991 L 281.756200997799 20.87390168771744 L 281.7498595842161 20.7661279135348 L 281.7459025344865 20.658330861809592 L 281.74433024431175 20.55052131215717 L 281.7451428709197 20.442710045442645 L 281.7483403330483 20.334907842702854 L 281.753922310954 20.227125484068235 L 281.7618882464437 20.119373747684833 L 281.7722373429304 20.011663408636494 L 281.78496856551317 19.904005237867363 L 281.8000806410803 19.7964100011048 L 281.81757205843684 19.688888457782824 L 281.8374410684557 19.581451359966163 L 281.8596856842523 19.47410945127507 L 281.88430368138376 19.366873465810958 L 281.91129259807076 19.259754127083017 L 281.9406497354442 19.15276214693585 L 281.9723721578147 19.04590822447831 L 282.00645669296654 18.939203045013606 L 282.04289993247465 18.832657278970757 L 282.0816982320453 18.72628158083758 L 282.12284771188104 18.620086588095244 L 282.16634425706803 18.51408292015453 L 282.21218351798814 18.408281177293887 L 282.2603609107533 18.302691939599445 L 282.3108716176646 18.197325765906974 L 282.3637105876932 18.092193192746045 L 282.4188725369863 17.987304733286358 L 282.47635194939494 17.882670876286454 L 282.53614307702566 17.77830208504484 L 282.59823994081563 17.674208796353664 L 282.66263633113016 17.570401419455052 L 282.7293258083839 17.46689033500019 L 282.79830170368473 17.36368589401126 L 282.86955711950054 17.260798416846367 L 282.94308493034913 17.158238192167477 L 283.0188777835108 17.056015475911597 L 283.0969280997632 16.954140490265164 L 283.1772280741399 16.85262342264185 L 283.2597696767104 16.751474424663822 L 283.3445446533831 16.650703611146586 L 283.43154452673105 16.550321059087512 L 283.5207605968394 16.450336806658164 L 283.61218394217553 16.35076085220046 L 283.705805420481 16.25160315322686 L 283.8016156696861 16.15287362542464 L 283.89960510884566 16.054582141664305 L 283.9997639390975 15.956738531012315 L 284.102082144642 15.859352577748204 L 284.2065494937439 15.762434020386143 L 284.31315553975537 15.665992550701102 L 284.42188962216056 15.570037812759686 L 284.53274086764196 15.47457940195572 L 284.6456981911673 15.379626864050742 L 284.76075029709835 15.285189694219413 L 284.8778856803205 15.191277336100018 L 284.997092627393 15.097899180850114 L 285.1183592177204 15.005064566207405 L 285.2416733247448 14.912782775555993 L 285.3670226171582 14.821063036998048 L 285.49439456013596 14.729914522430988 L 285.62377641658975 14.639346346630315 L 285.7551552484418 14.549367566338134 L 285.8885179179184 14.459987179357494 L 286.02385108886386 14.371214123652608 L 286.1611412280737 14.283057276455072 L 286.30037460664846 14.195525453376138 L 286.44153730136634 14.108627407525177 L 286.58461519607545 14.022371828634352 L 286.7295939831056 13.936767342189675 L 286.8764591646989 13.851822508568457 L 287.02519605445957 13.76754582218327 L 287.17578977882255 13.683945710632521 L 287.3282252785409 13.601030533857704 L 287.48248731019174 13.518808583307395 L 287.63856044770034 13.437288081108132 L 287.79642908388314 13.356477179242205 L 287.95607743200804 13.276383958732454 L 288.1174895273732 13.19701642883419 L 288.2806492289037 13.11838252623426 L 288.4455402207653 13.040490114257395 L 288.61214601399615 12.963346982079887 L 288.7804499481559 12.886960843950664 L 288.9504351929913 12.811339338419888 L 289.1220847501195 12.73649002757509 L 289.29538145472793 12.662420396284984 L 289.4703079772904 12.589137851450971 L 289.6468468253006 12.516649721266472 L 289.82498034502066 12.444963254484088 L 290.0046907232472 12.37408561969077 L 290.1859599890921 12.304023904590924 L 290.36877001577983 12.234785115297683 L 290.55310252246005 12.166376175632273 L 290.7389390760357 12.098803926431655 L 290.9262610930063 12.032075124864438 L 291.1150498413263 11.966196443755171 L 291.3052864422781 11.901174470917068 L 291.4969518723602 11.837015708493228 L 291.6900269651893 11.773726572306426 L 291.884492413417 11.71131339121754 L 292.0803287706605 11.64978240649267 L 292.2775164534474 11.589139771179015 L 292.47603574317355 11.529391549489564 L 292.6758667880756 11.470543716196701 L 292.87698960521544 11.412602156034716 L 293.079384082479 11.355572663111337 L 293.2830299805873 11.299460940328336 L 293.4879069351201 11.244272598811229 L 293.69399445855277 11.190013157348178 L 293.9012719423047 11.136688041838113 L 294.1097186588002 11.084302584748148 L 294.31931376354134 11.03286202458034 L 294.53003629719234 10.982371505347833 L 294.7418651876754 10.932836076060482 L 294.954779252278 10.88426069021993 L 295.1687571997711 10.836650205324288 L 295.3837776325383 10.790009382382364 L 295.59981904871546 10.74434288543759 L 295.8168598443411 10.6996552811016 L 296.0348783155164 10.655951038097594 L 296.25385266057594 10.613234526813446 L 296.4737609822677 10.571510018864695 L 296.69458128994285 10.530781686667359 L 296.9162915017546 10.49105360302072 L 297.13886944686647 10.452329740700035 L 297.36229286766945 10.41461397205927 L 297.58653942200766 10.377910068643855 L 297.8115866854126 10.342221700813546 L 298.0374121533453 10.307552437375389 L 298.2639932434473 10.273905745226832 L 298.4913072977984 10.241284989009054 L 298.71933158518254 10.209693430770495 L 298.94804330336103 10.179134229640646 L 299.17741958135264 10.14961044151416 L 299.4074374817207 10.121125018745243 L 299.6380740028669 10.093680809852438 L 299.8693060813313 10.067280559233762 L 300.10111059409866 10.041926906892275 L 300.33346436091097 10.017622388172084 L 300.56634414658515 9.99436943350481 L 300.79972666333674 9.972170368166541 L 301.0335885731085 9.95102741204531 L 301.26790648990436 9.930942679419111 L 301.50265698212786 9.91191817874447 L 301.73781657492543 9.893955812455602 L 301.97336175253383 9.877057376774163 L 302.20926896063145 9.861224561529642 L 302.44551460869417 9.846458949990371 L 302.682075072354 9.832762018705198 L 302.91892669576174 9.820135137355836 L 303.15604579395244 9.808579568619898 L 303.3934086552138 9.798096468044628 L 303.63099154345764 9.78868688393135 L 303.86877070059296 9.780351757230632 L 304.1067223489023 9.773091921448197 L 304.344822693419 9.766908102561576 L 304.5830479243072 9.761800918947504 L 304.8213742192422 9.757770881320084 L 305.05977774579316 9.754818392679725 L 305.2982346638061 9.752943748272825 L 305.5367211277879 9.752147135562266 L 305.77521328929095 9.752428634208655 L 306.0136872992978 9.753788216062361 L 306.2521193106062 9.756225745166333 L 306.4904854802137 9.75974097776969 L 306.72876197170194 9.764333562352103 L 306.9669249576204 9.770003039658938 L 307.20495062186893 9.776748842747192 L 307.44281516207946 9.784570297042176 L 307.6804947919962 9.793466620404978 L 307.91796574385415 9.803436923210677 L 308.15520427075614 9.8144802084373 L 308.39218664904706 9.826595371765528 L 308.62888918068666 9.83978120168912 L 308.86528819561903 9.854036379636078 L 309.10136005413955 9.869359480100481 L 309.33708114925923 9.885748970785057 L 309.5724279090649 9.903203212754391 L 309.8073767990768 9.921720460598834 L 310.0419043246016 9.941298862609031 L 310.27598703308223 9.961936460961097 L 310.50960151644296 9.983631191912394 L 310.7427244134301 10.006380886007905 L 310.9753324119482 10.030183268297183 L 311.2074022513913 10.055035958561827 L 311.43891072496876 10.080936471553528 L 311.66983468202625 10.107882217242567 L 311.9001510303604 10.13587050107683 L 312.1298367385284 10.164898524251257 L 312.3588688381507 10.194963383987721 L 312.5872244262084 10.226062073825304 L 312.81488066733283 10.258191483920934 L 313.0418147960896 10.291348401360379 L 313.26800411925507 10.325529510479525 L 313.49342601808524 10.360731393195941 L 313.7180579505782 10.396950529350695 L 313.9418774537279 10.434183297060352 L 314.1648621457704 10.472425973079169 L 314.3869897284225 10.51167473317141 L 314.60823798911093 10.551925652493777 L 314.828584803194 10.593174705987877 L 315.048008136174 10.635417768782737 L 315.26648604590036 10.678650616607278 L 315.4839966847643 10.722868926212747 L 315.7005183018831 10.76806827580503 L 315.91602924527547 10.814244145486835 L 316.1305079640268 10.861391917709673 L 316.3439330104438 10.909506877735609 L 316.5562830421997 10.95858421410874 L 316.7675368244683 11.008619019136324 L 316.97767323204755 11.059606289379555 L 317.1866712514716 11.111540926153898 L 317.39450998311275 11.164417736038953 L 317.6011686432711 11.218231431397797 L 317.80662656625276 11.272976630905736 L 318.0108632064367 11.328647860088443 L 318.2138581403291 11.385239551869391 L 318.41559106860564 11.442746047126562 L 318.6160418181417 11.501161595258353 L 318.81519034402936 11.560480354758626 L 319.01301673158196 11.620696393800868 L 319.2095011983256 11.681803690831353 L 319.4046240959774 11.7437961351713 L 319.5983659124101 11.806667527627935 L 319.7907072736036 11.870411581114405 L 319.981628945582 11.935021921278484 L 320.17111183633716 12.000492087139994 L 320.359136997738 12.066815531736909 L 320.5456856274251 12.133985622780036 L 320.7307390706908 12.201995643316248 L 320.9142788223451 12.270838792400168 L 321.09628652856577 12.340508185774253 L 321.27674398873387 12.410996856557224 L 321.45563315725366 12.482297755940746 L 321.6329361453575 12.554403753894292 L 321.8086352228942 12.627307639878161 L 321.9827128201026 12.701002123564503 L 322.15515152936786 12.775479835566365 L 322.32593410696285 12.85073332817461 L 322.4950434747721 12.926755076102687 L 322.66246272199976 13.003537477239155 L 322.8281751068606 13.081072853407886 L 322.99216405825433 13.159353451135875 L 323.1544131774223 13.238371442428583 L 323.3149062395879 13.318118925552731 L 323.4736271955787 13.398587925826458 L 323.63056017343126 13.4797703964168 L 323.78568947997866 13.561658219144345 L 323.9389996024194 13.64424320529506 L 324.09047520986917 13.727517096439154 L 324.24010115489335 13.811471565256904 L 324.38786247502213 13.89609821637139 L 324.5337443942466 13.981388587188025 L 324.67773232449645 14.0673341487408 L 324.8198118670987 14.153926306545182 L 324.95996881421735 14.241156401457552 L 325.0981891502746 14.329015710541107 L 325.234459053352 14.417495447938157 L 325.36876489657277 14.506586765748693 L 325.50109324946453 14.59628075491518 L 325.6314308793023 14.68656844611344 L 325.75976475243164 14.777440810649601 L 325.8860820355722 14.868888761362928 L 326.010370097101 14.96090315353456 L 326.1326165083153 15.05347478580196 L 326.25280904467604 15.146594401079039 L 326.37093568702966 15.240252687481874 L 326.4869846228104 15.33444027925987 L 326.60094424722126 15.429147757732338 L 326.71280316439487 15.524365652230356 L 326.8225501885328 15.62008444104382 L 326.93017434502394 15.716294552373615 L 327.0356648715424 15.812986365288783 L 327.1390112191234 15.910150210688608 L 327.2402030532184 16.00777637226952 L 327.3392302547282 16.105855087496717 L 327.4360829210152 16.204376548580406 L 327.5307513668936 16.30333090345658 L 327.62322612559757 16.402708256772215 L 327.7134979497283 16.502498670874793 L 327.80155781217866 16.602692166806058 L 327.8873969070358 16.703278725299917 L 327.9710066504617 16.80424828778434 L 328.0523786815517 16.90559075738722 L 328.13150486317056 17.00729599994605 L 328.20837728276604 17.10935384502132 L 328.2829882531602 17.211754086913583 L 328.35533031331823 17.314486485683975 L 328.42539622909436 17.41754076817823 L 328.49317899395544 17.52090662905398 L 328.5586718296814 17.62457373181127 L 328.6218681870433 17.728531709826218 L 328.682761746458 17.83277016738765 L 328.7413464186204 17.93727868073668 L 328.7976163451121 18.04204679910906 L 328.85156589898725 18.147064045780258 L 328.90318968533546 18.252319919113123 L 328.95248254182115 18.357803893608033 L 328.9994395391998 18.463505420955443 L 329.04405598181063 18.569413931090704 L 329.08632740804666 18.675518833251058 L 329.1262495908005 18.781809517034706 L 329.16381853788715 18.88827535346185 L 329.1990304924432 18.994905696037566 L 329.23188193330253 19.101689881816455 L 329.26236957534843 19.208617232468924 L 329.2904903698421 19.31567705534902 L 329.3162415047275 19.422858644563664 L 329.33962040491264 19.530151282043253 L 329.36062473252696 19.637544238613454 L 329.37925238715525 19.745026775068098 L 329.3955015060475 19.852588143243114 L 329.4093704643054 19.960217587091314 L 329.4208578750447 20.067904343758006 L 329.42996258953383 20.17563764465726 L 329.436683697309 20.283406716548765 L 329.441020526265 20.39120078261514 L 329.44297264272257 20.49900906353961 M 329.4430936327786 54.8372774781 L 329.4419011728749 54.94508802301662 L 329.43832391240886 55.05288778696859 L 329.4323622091035 55.160665990069354 L 329.42401665912416 55.2684118545884 L 329.41328809701895 55.376114606029084 L 329.4001775956351 55.483763474206 L 329.3846864660119 55.591347694322046 L 329.36681625724924 55.698856508044855 L 329.34656875635324 55.80627916458265 L 329.32394598805706 55.913604921759294 L 329.29895021461874 56.02082304708851 L 329.2715839355947 56.12792281884712 L 329.2418498875901 56.23489352714718 L 329.20975104398497 56.34172447500701 L 329.1752906146369 56.44840497942086 L 329.13847204556004 56.55492437242717 L 329.0992990185807 56.66127200217542 L 329.05777545096896 56.76743723399125 L 329.0139054950469 56.87340945143996 L 328.96769353777364 56.979178057388104 L 328.91914420030633 57.08473247506323 L 328.8682623375382 57.190062149111526 L 328.8150530376133 57.295156546653374 L 328.75952162141715 57.40000515833659 L 328.7016736420451 57.50459749938738 L 328.64151488424693 57.60892311065881 L 328.57905136384824 57.71297155967667 L 328.5142893271491 57.81673244168278 L 328.4472352502991 57.9201953806754 L 328.3778958386501 58.023350030446856 L 328.30627802608547 58.12618607561813 L 328.23238897432685 58.228693232670395 L 328.1562360722178 58.33086125097338 L 328.07782693498496 58.43267991381038 L 327.9971694034769 58.534139039399975 L 327.9142715433794 58.63522848191415 L 327.8291416444095 58.73593813249288 L 327.7417882194861 58.83625792025505 L 327.65222000387894 58.93617781330548 L 327.5604459543349 59.03568781973813 L 327.46647524818246 59.13477798863527 L 327.3703172824139 59.23343841106261 L 327.27198167274577 59.33165922106009 L 327.171478252657 59.42943059662859 L 327.0688170724058 59.52674276071202 L 326.9640083980248 59.623585982175065 L 326.857062710294 59.71995057677627 L 326.747990703693 59.8158269081365 L 326.63680328533167 59.9112053887025 L 326.52351157385914 60.006076480705694 L 326.4081268983521 60.10043069711595 L 326.2906607971821 60.194258602590246 L 326.1711250168612 60.287550814416235 L 326.04953151086795 60.38029800345047 L 325.9258924384515 60.47249089505134 L 325.80022016341616 60.564120270006505 L 325.67252725288466 60.655176965454835 L 325.5428264760417 60.74565187580266 L 325.41113080285675 60.83553595363435 L 325.27745340278756 60.924820210617014 L 325.1418076434626 61.01349571839936 L 325.0042070893448 61.10155360950451 L 324.8646655003749 61.18898507821673 L 324.7231968305955 61.27578138146202 L 324.5798152267558 61.361933839682365 L 324.4345350268966 61.447433837703755 L 324.2873707589168 61.53227282559762 L 324.13833713912055 61.61644231953589 L 323.98744907074575 61.699933902639295 L 323.8347216424734 61.782739225819114 L 323.6801701269191 61.86485000861202 L 323.52380997910564 61.94625804000817 L 323.3656568349174 62.02695517927226 L 323.20572650953704 62.1069333567576 L 323.0440349958639 62.18618457471311 L 322.8805984629145 62.26470090808303 L 322.71543325420606 62.34247450529945 L 322.5485558861217 62.419497589067454 L 322.3799830462592 62.49576245714286 L 322.20973159176214 62.57126148310241 L 322.03781854763395 62.64598711710643 L 321.8642611050359 62.71993188665378 L 321.6890766195676 62.793088397329136 L 321.51228260953155 62.86544933354239 L 321.3338967541815 62.937007459260215 L 321.1539368919543 63.007755618729675 L 320.9724210186862 63.07768673719379 L 320.7893672858132 63.146793821598976 L 320.6047939985562 63.21506996129438 L 320.41871961409004 63.28250832872294 L 320.23116273969805 63.34910218010411 L 320.04214213091143 63.414844856108246 L 319.8516766896335 63.47972978252252 L 319.6597854622498 63.54375047090838 L 319.46648763772293 63.606900519250324 L 319.2718025456744 63.66917361259615 L 319.0757496544512 63.73056352368841 L 318.878348569179 63.79106411358716 L 318.6796190298019 63.85066933228383 L 318.4795809091082 63.90937321930622 L 318.2782542107433 63.96716990431453 L 318.0756590672092 64.02405360768844 L 317.8718157378515 64.08001864110503 L 317.6667446068331 64.13505940810757 L 317.4604661810964 64.18917040466522 L 317.2530010883121 64.24234621972344 L 317.0443700748164 64.29458153574504 L 316.8345940035369 64.34587112924193 L 316.62369385190595 64.3962098712975 L 316.41169070976287 64.4455927280795 L 316.1986057772453 64.49401476134341 L 315.98446036266887 64.54147112892625 L 315.76927588039655 64.58795708523081 L 315.5530738486973 64.63346798170019 L 315.33587588759417 64.67799926728269 L 315.1177037167022 64.72154648888683 L 314.89857915305663 64.76410529182675 L 314.6785241089313 64.80567142025764 L 314.4575605896472 64.84624071760128 L 314.23571069137216 64.88580912696175 L 314.0129965989111 64.92437269153106 L 313.7894405834877 64.96192755498494 L 313.5650650005172 64.9984699618683 L 313.33989228737096 65.0339962579709 L 313.1139449611325 65.06850289069277 L 312.8872456163463 65.10198640939936 L 312.6598169227579 65.13444346576672 L 312.4316816230471 65.16587081411626 L 312.20286253055383 65.19626531173934 L 311.97338252699655 65.2256239192115 L 311.7432645601844 65.25394370069648 L 311.5125316417224 65.28122182423974 L 311.28120684470997 65.30745556205163 L 311.0493133014342 65.33264229078024 L 310.81687420105607 65.35677949177371 L 310.5839127872919 65.37986475133201 L 310.3504523560891 65.40189576094846 L 310.116516253296 65.42287031754044 L 309.8821278723281 65.44278632366978 L 309.6473106518281 65.46164178775246 L 309.4120880733224 65.47943482425778 L 309.1764836588729 65.49616365389691 L 308.94052096872457 65.51182660380084 L 308.70422359894985 65.52642210768764 L 308.4676151790888 65.53994870601906 L 308.2307193697863 65.55240504614655 L 307.99355986042576 65.56378988244649 L 307.7561603667605 65.57410207644472 L 307.5185446285422 65.58334059693043 L 307.2807364071465 65.59150452005929 L 307.0427594831974 65.59859302944577 L 306.80463765418904 65.60460541624485 L 306.56639473210583 65.60954107922286 L 306.3280545410415 65.61339952481762 L 306.08964091481647 65.61618036718778 L 305.85117769459475 65.61788332825142 L 305.6126887264996 65.61850823771385 L 305.3741978592291 65.61805503308466 L 305.13572894167123 65.61652375968391 L 304.8973058205191 65.61391457063768 L 304.658952337886 65.61022772686269 L 304.42069232892163 65.60546359704027 L 304.1825496194284 65.5996226575794 L 303.9445480234787 65.59270549256917 L 303.7067113410339 65.58471279372033 L 303.46906335556395 65.5756453602961 L 303.2316278316694 65.56550409903224 L 302.9944285127048 65.55429002404645 L 302.75748911840435 65.5420042567369 L 302.52083334251006 65.52864802567004 L 302.28448485040224 65.51422266645788 L 302.0484672767332 65.4987296216243 L 301.81280422306367 65.48217044046089 L 301.5775192555025 65.46454677887196 L 301.3426359023505 65.44586039920898 L 301.1081776517472 65.42611317009434 L 300.87416794932227 65.4053070662345 L 300.640630195851 65.38344416822251 L 300.407587744914 65.36052666232996 L 300.1750639005623 65.33655684028832 L 299.9430819149865 65.31153709905983 L 299.71166498619186 65.28546994059778 L 299.48083625567835 65.25835797159627 L 299.2506188061268 65.23020390322961 L 299.02103565909016 65.2010105508812 L 298.79210977269196 65.1707808338619 L 298.5638640393299 65.13951777511826 L 298.3363212833873 65.10722450093009 L 298.10950425895004 65.0739042405979 L 297.8834356475315 65.03956032611994 L 297.65813805580456 65.00419619185907 L 297.4336340133405 64.96781537419922 L 297.2099459703566 64.93042151119185 L 296.9870962954707 64.89201834219209 L 296.7651072734646 64.85260970748485 L 296.54400110305545 64.81219954790075 L 296.32379989467614 64.77079190442208 L 296.10452566826393 64.72839091777868 L 295.88620035105873 64.68500082803388 L 295.6688457754104 64.64062597416049 L 295.45248367659525 64.59527079360693 L 295.237135690643 64.54893982185345 L 295.02282335217274 64.50163769195862 L 294.80956809223966 64.45336913409601 L 294.5973912361921 64.40413897508118 L 294.38631400153884 64.35395213788901 L 294.17635749582746 64.3028136411614 L 293.9675427145336 64.25072859870541 L 293.75989053896126 64.19770221898187 L 293.55342173415505 64.14373980458457 L 293.3481569468234 64.08884675170998 L 293.14411670327394 64.03302854961765 L 292.94132140736104 63.97629078008127 L 292.73979133844523 63.918639116830505 L 292.53954664936555 63.860079324983644 L 292.34060736442393 63.80061726047107 L 292.14299337738316 63.74025886944969 L 291.9467244494773 63.67901018770829 L 291.75182020743546 63.61687734006403 L 291.55830014151957 63.553866539749876 L 291.3661836035748 63.48998408779335 L 291.17548980509497 63.42523637238643 L 290.98623781530097 63.359629868246685 L 290.7984465592341 63.29317113596986 L 290.61213481586344 63.225866821373806 L 290.42732121620804 63.15772365483389 L 290.24402424147394 63.088748450609984 L 290.0622622212058 63.018948106165034 L 289.8820533314542 62.94832960147531 L 289.7034155929579 62.87689999833243 L 289.526366869342 62.8046664396372 L 289.3509248653312 62.73163614868528 L 289.1771071249798 62.65781642844491 L 289.00493102991686 62.583214660826606 L 288.8344137976085 62.50783830594495 L 288.66557247963584 62.43169490137262 L 288.49842395998996 62.35479206138663 L 288.3329849533836 62.27713747620688 L 288.16927200357947 62.19873891122719 L 288.00730148173614 62.119604206238705 L 287.8470895847708 62.039741274646005 L 287.68865233373975 61.95915810267567 L 287.5320055722359 61.87786274857777 L 287.377164964805 61.79586334181995 L 287.2241459953787 61.71316808227457 L 287.07296396572644 61.62978523939866 L 286.9236339939252 61.54572315140702 L 286.77617101284767 61.4609902244384 L 286.6305897686691 61.375594931714886 L 286.48690481939263 61.2895458126946 L 286.34513053339344 61.202851472217716 L 286.205281087982 61.11552057964606 L 286.0673704679862 61.02756186799609 L 285.9314124643533 60.93898413306569 L 285.79742067277016 60.84979623255453 L 285.66540849230444 60.76000708517834 L 285.53538912406407 60.669625669777034 L 285.4073755698776 60.57866102441683 L 285.28138063099374 60.487122245486475 L 285.15741690680136 60.39501848678756 L 285.0354967935696 60.302358958619216 L 284.91563248320824 60.20915292685704 L 284.79783596204834 60.11540971202653 L 284.6821190096439 60.02113868837107 L 284.5684931975937 59.926349282914444 L 284.45696988838426 59.83105097451821 L 284.3475602342536 59.735253292933805 L 284.2402751760759 59.63896581784955 L 284.1351254422677 59.54219817793271 L 284.0321215477146 59.444960049866644 L 283.9312737927203 59.34726115738312 L 283.83259226197623 59.24911127028998 L 283.73608682355325 59.15052020349414 L 283.6417671279148 59.05149781602011 L 283.5496426069518 58.95205401002413 L 283.4597224730396 58.85219872980392 L 283.3720157181167 58.75194196080431 L 283.28653111278544 58.651293728618626 L 283.2032772054351 58.550264097986236 L 283.1222623213871 58.448863171785995 L 283.0434945620623 58.34710109002604 L 282.966981804171 58.244988028829724 L 282.8927316989252 58.14253419941809 L 282.8207516712736 58.03974984708869 L 282.751048919159 57.93664525019112 L 282.6836304127985 57.833230719099134 L 282.6185028939865 57.72951659517967 L 282.5556728754206 57.62551324975868 L 282.4951466400504 57.521231083084054 L 282.43693024044893 57.41668052328555 L 282.3810294982076 57.311872025332015 L 282.3274500033542 57.20681606998592 L 282.27619711379344 57.10152316275524 L 282.2272759547716 56.996003832842966 L 282.1806914183637 56.89026863209415 L 282.1364481629848 56.78432813394075 L 282.0945506129234 56.6781929323443 L 282.0550029578996 56.57187364073653 L 282.017809152646 56.465380890957974 L 281.9829729165121 56.35872533219489 L 281.9504977330925 56.25191762991426 L 281.92038684987847 56.144968464797316 L 281.8926432779332 56.037888531671435 L 281.86726979159084 55.930688538440705 L 281.84426892817885 55.823379205015115 L 281.82364298776434 55.71597126223858 L 281.80539403292426 55.60847545081588 L 281.78952388853884 55.50090252023857 L 281.77603414160933 55.39326322771006 L 281.7649261410991 55.28556833706991 L 281.756200997799 55.17782861771744 L 281.7498595842161 55.0700548435348 L 281.7459025344865 54.96225779180959 L 281.74433024431175 54.85444824215717" stroke-miterlimit="10" stroke-width="2.7769845610000004" stroke-dasharray=""/></g><g><g/><text fill="black" stroke="none" font-family="sans-serif" font-size="11pt" font-style="normal" font-weight="normal" text-decoration="normal" x="262.00386832356764" y="83.14618479699999" text-anchor="start" dominant-baseline="alphabetic" xml:space="preserve">InstanceCRD</text></g><path fill="none" stroke="none"/><g><path fill="#78FFC9" stroke="black" paint-order="fill stroke markers" d=" M 444.22774643157675 20.255652092 L 568.6547365916002 20.255652092 L 568.6547365916002 88.04674578699999 L 444.22774643157675 88.04674578699999 L 444.22774643157675 20.255652092 Z" stroke-miterlimit="10" stroke-width="2.613632528" stroke-dasharray=""/></g><g><text fill="black" stroke="none" font-family="sans-serif" font-size="13.2pt" font-style="italic" font-weight="bold" text-decoration="normal" x="489.3225128738932" y="51.12918632900001" text-anchor="start" dominant-baseline="alphabetic" xml:space="preserve">Akri</text><text fill="black" stroke="none" font-family="sans-serif" font-size="13.2pt" font-style="italic" font-weight="bold" text-decoration="normal" x="461.95144201207677" y="70.731430289" text-anchor="start" dominant-baseline="alphabetic" xml:space="preserve">Controller</text></g><path fill="none" stroke="none"/><g><path fill="#78FFC9" stroke="black" paint-order="fill stroke markers" d=" M 599.6506871759779 20.255652092 L 689.8488107588529 20.255652092 L 689.8488107588529 88.04674578699999 L 599.6506871759779 88.04674578699999 L 599.6506871759779 20.255652092 Z" stroke-miterlimit="10" stroke-width="2.613632528" stroke-dasharray=""/></g><g><text fill="black" stroke="none" font-family="sans-serif" font-size="13.2pt" font-style="italic" font-weight="bold" text-decoration="normal" x="627.6310203297201" y="51.12918632900001" text-anchor="start" dominant-baseline="alphabetic" xml:space="preserve">Akri</text><text fill="black" stroke="none" font-family="sans-serif" font-size="13.2pt" font-style="italic" font-weight="bold" text-decoration="normal" x="617.3743827564779" y="70.731430289" text-anchor="start" dominant-baseline="alphabetic" xml:space="preserve">Agent</text></g><path fill="none" stroke="none"/><g><path fill="#A092E8" stroke="black" paint-order="fill stroke markers" d=" M 706.1840140588529 39.857896051999994 L 803.2485316846967 39.857896051999994 L 803.2485316846967 88.04674578699999 L 706.1840140588529 88.04674578699999 L 706.1840140588529 39.857896051999994 Z" stroke-miterlimit="10" stroke-width="2.613632528" stroke-dasharray=""/></g><g><text fill="black" stroke="none" font-family="sans-serif" font-size="13.2pt" font-style="italic" font-weight="bold" text-decoration="normal" x="723.9077096393529" y="70.731430289" text-anchor="start" dominant-baseline="alphabetic" xml:space="preserve">kubelet</text></g></g><g><g><g><rect fill="white" stroke="none" x="56.42385412352213" y="120.717152387" width="132.84610237183594" height="21.23576429"/></g><text fill="black" stroke="none" font-family="sans-serif" font-size="11pt" font-style="normal" font-weight="normal" text-decoration="normal" x="58.874134618522135" y="135.418835357" text-anchor="start" dominant-baseline="alphabetic" xml:space="preserve">ApplyConfiguration</text></g><g><path fill="none" stroke="black" paint-order="fill stroke markers" d=" M 37.09386355185547 141.952916677 L 195.15062968335803 141.952916677" stroke-miterlimit="10" stroke-width="1.3612669416666667" stroke-dasharray=""/><g transform="translate(208.59994706702471,141.952916677) translate(-208.59994706702471,-141.952916677)"><path fill="black" stroke="none" paint-order="stroke fill markers" d=" M 194.98727765035804 135.14658196866665 L 208.59994706702471 141.952916677 L 194.98727765035804 148.75925138533333 Z"/></g></g><path fill="white" stroke="black" paint-order="fill stroke markers" d=" M 181.6540709553255 166.455721627 L 220.84414020872393 166.455721627 L 235.54582317872394 181.157404597 L 235.54582317872394 204.02668921699998 L 181.6540709553255 204.02668921699998 L 181.6540709553255 166.455721627 M 220.84414020872393 166.455721627 L 220.84414020872393 181.157404597 L 235.54582317872394 181.157404597" stroke-miterlimit="10" stroke-width="1.3612669416666667" stroke-dasharray=""/><g><text fill="black" stroke="none" font-family="sans-serif" font-size="11pt" font-style="normal" font-weight="normal" text-decoration="normal" x="204.5233555753255" y="189.32500624699995" text-anchor="start" dominant-baseline="alphabetic" xml:space="preserve">1</text></g><g><g><rect fill="white" stroke="none" x="340.70275508325517" y="228.529494167" width="171.9441858679297" height="21.23576429"/></g><text fill="black" stroke="none" font-family="sans-serif" font-size="11pt" font-style="normal" font-weight="normal" text-decoration="normal" x="343.1530355782552" y="243.23117713699997" text-anchor="start" dominant-baseline="alphabetic" xml:space="preserve">DetectNewConfiguration</text></g><g><path fill="none" stroke="black" paint-order="fill stroke markers" d=" M 631.3004315837487 249.765258457 L 222.0492644506914 249.765258457" stroke-miterlimit="10" stroke-width="1.3612669416666667" stroke-dasharray="6.53408132"/><g transform="translate(208.59994706702471,249.765258457) translate(-208.59994706702471,-249.765258457)"><path fill="black" stroke="none" paint-order="stroke fill markers" d=" M 222.2126164836914 242.95892374866665 L 208.59994706702471 249.765258457 L 222.2126164836914 256.5715931653333 Z"/><g transform="translate(644.7497489674154,249.765258457) translate(-644.7497489674154,-249.765258457)"><path fill="black" stroke="none" paint-order="stroke fill markers" d=" M 631.1370795507487 242.95892374866665 L 644.7497489674154 249.765258457 L 631.1370795507487 256.5715931653333 Z"/></g></g></g><path fill="none" stroke="none"/><g><path fill="#75A4F5" stroke="black" paint-order="fill stroke markers" d=" M 1023.0223365052369 277.04504796800006 L 1115.2227794240493 277.04504796800006 L 1115.2227794240493 344.83614166300003 L 1023.0223365052369 344.83614166300003 L 1023.0223365052369 277.04504796800006 Z" stroke-miterlimit="10" stroke-width="2.613632528" stroke-dasharray=""/></g><g><text fill="black" stroke="none" font-family="sans-serif" font-size="13.2pt" font-style="italic" font-weight="bold" text-decoration="normal" x="1051.0284341243112" y="307.918582205" text-anchor="start" dominant-baseline="alphabetic" xml:space="preserve">Leaf</text><text fill="black" stroke="none" font-family="sans-serif" font-size="13.2pt" font-style="italic" font-weight="bold" text-decoration="normal" x="1040.746032085737" y="327.520826165" text-anchor="start" dominant-baseline="alphabetic" xml:space="preserve">Device</text></g><g><g><rect fill="white" stroke="none" x="801.5331446995449" y="369.33894661299996" width="110.80601753296875" height="21.23576429"/></g><text fill="black" stroke="none" font-family="sans-serif" font-size="11pt" font-style="normal" font-weight="normal" text-decoration="normal" x="803.9834251945449" y="384.04062958299994" text-anchor="start" dominant-baseline="alphabetic" xml:space="preserve">DiscoverDevice</text></g><g><path fill="none" stroke="black" paint-order="fill stroke markers" d=" M 658.199066351082 390.574710903 L 1055.6732405809764 390.574710903" stroke-miterlimit="10" stroke-width="1.3612669416666667" stroke-dasharray=""/><g transform="translate(1069.1225579646432,390.574710903) translate(-1069.1225579646432,-390.574710903)"><path fill="black" stroke="none" paint-order="stroke fill markers" d=" M 1055.5098885479765 383.76837619466664 L 1069.1225579646432 390.574710903 L 1055.5098885479765 397.3810456113333 Z"/><g transform="translate(644.7497489674154,390.574710903) translate(-644.7497489674154,-390.574710903)"><path fill="black" stroke="none" paint-order="stroke fill markers" d=" M 658.362418384082 383.76837619466664 L 644.7497489674154 390.574710903 L 658.362418384082 397.3810456113333 Z"/></g></g></g><g><g><rect fill="white" stroke="none" x="420.97486036484696" y="415.07751585299997" width="108.3937250525" height="21.23576429"/></g><text fill="black" stroke="none" font-family="sans-serif" font-size="11pt" font-style="normal" font-weight="normal" text-decoration="normal" x="423.425140859847" y="429.77919882299994" text-anchor="start" dominant-baseline="alphabetic" xml:space="preserve">CreateInstance</text></g><g><path fill="none" stroke="black" paint-order="fill stroke markers" d=" M 644.7497489674154 436.313280143 L 319.04301419844523 436.313280143" stroke-miterlimit="10" stroke-width="1.3612669416666667" stroke-dasharray=""/><g transform="translate(305.5936968147786,436.313280143) translate(-305.5936968147786,-436.313280143)"><path fill="black" stroke="none" paint-order="stroke fill markers" d=" M 319.20636623144526 429.50694543466665 L 305.5936968147786 436.313280143 L 319.20636623144526 443.1196148513333 Z"/></g></g><path fill="white" stroke="black" paint-order="fill stroke markers" d=" M 278.64782070307933 460.81608509299997 L 317.8378899564778 460.81608509299997 L 332.5395729264778 475.51776806299995 L 332.5395729264778 498.387052683 L 278.64782070307933 498.387052683 L 278.64782070307933 460.81608509299997 M 317.8378899564778 460.81608509299997 L 317.8378899564778 475.51776806299995 L 332.5395729264778 475.51776806299995" stroke-miterlimit="10" stroke-width="1.3612669416666667" stroke-dasharray=""/><g><text fill="black" stroke="none" font-family="sans-serif" font-size="11pt" font-style="normal" font-weight="normal" text-decoration="normal" x="301.51710532307936" y="483.68536971299994" text-anchor="start" dominant-baseline="alphabetic" xml:space="preserve">2</text></g><g><g><rect fill="white" stroke="none" x="324.92368738644524" y="522.8898576329999" width="162.18756355347656" height="21.23576429"/></g><text fill="black" stroke="none" font-family="sans-serif" font-size="11pt" font-style="normal" font-weight="normal" text-decoration="normal" x="327.37396788144525" y="537.5915406029999" text-anchor="start" dominant-baseline="alphabetic" xml:space="preserve">DetectInstanceChange</text></g><g><path fill="none" stroke="black" paint-order="fill stroke markers" d=" M 492.99192412792183 544.1256219229999 L 319.04301419844523 544.1256219229999" stroke-miterlimit="10" stroke-width="1.3612669416666667" stroke-dasharray="6.53408132"/><g transform="translate(305.5936968147786,544.1256219229999) translate(-305.5936968147786,-544.1256219229999)"><path fill="black" stroke="none" paint-order="stroke fill markers" d=" M 319.20636623144526 537.3192872146666 L 305.5936968147786 544.1256219229999 L 319.20636623144526 550.9319566313333 Z"/><g transform="translate(506.4412415115885,544.1256219229999) translate(-506.4412415115885,-544.1256219229999)"><path fill="black" stroke="none" paint-order="stroke fill markers" d=" M 492.8285720949218 537.3192872146666 L 506.4412415115885 544.1256219229999 L 492.8285720949218 550.9319566313333 Z"/></g></g></g><path fill="none" stroke="none"/><g><path fill="#2B74EF" stroke="black" paint-order="fill stroke markers" d=" M 819.5837349846967 571.4054114339998 L 923.4802991193295 571.4054114339998 L 923.4802991193295 639.1965051289998 L 819.5837349846967 639.1965051289998 L 819.5837349846967 571.4054114339998 Z" stroke-miterlimit="10" stroke-width="2.613632528" stroke-dasharray=""/></g><g><text fill="black" stroke="none" font-family="sans-serif" font-size="13.2pt" font-style="italic" font-weight="bold" text-decoration="normal" x="837.3074305651967" y="602.278945671" text-anchor="start" dominant-baseline="alphabetic" xml:space="preserve">custom-</text><text fill="black" stroke="none" font-family="sans-serif" font-size="13.2pt" font-style="italic" font-weight="bold" text-decoration="normal" x="844.1437571643178" y="621.881189631" text-anchor="start" dominant-baseline="alphabetic" xml:space="preserve">broker</text></g><g><g><rect fill="white" stroke="none" x="617.266519990414" y="663.6993100789998" width="143.44021858277344" height="21.23576429"/></g><text fill="black" stroke="none" font-family="sans-serif" font-size="11pt" font-style="normal" font-weight="normal" text-decoration="normal" x="619.7168004854141" y="678.4009930489998" text-anchor="start" dominant-baseline="alphabetic" xml:space="preserve">ScheduleBrokerPod</text></g><g><path fill="none" stroke="black" paint-order="fill stroke markers" d=" M 506.4412415115885 684.9350743689998 L 858.0826996683464 684.9350743689998" stroke-miterlimit="10" stroke-width="1.3612669416666667" stroke-dasharray=""/><g transform="translate(871.5320170520131,684.9350743689998) translate(-871.5320170520131,-684.9350743689998)"><path fill="black" stroke="none" paint-order="stroke fill markers" d=" M 857.9193476353464 678.1287396606665 L 871.5320170520131 684.9350743689998 L 857.9193476353464 691.7414090773332 Z"/></g></g><path fill="white" stroke="black" paint-order="fill stroke markers" d=" M 844.586140940314 709.4378793189999 L 883.7762101937125 709.4378793189999 L 898.4778931637125 724.1395622889999 L 898.4778931637125 747.0088469089999 L 844.586140940314 747.0088469089999 L 844.586140940314 709.4378793189999 M 883.7762101937125 709.4378793189999 L 883.7762101937125 724.1395622889999 L 898.4778931637125 724.1395622889999" stroke-miterlimit="10" stroke-width="1.3612669416666667" stroke-dasharray=""/><g><text fill="black" stroke="none" font-family="sans-serif" font-size="11pt" font-style="normal" font-weight="normal" text-decoration="normal" x="867.4554255603139" y="732.3071639389999" text-anchor="start" dominant-baseline="alphabetic" xml:space="preserve">3</text></g><g><g><rect fill="white" stroke="none" x="672.0178912522317" y="771.5116518589998" width="55.430239334726565" height="21.23576429"/></g><text fill="black" stroke="none" font-family="sans-serif" font-size="11pt" font-style="italic" font-weight="normal" text-decoration="normal" x="674.4681717472317" y="786.2133348289998" text-anchor="start" dominant-baseline="alphabetic" xml:space="preserve">allocate</text></g><g><path fill="none" stroke="black" paint-order="fill stroke markers" d=" M 754.7162728717748 792.7474161489998 L 658.199066351082 792.7474161489998" stroke-miterlimit="10" stroke-width="1.3612669416666667" stroke-dasharray=""/><g transform="translate(644.7497489674154,792.7474161489998) translate(-644.7497489674154,-792.7474161489998)"><path fill="black" stroke="none" paint-order="stroke fill markers" d=" M 658.362418384082 785.9410814406665 L 644.7497489674154 792.7474161489998 L 658.362418384082 799.5537508573332 Z"/></g></g><g><g><rect fill="white" stroke="none" x="356.1932060069368" y="817.2502210989998" width="237.95703376832031" height="21.23576429"/></g><text fill="black" stroke="none" font-family="sans-serif" font-size="11pt" font-style="normal" font-weight="normal" text-decoration="normal" x="358.6434865019368" y="831.9519040689997" text-anchor="start" dominant-baseline="alphabetic" xml:space="preserve">UpdateInstancewithReservedSlot</text></g><g><path fill="none" stroke="black" paint-order="fill stroke markers" d=" M 644.7497489674154 838.4859853889998 L 319.04301419844523 838.4859853889998" stroke-miterlimit="10" stroke-width="1.3612669416666667" stroke-dasharray=""/><g transform="translate(305.5936968147786,838.4859853889998) translate(-305.5936968147786,-838.4859853889998)"><path fill="black" stroke="none" paint-order="stroke fill markers" d=" M 319.20636623144526 831.6796506806664 L 305.5936968147786 838.4859853889998 L 319.20636623144526 845.2923200973331 Z"/></g></g><path fill="white" stroke="black" paint-order="fill stroke markers" d=" M 278.64782070307933 862.9887903389997 L 317.8378899564778 862.9887903389997 L 332.5395729264778 877.6904733089997 L 332.5395729264778 900.5597579289997 L 278.64782070307933 900.5597579289997 L 278.64782070307933 862.9887903389997 M 317.8378899564778 862.9887903389997 L 317.8378899564778 877.6904733089997 L 332.5395729264778 877.6904733089997" stroke-miterlimit="10" stroke-width="1.3612669416666667" stroke-dasharray=""/><g><text fill="black" stroke="none" font-family="sans-serif" font-size="11pt" font-style="normal" font-weight="normal" text-decoration="normal" x="301.51710532307936" y="885.8580749589997" text-anchor="start" dominant-baseline="alphabetic" xml:space="preserve">4</text></g><g><g><rect fill="white" stroke="none" x="684.6520999314309" y="925.0625628789996" width="30.161821976328124" height="21.23576429"/></g><text fill="black" stroke="none" font-family="sans-serif" font-size="11pt" font-style="italic" font-weight="normal" text-decoration="normal" x="687.102380426431" y="939.7642458489996" text-anchor="start" dominant-baseline="alphabetic" xml:space="preserve">true</text></g><g><path fill="none" stroke="black" paint-order="fill stroke markers" d=" M 644.7497489674154 946.2983271689997 L 741.2669554881081 946.2983271689997" stroke-miterlimit="10" stroke-width="1.3612669416666667" stroke-dasharray="6.53408132"/><g transform="translate(754.7162728717748,946.2983271689997) translate(-754.7162728717748,-946.2983271689997)"><path fill="black" stroke="none" paint-order="stroke fill markers" d=" M 741.1036034551081 939.4919924606663 L 754.7162728717748 946.2983271689997 L 741.1036034551081 953.104661877333 Z"/></g></g><g><g><rect fill="white" stroke="none" x="782.1484585831049" y="970.8011321189996" width="61.95137275757813" height="21.23576429"/></g><text fill="black" stroke="none" font-family="sans-serif" font-size="11pt" font-style="normal" font-weight="normal" text-decoration="normal" x="784.5987390781049" y="985.5028150889996" text-anchor="start" dominant-baseline="alphabetic" xml:space="preserve">RunPod</text></g><g><path fill="none" stroke="black" paint-order="fill stroke markers" d=" M 754.7162728717748 992.0368964089996 L 858.0826996683464 992.0368964089996" stroke-miterlimit="10" stroke-width="1.3612669416666667" stroke-dasharray=""/><g transform="translate(871.5320170520131,992.0368964089996) translate(-871.5320170520131,-992.0368964089996)"><path fill="black" stroke="none" paint-order="stroke fill markers" d=" M 857.9193476353464 985.2305617006663 L 871.5320170520131 992.0368964089996 L 857.9193476353464 998.843231117333 Z"/></g></g><g><g><rect fill="white" stroke="none" x="890.8620076236797" y="1016.5397013589997" width="158.93055976929688" height="21.23576429"/></g><text fill="black" stroke="none" font-family="sans-serif" font-size="11pt" font-style="normal" font-weight="normal" text-decoration="normal" x="893.3122881186797" y="1031.2413843289996" text-anchor="start" dominant-baseline="alphabetic" xml:space="preserve">ConnectionEstablished</text></g><g><path fill="none" stroke="black" paint-order="fill stroke markers" d=" M 884.9813344356797 1037.7754656489997 L 1055.6732405809764 1037.7754656489997" stroke-miterlimit="10" stroke-width="5.445067766666667" stroke-dasharray=""/><g transform="translate(1069.1225579646432,1037.7754656489997) translate(-1069.1225579646432,-1037.7754656489997)"><path fill="black" stroke="none" paint-order="stroke fill markers" d=" M 1055.5098885479765 1030.9691309406664 L 1069.1225579646432 1037.7754656489997 L 1055.5098885479765 1044.581800357333 Z"/><g transform="translate(871.5320170520131,1037.7754656489997) translate(-871.5320170520131,-1037.7754656489997)"><path fill="black" stroke="none" paint-order="stroke fill markers" d=" M 885.1446864686798 1030.9691309406664 L 871.5320170520131 1037.7754656489997 L 885.1446864686798 1044.581800357333 Z"/></g></g></g></g><g/><g/><g/></g></svg>