<?xml version="1.0" encoding="UTF-8" standalone="no"?>
<!DOCTYPE svg PUBLIC "-//W3C//DTD SVG 1.1//EN" "http://www.w3.org/Graphics/SVG/1.1/DTD/svg11.dtd">
<!-- Generated by Microsoft Visio, SVG Export instance-pooling.svg Instance Pooling -->
<svg xmlns="http://www.w3.org/2000/svg" xmlns:xlink="http://www.w3.org/1999/xlink" xmlns:ev="http://www.w3.org/2001/xml-events"
		xmlns:v="http://schemas.microsoft.com/visio/2003/SVGExtensions/" width="30.6989in" height="9.94227in"
		viewBox="0 0 2210.32 715.844" xml:space="preserve" color-interpolation-filters="sRGB" class="st12">
	<v:documentProperties v:langID="1033" v:viewMarkup="false">
		<v:userDefs>
			<v:ud v:nameU="msvSubprocessMaster" v:prompt="" v:val="VT4(Rectangle)"/>
			<v:ud v:nameU="msvNoAutoConnect" v:val="VT0(1):26"/>
		</v:userDefs>
	</v:documentProperties>

	<style type="text/css">
	<![CDATA[
		.st1 {fill:none;stroke:none;stroke-width:0.25}
		.st2 {fill:#000000;font-family:Calibri;font-size:3.33334em}
		.st3 {fill:#75a4f5;stroke:#c7c8c8;stroke-width:0.25}
		.st4 {fill:none;stroke:#2b74ef;stroke-width:1.5}
		.st5 {stroke:#2b74ef;stroke-linecap:round;stroke-linejoin:round;stroke-width:1.5}
		.st6 {fill:#2b74ef;stroke:#2b74ef;stroke-width:0.25}
		.st7 {fill:#feffff;font-family:Calibri;font-size:1.99999em}
		.st8 {stroke:#03a587;stroke-linecap:round;stroke-linejoin:round;stroke-width:1.5}
		.st9 {fill:#7b67e1;stroke:#2b74ef;stroke-width:1.5}
		.st10 {fill:none;stroke:#2b74ef;stroke-width:0.25}
		.st11 {fill:#7b67e1;stroke:none;stroke-linecap:butt;stroke-width:0.75}
		.st12 {fill:none;fill-rule:evenodd;font-size:12px;overflow:visible;stroke-linecap:square;stroke-miterlimit:3}
	]]>
	</style>

	<g v:mID="0" v:index="1" v:groupContext="foregroundPage">
		<v:userDefs>
			<v:ud v:nameU="msvThemeOrder" v:val="VT0(0):26"/>
		</v:userDefs>
		<title>Instance Pooling</title>
		<v:pageProperties v:drawingScale="1" v:pageScale="1" v:drawingUnits="0" v:shadowOffsetX="9" v:shadowOffsetY="-9"/>
		<v:layer v:name="Connector" v:index="0"/>
		<g id="shape1141-1" v:mID="1141" v:groupContext="shape" transform="translate(619.16,-636.844)">
			<title>Sheet.1141</title>
			<desc>Broker Deployment Strategy: Instance Pooling</desc>
			<v:textBlock v:margins="rect(4,4,4,4)"/>
			<v:textRect cx="486" cy="685.469" width="972" height="60.75"/>
			<rect x="0" y="655.094" width="972" height="60.75" class="st1"/>
			<text x="111.41" y="697.47" class="st2" v:langID="1033"><v:paragraph v:horizAlign="1"/><v:tabList/>Broker Deployment Strategy: Instance Pooling</text>		</g>
		<g id="group1143-4" transform="translate(19.5,-19.5)" v:mID="1143" v:groupContext="group">
			<title>Sheet.1143</title>
			<g id="shape1061-5" v:mID="1061" v:groupContext="shape" transform="translate(1930.5,125.5) rotate(90)">
				<title>Rectangle.1061</title>
				<v:userDefs>
					<v:ud v:nameU="visVersion" v:val="VT0(15):26"/>
				</v:userDefs>
				<rect x="0" y="391.844" width="432" height="324" class="st3"/>
			</g>
			<g id="shape1062-7" v:mID="1062" v:groupContext="shape" transform="translate(2506.5,125.5) rotate(90)">
				<title>Rectangle.1062</title>
				<v:userDefs>
					<v:ud v:nameU="visVersion" v:val="VT0(15):26"/>
				</v:userDefs>
				<rect x="0" y="391.844" width="432" height="324" class="st3"/>
			</g>
			<g id="group1064-9" transform="translate(1264.75,-4.78126)" v:mID="1064" v:groupContext="group">
				<title>Sheet.1064</title>
				<g id="shape1065-10" v:mID="1065" v:groupContext="shape" transform="translate(0,-9.5625)">
					<title>Sheet.1065</title>
					<path d="M36 701.78 L0 715.84 L0 643.84 L36 657.34 L36 701.78 Z" class="st4"/>
				</g>
				<g id="shape1066-12" v:mID="1066" v:groupContext="shape" transform="translate(36.3649,1.13687E-13)">
					<title>Rectangle.1005</title>
					<v:userDefs>
						<v:ud v:nameU="visVersion" v:val="VT0(15):26"/>
					</v:userDefs>
					<rect x="0" y="624.719" width="112.5" height="91.125" class="st4"/>
				</g>
			</g>
			<g id="group1067-14" transform="translate(1840.75,-4.78126)" v:mID="1067" v:groupContext="group">
				<title>Sheet.1067</title>
				<g id="shape1068-15" v:mID="1068" v:groupContext="shape" transform="translate(0,-9.5625)">
					<title>Sheet.1068</title>
					<path d="M36 701.78 L0 715.84 L0 643.84 L36 657.34 L36 701.78 Z" class="st4"/>
				</g>
				<g id="shape1069-17" v:mID="1069" v:groupContext="shape" transform="translate(36.3649,1.13687E-13)">
					<title>Rectangle.1005</title>
					<v:userDefs>
						<v:ud v:nameU="visVersion" v:val="VT0(15):26"/>
					</v:userDefs>
					<rect x="0" y="624.719" width="112.5" height="91.125" class="st4"/>
				</g>
			</g>
			<g id="group1070-19" transform="translate(1664.89,-4.78126)" v:mID="1070" v:groupContext="group">
				<title>Sheet.1070</title>
				<g id="shape1071-20" v:mID="1071" v:groupContext="shape" transform="translate(0,-9.5625)">
					<title>Sheet.1071</title>
					<path d="M36 701.78 L0 715.84 L0 643.84 L36 657.34 L36 701.78 Z" class="st4"/>
				</g>
				<g id="shape1072-22" v:mID="1072" v:groupContext="shape" transform="translate(36.3649,1.13687E-13)">
					<title>Rectangle.1005</title>
					<v:userDefs>
						<v:ud v:nameU="visVersion" v:val="VT0(15):26"/>
					</v:userDefs>
					<rect x="0" y="624.719" width="112.5" height="91.125" class="st4"/>
				</g>
			</g>
			<g id="group1073-24" transform="translate(1440.62,-4.78126)" v:mID="1073" v:groupContext="group">
				<title>Sheet.1073</title>
				<g id="shape1074-25" v:mID="1074" v:groupContext="shape" transform="translate(0,-9.5625)">
					<title>Sheet.1074</title>
					<path d="M36 701.78 L0 715.84 L0 643.84 L36 657.34 L36 701.78 Z" class="st4"/>
				</g>
				<g id="shape1075-27" v:mID="1075" v:groupContext="shape" transform="translate(36.3649,1.13687E-13)">
					<title>Rectangle.1005</title>
					<v:userDefs>
						<v:ud v:nameU="visVersion" v:val="VT0(15):26"/>
					</v:userDefs>
					<rect x="0" y="624.719" width="112.5" height="91.125" class="st4"/>
				</g>
			</g>
			<g id="group1076-29" transform="translate(1088.89,-4.78126)" v:mID="1076" v:groupContext="group">
				<title>Sheet.1076</title>
				<g id="shape1077-30" v:mID="1077" v:groupContext="shape" transform="translate(0,-9.5625)">
					<title>Sheet.1077</title>
					<path d="M36 701.78 L0 715.84 L0 643.84 L36 657.34 L36 701.78 Z" class="st4"/>
				</g>
				<g id="shape1078-32" v:mID="1078" v:groupContext="shape" transform="translate(36.3649,1.13687E-13)">
					<title>Rectangle.1005</title>
					<v:userDefs>
						<v:ud v:nameU="visVersion" v:val="VT0(15):26"/>
					</v:userDefs>
					<rect x="0" y="624.719" width="112.5" height="91.125" class="st4"/>
				</g>
			</g>
			<g id="shape1080-34" v:mID="1080" v:groupContext="shape" transform="translate(2073.02,584.779) rotate(89.6621)">
				<title>Sheet.1080</title>
				<path d="M0 715.84 L30.94 715.84" class="st5"/>
			</g>
			<g id="shape1081-37" v:mID="1081" v:groupContext="shape" transform="translate(2249.09,589.351) rotate(90.0281)">
				<title>Sheet.1081</title>
				<path d="M0 715.84 L30.94 715.84" class="st5"/>
			</g>
			<g id="shape1082-40" v:mID="1082" v:groupContext="shape" transform="translate(2473.52,593.221) rotate(90.3379)">
				<title>Sheet.1082</title>
				<path d="M0 715.84 L30.94 715.84" class="st5"/>
			</g>
			<g id="shape1083-43" v:mID="1083" v:groupContext="shape" transform="translate(1293.41,-329.344)">
				<title>Rectangle.1083</title>
				<desc>Broker</desc>
				<v:userDefs>
					<v:ud v:nameU="visVersion" v:val="VT0(15):26"/>
				</v:userDefs>
				<v:textBlock v:margins="rect(4,4,4,4)"/>
				<v:textRect cx="83.25" cy="670.844" width="166.5" height="90"/>
				<rect x="0" y="625.844" width="166.5" height="90" class="st6"/>
				<text x="50.6" y="678.04" class="st7" v:langID="1033"><v:paragraph v:horizAlign="1"/><v:tabList/>Broker</text>			</g>
			<g id="shape1084-46" v:mID="1084" v:groupContext="shape" v:layerMember="0" transform="translate(1376.66,-329.344)">
				<title>Dynamic connector.1084</title>
				<path d="M0 715.84 L-195.16 994.84" class="st8"/>
			</g>
			<g id="shape1085-49" v:mID="1085" v:groupContext="shape" v:layerMember="0" transform="translate(1357.37,-50.3438)">
				<title>Dynamic connector.1085</title>
				<path d="M0 715.84 L19.29 436.84" class="st8"/>
			</g>
			<g id="shape1086-52" v:mID="1086" v:groupContext="shape" v:layerMember="0" transform="translate(1533.23,-50.3438)">
				<title>Dynamic connector.1086</title>
				<path d="M0 715.84 L-156.57 436.84" class="st8"/>
			</g>
			<g id="shape1087-55" v:mID="1087" v:groupContext="shape" transform="translate(2575.38,910.565) rotate(119.552)">
				<title>Sheet.1087</title>
				<path d="M0 715.84 L39.45 715.84" class="st5"/>
			</g>
			<g id="shape1088-58" v:mID="1088" v:groupContext="shape" transform="translate(743.919,220.721) rotate(-59.0381)">
				<title>Sheet.1088</title>
				<path d="M0 715.84 L36.73 715.84" class="st5"/>
			</g>
			<g id="group1089-61" transform="translate(2022.45,-4.78126)" v:mID="1089" v:groupContext="group">
				<title>Sheet.1089</title>
				<g id="shape1090-62" v:mID="1090" v:groupContext="shape" transform="translate(0,-9.5625)">
					<title>Sheet.1090</title>
					<path d="M36 701.78 L0 715.84 L0 643.84 L36 657.34 L36 701.78 Z" class="st9"/>
				</g>
				<g id="shape1091-64" v:mID="1091" v:groupContext="shape" transform="translate(36.3649,1.13687E-13)">
					<title>Rectangle.1005</title>
					<v:userDefs>
						<v:ud v:nameU="visVersion" v:val="VT0(15):26"/>
					</v:userDefs>
					<rect x="0" y="624.719" width="112.5" height="91.125" class="st9"/>
				</g>
			</g>
			<g id="shape1093-66" v:mID="1093" v:groupContext="shape" v:layerMember="0" transform="translate(2123.98,-95.9063)">
				<title>Dynamic connector.1093</title>
				<path d="M-8.91 715.84 L-9.09 684.91" class="st5"/>
			</g>
			<g id="shape1094-69" v:mID="1094" v:groupContext="shape" transform="translate(1869.41,-351.844)">
				<title>Rectangle.1094</title>
				<desc>Broker</desc>
				<v:userDefs>
					<v:ud v:nameU="visVersion" v:val="VT0(15):26"/>
				</v:userDefs>
				<v:textBlock v:margins="rect(4,4,4,4)"/>
				<v:textRect cx="83.25" cy="670.844" width="166.5" height="90"/>
				<rect x="0" y="625.844" width="166.5" height="90" class="st6"/>
				<text x="50.6" y="678.04" class="st7" v:langID="1033"><v:paragraph v:horizAlign="1"/><v:tabList/>Broker</text>			</g>
			<g id="shape1095-72" v:mID="1095" v:groupContext="shape" v:layerMember="0" transform="translate(2115.07,-50.3438)">
				<title>Dynamic connector.1095</title>
				<path d="M0 715.84 L-162.41 414.34" class="st8"/>
			</g>
			<g id="shape1096-75" v:mID="1096" v:groupContext="shape" v:layerMember="0" transform="translate(1933.37,-50.3438)">
				<title>Dynamic connector.1096</title>
				<path d="M0 715.84 L19.29 414.34" class="st8"/>
			</g>
			<g id="shape1097-78" v:mID="1097" v:groupContext="shape" v:layerMember="0" transform="translate(1952.66,-351.844)">
				<title>Dynamic connector.1097</title>
				<path d="M0 715.84 L-195.16 1017.34" class="st8"/>
			</g>
			<g id="shape1098-81" v:mID="1098" v:groupContext="shape" transform="translate(1217.55,613.858) rotate(-89.5134)">
				<title>Sheet.1098</title>
				<path d="M0 715.84 L28.84 715.84" class="st5"/>
			</g>
			<g id="shape1099-84" v:mID="1099" v:groupContext="shape" v:layerMember="0" transform="translate(2114.89,-135.844)">
				<title>Dynamic connector.1099</title>
				<path d="M0 724.84 L-38.03 724.84 A3 3 -180 1 0 -44.03 724.84 L-173.62 724.84 A3 3 -180 1 0 -179.62 724.84 L-304.87
							 724.84 A3 3 -180 1 0 -310.87 724.84 L-621.59 724.84 A3 3 -180 1 0 -627.59 724.84 L-749.23 724.84 A3
							 3 -180 0 0 -755.23 724.84 L-876.87 724.84 A3 3 -180 1 0 -882.87 724.84 L-931.5 724.84" class="st5"/>
			</g>
			<g id="shape1100-87" v:mID="1100" v:groupContext="shape" transform="translate(465.658,619.938) rotate(-90)">
				<title>Sheet.1100</title>
				<path d="M0 715.84 L30.94 715.84" class="st5"/>
			</g>
			<g id="group1139-90" v:mID="1139" v:groupContext="group">
				<title>Sheet.1139</title>
				<g id="shape1101-91" v:mID="1101" v:groupContext="shape" transform="translate(841.617,130.281) rotate(90)">
					<title>Rectangle.1101</title>
					<v:userDefs>
						<v:ud v:nameU="visVersion" v:val="VT0(15):26"/>
					</v:userDefs>
					<rect x="0" y="391.844" width="432" height="324" class="st3"/>
				</g>
				<g id="shape1102-93" v:mID="1102" v:groupContext="shape" transform="translate(1417.62,130.281) rotate(90)">
					<title>Rectangle.1102</title>
					<v:userDefs>
						<v:ud v:nameU="visVersion" v:val="VT0(15):26"/>
					</v:userDefs>
					<rect x="0" y="391.844" width="432" height="324" class="st3"/>
				</g>
				<g id="group1103-95" transform="translate(175.865,1.13687E-13)" v:mID="1103" v:groupContext="group">
					<title>Sheet.1103</title>
					<g id="shape1104-96" v:mID="1104" v:groupContext="shape" transform="translate(0,-9.5625)">
						<title>Sheet.1104</title>
						<path d="M36 701.78 L0 715.84 L0 643.84 L36 657.34 L36 701.78 Z" class="st4"/>
					</g>
					<g id="shape1105-98" v:mID="1105" v:groupContext="shape" transform="translate(36.3649,1.13687E-13)">
						<title>Rectangle.1005</title>
						<v:userDefs>
							<v:ud v:nameU="visVersion" v:val="VT0(15):26"/>
						</v:userDefs>
						<rect x="0" y="624.719" width="112.5" height="91.125" class="st4"/>
					</g>
				</g>
				<g id="group1106-100" transform="translate(751.865,1.13687E-13)" v:mID="1106" v:groupContext="group">
					<title>Sheet.1106</title>
					<g id="shape1107-101" v:mID="1107" v:groupContext="shape" transform="translate(0,-9.5625)">
						<title>Sheet.1107</title>
						<path d="M36 701.78 L0 715.84 L0 643.84 L36 657.34 L36 701.78 Z" class="st4"/>
					</g>
					<g id="shape1108-103" v:mID="1108" v:groupContext="shape" transform="translate(36.3649,1.13687E-13)">
						<title>Rectangle.1005</title>
						<v:userDefs>
							<v:ud v:nameU="visVersion" v:val="VT0(15):26"/>
						</v:userDefs>
						<rect x="0" y="624.719" width="112.5" height="91.125" class="st4"/>
					</g>
				</g>
				<g id="group1109-105" transform="translate(576,1.13687E-13)" v:mID="1109" v:groupContext="group">
					<title>Sheet.1109</title>
					<g id="shape1110-106" v:mID="1110" v:groupContext="shape" transform="translate(0,-9.5625)">
						<title>Sheet.1110</title>
						<path d="M36 701.78 L0 715.84 L0 643.84 L36 657.34 L36 701.78 Z" class="st4"/>
					</g>
					<g id="shape1111-108" v:mID="1111" v:groupContext="shape" transform="translate(36.3649,1.13687E-13)">
						<title>Rectangle.1005</title>
						<v:userDefs>
							<v:ud v:nameU="visVersion" v:val="VT0(15):26"/>
						</v:userDefs>
						<rect x="0" y="624.719" width="112.5" height="91.125" class="st4"/>
					</g>
				</g>
				<g id="group1112-110" transform="translate(351.73,1.13687E-13)" v:mID="1112" v:groupContext="group">
					<title>Sheet.1112</title>
					<g id="shape1113-111" v:mID="1113" v:groupContext="shape" transform="translate(0,-9.5625)">
						<title>Sheet.1113</title>
						<path d="M36 701.78 L0 715.84 L0 643.84 L36 657.34 L36 701.78 Z" class="st4"/>
					</g>
					<g id="shape1114-113" v:mID="1114" v:groupContext="shape" transform="translate(36.3649,1.13687E-13)">
						<title>Rectangle.1005</title>
						<v:userDefs>
							<v:ud v:nameU="visVersion" v:val="VT0(15):26"/>
						</v:userDefs>
						<rect x="0" y="624.719" width="112.5" height="91.125" class="st4"/>
					</g>
				</g>
				<g id="group1115-115" v:mID="1115" v:groupContext="group">
					<title>Sheet.1115</title>
					<g id="shape1116-116" v:mID="1116" v:groupContext="shape" transform="translate(0,-9.5625)">
						<title>Sheet.1116</title>
						<path d="M36 701.78 L0 715.84 L0 643.84 L36 657.34 L36 701.78 Z" class="st4"/>
					</g>
					<g id="shape1117-118" v:mID="1117" v:groupContext="shape" transform="translate(36.3649,1.13687E-13)">
						<title>Rectangle.1005</title>
						<v:userDefs>
							<v:ud v:nameU="visVersion" v:val="VT0(15):26"/>
						</v:userDefs>
						<rect x="0" y="624.719" width="112.5" height="91.125" class="st4"/>
					</g>
				</g>
				<g id="shape1118-120" v:mID="1118" v:groupContext="shape" transform="translate(984.129,589.56) rotate(89.6621)">
					<title>Sheet.1118</title>
					<path d="M0 715.84 L30.94 715.84" class="st5"/>
				</g>
				<g id="shape1119-123" v:mID="1119" v:groupContext="shape" transform="translate(1160.2,594.133) rotate(90.0281)">
					<title>Sheet.1119</title>
					<path d="M0 715.84 L30.94 715.84" class="st5"/>
				</g>
				<g id="shape1120-126" v:mID="1120" v:groupContext="shape" transform="translate(1384.63,598.003) rotate(90.3379)">
					<title>Sheet.1120</title>
					<path d="M0 715.84 L30.94 715.84" class="st5"/>
				</g>
				<g id="shape1121-129" v:mID="1121" v:groupContext="shape" transform="translate(204.524,-324.563)">
					<title>Rectangle.1121</title>
					<desc>Broker</desc>
					<v:userDefs>
						<v:ud v:nameU="visVersion" v:val="VT0(15):26"/>
					</v:userDefs>
					<v:textBlock v:margins="rect(4,4,4,4)"/>
					<v:textRect cx="83.25" cy="670.844" width="166.5" height="90"/>
					<rect x="0" y="625.844" width="166.5" height="90" class="st6"/>
					<text x="50.6" y="678.04" class="st7" v:langID="1033"><v:paragraph v:horizAlign="1"/><v:tabList/>Broker</text>				</g>
				<g id="shape1122-132" v:mID="1122" v:groupContext="shape" v:layerMember="0" transform="translate(287.774,-324.563)">
					<title>Dynamic connector.1122</title>
					<path d="M0 715.84 L-195.16 994.84" class="st8"/>
				</g>
				<g id="shape1123-135" v:mID="1123" v:groupContext="shape" v:layerMember="0" transform="translate(268.48,-45.5625)">
					<title>Dynamic connector.1123</title>
					<path d="M0 715.84 L19.29 436.84" class="st8"/>
				</g>
				<g id="shape1124-138" v:mID="1124" v:groupContext="shape" v:layerMember="0" transform="translate(444.345,-45.5625)">
					<title>Dynamic connector.1124</title>
					<path d="M0 715.84 L-156.57 436.84" class="st8"/>
				</g>
				<g id="shape1125-141" v:mID="1125" v:groupContext="shape" transform="translate(1486.49,915.346) rotate(119.552)">
					<title>Sheet.1125</title>
					<path d="M0 715.84 L39.45 715.84" class="st5"/>
				</g>
				<g id="shape1126-144" v:mID="1126" v:groupContext="shape" transform="translate(-344.968,225.502) rotate(-59.0381)">
					<title>Sheet.1126</title>
					<path d="M0 715.84 L36.73 715.84" class="st5"/>
				</g>
				<g id="shape1130-147" v:mID="1130" v:groupContext="shape" v:layerMember="0" transform="translate(853.816,-89.0274)">
					<title>Dynamic connector.1130</title>
					<path d="M-8.91 715.84 L-9.09 684.91" class="st5"/>
				</g>
				<g id="shape1135-150" v:mID="1135" v:groupContext="shape" transform="translate(128.662,618.639) rotate(-89.5134)">
					<title>Sheet.1135</title>
					<path d="M0 715.84 L28.84 715.84" class="st5"/>
				</g>
				<g id="shape1136-153" v:mID="1136" v:groupContext="shape" v:layerMember="0" transform="translate(844.725,-112.014)">
					<title>Dynamic connector.1136</title>
					<path d="M0 707.89 L-439.13 707.89 A3 3 -180 0 0 -445.13 707.89 L-568.1 707.89 A3 3 -180 0 0 -574.1 707.89 L-697.07
								 707.89 A3 3 -180 0 0 -703.07 707.89 L-750.22 707.89 L-750.22 705.79" class="st5"/>
				</g>
				<g id="shape1137-156" v:mID="1137" v:groupContext="shape" transform="translate(-623.229,624.719) rotate(-90)">
					<title>Sheet.1137</title>
					<path d="M0 715.84 L30.94 715.84" class="st5"/>
				</g>
			</g>
			<g id="shape1140-159" v:mID="1140" v:groupContext="shape" transform="translate(769.5,-328.781)">
				<title>Rectangle.1140</title>
				<desc>Broker ?</desc>
				<v:userDefs>
					<v:ud v:nameU="visVersion" v:val="VT0(15):26"/>
				</v:userDefs>
				<v:textBlock v:margins="rect(4,4,4,4)"/>
				<v:textRect cx="83.25" cy="670.844" width="166.5" height="90"/>
				<rect x="0" y="625.844" width="166.5" height="90" class="st10"/>
				<text x="42.33" y="678.04" class="st7" v:langID="1033"><v:paragraph v:horizAlign="1"/><v:tabList/>Broker ?</text>			</g>
			<g id="shape1142-162" v:mID="1142" v:groupContext="shape" transform="translate(1057.16,-318.201)">
				<title>Forward.1142</title>
				<v:userDefs>
					<v:ud v:nameU="msvShapeCategories" v:prompt="" v:val="VT4(Icon)"/>
					<v:ud v:nameU="visVersion" v:prompt="" v:val="VT0(15):26"/>
				</v:userDefs>
				<path d="M0 625.3 L0 685.66 L60.36 685.66 L60.36 715.84 L132.8 655.59 L60.36 595.12 L60.36 625.3 L0 625.3 Z"
						class="st11"/>
			</g>
		</g>
	</g>
</svg>
