<?xml version="1.0" encoding="UTF-8" standalone="no"?>
<!DOCTYPE svg PUBLIC "-//W3C//DTD SVG 1.1//EN" "http://www.w3.org/Graphics/SVG/1.1/DTD/svg11.dtd">
<!-- Generated by Microsoft Visio, SVG Export opcua-certificates-diagram.svg opcua-demo-certificates -->
<svg xmlns="http://www.w3.org/2000/svg" xmlns:xlink="http://www.w3.org/1999/xlink" xmlns:ev="http://www.w3.org/2001/xml-events"
		xmlns:v="http://schemas.microsoft.com/visio/2003/SVGExtensions/" width="15.2569in" height="3.69661in"
		viewBox="0 0 1098.5 266.156" xml:space="preserve" color-interpolation-filters="sRGB" class="st21">
	<v:documentProperties v:langID="1033" v:viewMarkup="false">
		<v:userDefs>
			<v:ud v:nameU="msvSubprocessMaster" v:prompt="" v:val="VT4(Rectangle)"/>
			<v:ud v:nameU="msvNoAutoConnect" v:val="VT0(1):26"/>
		</v:userDefs>
	</v:documentProperties>

	<style type="text/css">
	<![CDATA[
		.st1 {fill:#444a6d;stroke:#c7c8c8;stroke-width:0.25}
		.st2 {fill:#feffff;font-family:Calibri;font-size:0.833336em}
		.st3 {fill:#a092e8}
		.st4 {stroke:#3c63ac;stroke-width:0.75}
		.st5 {fill:#f4f8fd;font-family:Calibri;font-size:0.833336em}
		.st6 {font-size:1em}
		.st7 {fill:#7b66df;stroke:#3c63ac;stroke-width:0.75}
		.st8 {marker-end:url(#mrkr4-75);stroke:#4672c4;stroke-linecap:round;stroke-linejoin:round;stroke-width:1}
		.st9 {fill:#4672c4;fill-opacity:1;stroke:#4672c4;stroke-opacity:1;stroke-width:0.28409090909091}
		.st10 {fill:#ffffff;stroke:none;stroke-linecap:butt;stroke-width:7.2}
		.st11 {fill:#3c63ac;font-family:Calibri;font-size:0.666664em}
		.st12 {fill:#7b67e1;stroke:#c7c8c8;stroke-width:0.25}
		.st13 {fill:#2b74ef;stroke:#c7c8c8;stroke-width:0.25}
		.st14 {fill:#75a4f5;stroke:#c7c8c8;stroke-width:0.25}
		.st15 {fill:#78ffc9;stroke:#c7c8c8;stroke-width:0.25}
		.st16 {marker-end:url(#mrkr4-143);stroke:#f4f8fd;stroke-linecap:round;stroke-linejoin:round;stroke-width:1}
		.st17 {fill:#f4f8fd;fill-opacity:1;stroke:#f4f8fd;stroke-opacity:1;stroke-width:0.28409090909091}
		.st18 {fill:#444a6d;font-family:Calibri;font-size:0.666664em}
		.st19 {fill:#03a587;stroke:none;stroke-width:0.25}
		.st20 {fill:#ffffff;font-family:Calibri;font-size:0.666664em;font-weight:bold}
		.st21 {fill:none;fill-rule:evenodd;font-size:12px;overflow:visible;stroke-linecap:square;stroke-miterlimit:3}
	]]>
	</style>

	<defs id="Markers">
		<g id="lend4">
			<path d="M 2 1 L 0 0 L 2 -1 L 2 1 " style="stroke:none"/>
		</g>
		<marker id="mrkr4-75" class="st9" v:arrowType="4" v:arrowSize="2" v:setback="7.04" refX="-7.04" orient="auto"
				markerUnits="strokeWidth" overflow="visible">
			<use xlink:href="#lend4" transform="scale(-3.52,-3.52) "/>
		</marker>
		<marker id="mrkr4-143" class="st17" v:arrowType="4" v:arrowSize="2" v:setback="7.04" refX="-7.04" orient="auto"
				markerUnits="strokeWidth" overflow="visible">
			<use xlink:href="#lend4" transform="scale(-3.52,-3.52) "/>
		</marker>
	</defs>
	<g v:mID="15" v:index="7" v:groupContext="foregroundPage">
		<v:userDefs>
			<v:ud v:nameU="msvThemeOrder" v:val="VT0(0):26"/>
		</v:userDefs>
		<title>opcua-demo-certificates</title>
		<v:pageProperties v:drawingScale="1" v:pageScale="1" v:drawingUnits="0" v:shadowOffsetX="9" v:shadowOffsetY="-9"/>
		<v:layer v:name="Connector" v:index="0"/>
		<v:layer v:name="Flowchart" v:index="1"/>
		<v:layer v:name="Azure" v:index="2"/>
		<g id="shape1000-1" v:mID="1000" v:groupContext="shape" transform="translate(436.952,-18.25)">
			<title>Square.1030</title>
			<desc>opcua-broker-credentials Kubernetes Secret</desc>
			<v:userDefs>
				<v:ud v:nameU="visVersion" v:val="VT0(15):26"/>
			</v:userDefs>
			<v:textBlock v:margins="rect(4,4,4,4)" v:verticalAlign="0"/>
			<v:textRect cx="94.5" cy="171.656" width="189" height="189"/>
			<rect x="0" y="77.1562" width="189" height="189" class="st1"/>
			<text x="4.74" y="90.16" class="st2" v:langID="1033"><v:paragraph v:horizAlign="1"/><v:tabList/>opcua-broker-credentials Kubernetes Secret</text>		</g>
		<g id="group1001-4" transform="translate(252.094,89.712) rotate(-90) scale(-1,1)" v:mID="1001" v:groupContext="group">
			<v:userDefs>
				<v:ud v:nameU="ScrollDia" v:prompt="" v:val="VT0(0.15625):1"/>
				<v:ud v:nameU="visVersion" v:prompt="" v:val="VT0(15):26"/>
				<v:ud v:nameU="ScrollDia" v:prompt="" v:val="VT0(0.11718749912688):1"/>
			</v:userDefs>
			<title>Horizontal Scroll.1032</title>
			<desc>AkriBroker.der</desc>
			<g id="shape1001-5" v:mID="1001" v:groupContext="groupContent">
				<v:textBlock v:margins="rect(4,4,4,4)"/>
				<v:textRect cx="27" cy="236.625" width="59.07" height="37.125" transform="rotate(90)"/>
				<path d="M8.44 257.72 L4.22 257.72 A4.21875 4.21875 -180 1 0 4.22 266.16 L41.34 266.16 A4.21741 4.21741 -180 0 0
							 45.56 261.94 L45.56 207.09 L49.78 207.09 A4.21875 4.21875 -180 0 0 49.78 198.66 L12.66 198.66 A4.21741
							 4.21741 -180 0 0 8.44 202.87 L8.44 257.72 Z" class="st3"/>
				<path d="M8.44 257.72 L4.22 257.72 A4.21875 4.21875 -180 1 0 4.22 266.16 L41.34 266.16 A4.21741 4.21741 -180 0 0
							 45.56 261.94 L45.56 207.09 L49.78 207.09 A4.21875 4.21875 -180 0 0 49.78 198.66 L12.66 198.66 A4.21741
							 4.21741 -180 0 0 8.44 202.87 L8.44 257.72" class="st4"/>
				<path d="M8.44 257.72 L8.44 261.94" class="st4"/>
				<path d="M12.66 207.09 L49.78 207.09" class="st4"/>
				<path d="M16.87 202.87 A4.21741 4.21741 -180 0 0 12.66 198.66" class="st4"/>
				<text x="211.32" y="24" transform="rotate(-90) scale(-1,1)" class="st5" v:langID="1033"><v:paragraph
							v:horizAlign="1"/><v:tabList/>AkriBroker<tspan x="228.51" dy="1.2em" class="st6">.der</tspan></text>			</g>
			<g id="shape1002-13" v:mID="1002" v:groupContext="shape">
				<title>Sheet.1002</title>
				<v:userDefs>
					<v:ud v:nameU="ScrollDia" v:prompt="" v:val="VT0(0.15625):1"/>
					<v:ud v:nameU="FillForegnd" v:prompt="" v:val="VT0(1):26"/>
					<v:ud v:nameU="ScrollDia" v:prompt="" v:val="VT0(0.11718749912688):1"/>
					<v:ud v:nameU="FillForegnd" v:prompt="" v:val="VT5(#a092e8)"/>
				</v:userDefs>
				<path d="M8.44 261.94 L4.22 261.94 A2.10937 2.10937 -180 0 0 4.22 257.72 A4.21875 4.21875 -180 1 0 4.22 266.16 A4.21741
							 4.21741 -180 0 0 8.44 261.94 ZM16.87 202.87 L12.66 202.87 A2.10937 2.10937 -180 1 0 12.66 207.09 A4.21741
							 4.21741 -180 0 0 16.87 202.87 Z" class="st7"/>
			</g>
		</g>
		<g id="group1003-15" transform="translate(347.594,89.712) rotate(-90) scale(-1,1)" v:mID="1003" v:groupContext="group">
			<v:userDefs>
				<v:ud v:nameU="ScrollDia" v:prompt="" v:val="VT0(0.15625):1"/>
				<v:ud v:nameU="visVersion" v:prompt="" v:val="VT0(15):26"/>
				<v:ud v:nameU="ScrollDia" v:prompt="" v:val="VT0(0.11718749912688):1"/>
			</v:userDefs>
			<title>Horizontal Scroll.1034</title>
			<desc>AkriBroker.pfx</desc>
			<g id="shape1003-16" v:mID="1003" v:groupContext="groupContent">
				<v:textBlock v:margins="rect(4,4,4,4)"/>
				<v:textRect cx="27" cy="236.625" width="59.07" height="37.125" transform="rotate(90)"/>
				<path d="M8.44 257.72 L4.22 257.72 A4.21875 4.21875 -180 1 0 4.22 266.16 L41.34 266.16 A4.21741 4.21741 -180 0 0
							 45.56 261.94 L45.56 207.09 L49.78 207.09 A4.21875 4.21875 -180 0 0 49.78 198.66 L12.66 198.66 A4.21741
							 4.21741 -180 0 0 8.44 202.87 L8.44 257.72 Z" class="st3"/>
				<path d="M8.44 257.72 L4.22 257.72 A4.21875 4.21875 -180 1 0 4.22 266.16 L41.34 266.16 A4.21741 4.21741 -180 0 0
							 45.56 261.94 L45.56 207.09 L49.78 207.09 A4.21875 4.21875 -180 0 0 49.78 198.66 L12.66 198.66 A4.21741
							 4.21741 -180 0 0 8.44 202.87 L8.44 257.72" class="st4"/>
				<path d="M8.44 257.72 L8.44 261.94" class="st4"/>
				<path d="M12.66 207.09 L49.78 207.09" class="st4"/>
				<path d="M16.87 202.87 A4.21741 4.21741 -180 0 0 12.66 198.66" class="st4"/>
				<text x="211.32" y="24" transform="rotate(-90) scale(-1,1)" class="st5" v:langID="1033"><v:paragraph
							v:horizAlign="1"/><v:tabList/>AkriBroker<tspan x="229.04" dy="1.2em" class="st6">.pfx</tspan></text>			</g>
			<g id="shape1004-24" v:mID="1004" v:groupContext="shape">
				<title>Sheet.1004</title>
				<v:userDefs>
					<v:ud v:nameU="ScrollDia" v:prompt="" v:val="VT0(0.15625):1"/>
					<v:ud v:nameU="FillForegnd" v:prompt="" v:val="VT0(1):26"/>
					<v:ud v:nameU="ScrollDia" v:prompt="" v:val="VT0(0.11718749912688):1"/>
					<v:ud v:nameU="FillForegnd" v:prompt="" v:val="VT5(#a092e8)"/>
				</v:userDefs>
				<path d="M8.44 261.94 L4.22 261.94 A2.10937 2.10937 -180 0 0 4.22 257.72 A4.21875 4.21875 -180 1 0 4.22 266.16 A4.21741
							 4.21741 -180 0 0 8.44 261.94 ZM16.87 202.87 L12.66 202.87 A2.10937 2.10937 -180 1 0 12.66 207.09 A4.21741
							 4.21741 -180 0 0 16.87 202.87 Z" class="st7"/>
			</g>
		</g>
		<g id="group1005-26" transform="translate(251.594,172.962) rotate(-90) scale(-1,1)" v:mID="1005" v:groupContext="group">
			<v:userDefs>
				<v:ud v:nameU="ScrollDia" v:prompt="" v:val="VT0(0.15625):1"/>
				<v:ud v:nameU="visVersion" v:prompt="" v:val="VT0(15):26"/>
				<v:ud v:nameU="ScrollDia" v:prompt="" v:val="VT0(0.11718749912688):1"/>
			</v:userDefs>
			<title>Horizontal Scroll.1036</title>
			<desc>SomeCA.der</desc>
			<g id="shape1005-27" v:mID="1005" v:groupContext="groupContent">
				<v:textBlock v:margins="rect(4,4,4,4)"/>
				<v:textRect cx="27" cy="236.625" width="59.07" height="37.125" transform="rotate(90)"/>
				<path d="M8.44 257.72 L4.22 257.72 A4.21875 4.21875 -180 1 0 4.22 266.16 L41.34 266.16 A4.21741 4.21741 -180 0 0
							 45.56 261.94 L45.56 207.09 L49.78 207.09 A4.21875 4.21875 -180 0 0 49.78 198.66 L12.66 198.66 A4.21741
							 4.21741 -180 0 0 8.44 202.87 L8.44 257.72 Z" class="st3"/>
				<path d="M8.44 257.72 L4.22 257.72 A4.21875 4.21875 -180 1 0 4.22 266.16 L41.34 266.16 A4.21741 4.21741 -180 0 0
							 45.56 261.94 L45.56 207.09 L49.78 207.09 A4.21875 4.21875 -180 0 0 49.78 198.66 L12.66 198.66 A4.21741
							 4.21741 -180 0 0 8.44 202.87 L8.44 257.72" class="st4"/>
				<path d="M8.44 257.72 L8.44 261.94" class="st4"/>
				<path d="M12.66 207.09 L49.78 207.09" class="st4"/>
				<path d="M16.87 202.87 A4.21741 4.21741 -180 0 0 12.66 198.66" class="st4"/>
				<text x="211.53" y="30" transform="rotate(-90) scale(-1,1)" class="st5" v:langID="1033"><v:paragraph
							v:horizAlign="1"/><v:tabList/>SomeCA.der</text>			</g>
			<g id="shape1006-34" v:mID="1006" v:groupContext="shape">
				<title>Sheet.1006</title>
				<v:userDefs>
					<v:ud v:nameU="ScrollDia" v:prompt="" v:val="VT0(0.15625):1"/>
					<v:ud v:nameU="FillForegnd" v:prompt="" v:val="VT0(1):26"/>
					<v:ud v:nameU="ScrollDia" v:prompt="" v:val="VT0(0.11718749912688):1"/>
					<v:ud v:nameU="FillForegnd" v:prompt="" v:val="VT5(#a092e8)"/>
				</v:userDefs>
				<path d="M8.44 261.94 L4.22 261.94 A2.10937 2.10937 -180 0 0 4.22 257.72 A4.21875 4.21875 -180 1 0 4.22 266.16 A4.21741
							 4.21741 -180 0 0 8.44 261.94 ZM16.87 202.87 L12.66 202.87 A2.10937 2.10937 -180 1 0 12.66 207.09 A4.21741
							 4.21741 -180 0 0 16.87 202.87 Z" class="st7"/>
			</g>
		</g>
		<g id="group1007-36" transform="translate(346.094,170.712) rotate(-90) scale(-1,1)" v:mID="1007" v:groupContext="group">
			<v:userDefs>
				<v:ud v:nameU="ScrollDia" v:prompt="" v:val="VT0(0.15625):1"/>
				<v:ud v:nameU="visVersion" v:prompt="" v:val="VT0(15):26"/>
				<v:ud v:nameU="ScrollDia" v:prompt="" v:val="VT0(0.11718749912688):1"/>
			</v:userDefs>
			<title>Horizontal Scroll.1038</title>
			<desc>SomeCA.crl</desc>
			<g id="shape1007-37" v:mID="1007" v:groupContext="groupContent">
				<v:textBlock v:margins="rect(4,4,4,4)"/>
				<v:textRect cx="27" cy="236.625" width="59.07" height="37.125" transform="rotate(90)"/>
				<path d="M8.44 257.72 L4.22 257.72 A4.21875 4.21875 -180 1 0 4.22 266.16 L41.34 266.16 A4.21741 4.21741 -180 0 0
							 45.56 261.94 L45.56 207.09 L49.78 207.09 A4.21875 4.21875 -180 0 0 49.78 198.66 L12.66 198.66 A4.21741
							 4.21741 -180 0 0 8.44 202.87 L8.44 257.72 Z" class="st3"/>
				<path d="M8.44 257.72 L4.22 257.72 A4.21875 4.21875 -180 1 0 4.22 266.16 L41.34 266.16 A4.21741 4.21741 -180 0 0
							 45.56 261.94 L45.56 207.09 L49.78 207.09 A4.21875 4.21875 -180 0 0 49.78 198.66 L12.66 198.66 A4.21741
							 4.21741 -180 0 0 8.44 202.87 L8.44 257.72" class="st4"/>
				<path d="M8.44 257.72 L8.44 261.94" class="st4"/>
				<path d="M12.66 207.09 L49.78 207.09" class="st4"/>
				<path d="M16.87 202.87 A4.21741 4.21741 -180 0 0 12.66 198.66" class="st4"/>
				<text x="213.38" y="30" transform="rotate(-90) scale(-1,1)" class="st5" v:langID="1033"><v:paragraph
							v:horizAlign="1"/><v:tabList/>SomeCA.crl</text>			</g>
			<g id="shape1008-44" v:mID="1008" v:groupContext="shape">
				<title>Sheet.1008</title>
				<v:userDefs>
					<v:ud v:nameU="ScrollDia" v:prompt="" v:val="VT0(0.15625):1"/>
					<v:ud v:nameU="FillForegnd" v:prompt="" v:val="VT0(1):26"/>
					<v:ud v:nameU="ScrollDia" v:prompt="" v:val="VT0(0.11718749912688):1"/>
					<v:ud v:nameU="FillForegnd" v:prompt="" v:val="VT5(#a092e8)"/>
				</v:userDefs>
				<path d="M8.44 261.94 L4.22 261.94 A2.10937 2.10937 -180 0 0 4.22 257.72 A4.21875 4.21875 -180 1 0 4.22 266.16 A4.21741
							 4.21741 -180 0 0 8.44 261.94 ZM16.87 202.87 L12.66 202.87 A2.10937 2.10937 -180 1 0 12.66 207.09 A4.21741
							 4.21741 -180 0 0 16.87 202.87 Z" class="st7"/>
			</g>
		</g>
		<g id="shape1009-46" v:mID="1009" v:groupContext="shape" transform="translate(18.25,-66.1942)">
			<title>Square.1023</title>
			<desc>Some Certificate Authority</desc>
			<v:userDefs>
				<v:ud v:nameU="visVersion" v:val="VT0(15):26"/>
			</v:userDefs>
			<v:textBlock v:margins="rect(4,4,4,4)" v:verticalAlign="0"/>
			<v:textRect cx="49.601" cy="216.555" width="99.21" height="99.2019"/>
			<rect x="0" y="166.954" width="99.2019" height="99.2019" class="st1"/>
			<text x="15.99" y="179.95" class="st5" v:langID="1033"><v:paragraph v:horizAlign="1"/><v:tabList/>Some Certificate <tspan
						x="30.31" dy="1.2em" class="st6">Authority</tspan></text>		</g>
		<g id="group1010-50" transform="translate(31.2957,69.462) rotate(-90) scale(-1,1)" v:mID="1010" v:groupContext="group">
			<v:userDefs>
				<v:ud v:nameU="ScrollDia" v:prompt="" v:val="VT0(0.15625):1"/>
				<v:ud v:nameU="visVersion" v:prompt="" v:val="VT0(15):26"/>
			</v:userDefs>
			<title>Horizontal Scroll.1019</title>
			<desc>SomeServer0.der</desc>
			<g id="shape1010-51" v:mID="1010" v:groupContext="groupContent">
				<v:textBlock v:margins="rect(4,4,4,4)"/>
				<v:textRect cx="36" cy="226.781" width="78.75" height="49.5" transform="rotate(90)"/>
				<path d="M11.25 254.91 L5.62 254.91 A5.625 5.625 -180 1 0 5.62 266.16 L55.12 266.16 A5.62321 5.62321 -180 0 0 60.75
							 260.53 L60.75 187.41 L66.37 187.41 A5.625 5.625 -180 0 0 66.37 176.16 L16.87 176.16 A5.62321 5.62321
							 -180 0 0 11.25 181.78 L11.25 254.91 Z" class="st3"/>
				<path d="M11.25 254.91 L5.62 254.91 A5.625 5.625 -180 1 0 5.62 266.16 L55.12 266.16 A5.62321 5.62321 -180 0 0 60.75
							 260.53 L60.75 187.41 L66.37 187.41 A5.625 5.625 -180 0 0 66.37 176.16 L16.87 176.16 A5.62321 5.62321
							 -180 0 0 11.25 181.78 L11.25 254.91" class="st4"/>
				<path d="M11.25 254.91 L11.25 260.53" class="st4"/>
				<path d="M16.87 187.41 L66.37 187.41" class="st4"/>
				<path d="M22.5 181.78 A5.62321 5.62321 -180 0 0 16.87 176.16" class="st4"/>
				<text x="191.69" y="39" transform="rotate(-90) scale(-1,1)" class="st5" v:langID="1033"><v:paragraph
							v:horizAlign="1"/><v:tabList/>SomeServer0.der</text>			</g>
			<g id="shape1011-58" v:mID="1011" v:groupContext="shape">
				<title>Sheet.1011</title>
				<v:userDefs>
					<v:ud v:nameU="ScrollDia" v:prompt="" v:val="VT0(0.15625):1"/>
					<v:ud v:nameU="FillForegnd" v:prompt="" v:val="VT0(1):26"/>
					<v:ud v:nameU="FillForegnd" v:prompt="" v:val="VT5(#a092e8)"/>
				</v:userDefs>
				<path d="M11.25 260.53 L5.62 260.53 A2.8125 2.8125 -180 0 0 5.62 254.91 A5.625 5.625 -180 1 0 5.62 266.16 A5.62321
							 5.62321 -180 0 0 11.25 260.53 ZM22.5 181.78 L16.87 181.78 A2.8125 2.8125 -180 1 0 16.87 187.41 A5.62321
							 5.62321 -180 0 0 22.5 181.78 Z" class="st7"/>
			</g>
		</g>
		<g id="group1012-60" transform="translate(31.2957,154.962) rotate(-90) scale(-1,1)" v:mID="1012" v:groupContext="group">
			<v:userDefs>
				<v:ud v:nameU="ScrollDia" v:prompt="" v:val="VT0(0.15625):1"/>
				<v:ud v:nameU="visVersion" v:prompt="" v:val="VT0(15):26"/>
			</v:userDefs>
			<title>Horizontal Scroll.1021</title>
			<desc>AkriBroker.der</desc>
			<g id="shape1012-61" v:mID="1012" v:groupContext="groupContent">
				<v:textBlock v:margins="rect(4,4,4,4)"/>
				<v:textRect cx="36" cy="226.781" width="78.75" height="49.5" transform="rotate(90)"/>
				<path d="M11.25 254.91 L5.62 254.91 A5.625 5.625 -180 1 0 5.62 266.16 L55.12 266.16 A5.62321 5.62321 -180 0 0 60.75
							 260.53 L60.75 187.41 L66.37 187.41 A5.625 5.625 -180 0 0 66.37 176.16 L16.87 176.16 A5.62321 5.62321
							 -180 0 0 11.25 181.78 L11.25 254.91 Z" class="st3"/>
				<path d="M11.25 254.91 L5.62 254.91 A5.625 5.625 -180 1 0 5.62 266.16 L55.12 266.16 A5.62321 5.62321 -180 0 0 60.75
							 260.53 L60.75 187.41 L66.37 187.41 A5.625 5.625 -180 0 0 66.37 176.16 L16.87 176.16 A5.62321 5.62321
							 -180 0 0 11.25 181.78 L11.25 254.91" class="st4"/>
				<path d="M11.25 254.91 L11.25 260.53" class="st4"/>
				<path d="M16.87 187.41 L66.37 187.41" class="st4"/>
				<path d="M22.5 181.78 A5.62321 5.62321 -180 0 0 16.87 176.16" class="st4"/>
				<text x="193.36" y="39" transform="rotate(-90) scale(-1,1)" class="st5" v:langID="1033"><v:paragraph
							v:horizAlign="1"/><v:tabList/>AkriBroker.der</text>			</g>
			<g id="shape1013-68" v:mID="1013" v:groupContext="shape">
				<title>Sheet.1013</title>
				<v:userDefs>
					<v:ud v:nameU="ScrollDia" v:prompt="" v:val="VT0(0.15625):1"/>
					<v:ud v:nameU="FillForegnd" v:prompt="" v:val="VT0(1):26"/>
					<v:ud v:nameU="FillForegnd" v:prompt="" v:val="VT5(#a092e8)"/>
				</v:userDefs>
				<path d="M11.25 260.53 L5.62 260.53 A2.8125 2.8125 -180 0 0 5.62 254.91 A5.625 5.625 -180 1 0 5.62 266.16 A5.62321
							 5.62321 -180 0 0 11.25 260.53 ZM22.5 181.78 L16.87 181.78 A2.8125 2.8125 -180 1 0 16.87 187.41 A5.62321
							 5.62321 -180 0 0 22.5 181.78 Z" class="st7"/>
			</g>
		</g>
		<g id="shape1014-70" v:mID="1014" v:groupContext="shape" v:layerMember="0" transform="translate(117.452,-147.064)">
			<title>Dynamic connector.1024</title>
			<desc>signs</desc>
			<v:textBlock v:margins="rect(4,4,4,4)"/>
			<v:textRect cx="45" cy="275.156" width="40" height="17.6036"/>
			<path d="M0 274.82 L82.96 275.44" class="st8"/>
			<rect v:rectContext="textBkgnd" x="36.9688" y="270.357" width="16.0623" height="9.59985" class="st10"/>
			<text x="36.97" y="277.56" class="st11" v:langID="1033"><v:paragraph v:horizAlign="1"/><v:tabList/>signs</text>		</g>
		<g id="shape1015-78" v:mID="1015" v:groupContext="shape" v:layerMember="0" transform="translate(117.452,-101.369)">
			<title>Dynamic connector.1025</title>
			<desc>signs</desc>
			<v:textBlock v:margins="rect(4,4,4,4)"/>
			<v:textRect cx="45" cy="279.244" width="40" height="17.6036"/>
			<path d="M0 266.16 L83.24 290.37" class="st8"/>
			<rect v:rectContext="textBkgnd" x="36.9688" y="274.444" width="16.0623" height="9.59985" class="st10"/>
			<text x="36.97" y="281.64" class="st11" v:langID="1033"><v:paragraph v:horizAlign="1"/><v:tabList/>signs</text>		</g>
		<g id="group1016-85" transform="translate(729.25,-25.75)" v:mID="1016" v:groupContext="group">
			<title>Sheet.1016</title>
			<g id="shape1017-86" v:mID="1017" v:groupContext="shape">
				<title>Rectangle.1048</title>
				<desc>OPC UA Monitoring Broker</desc>
				<v:userDefs>
					<v:ud v:nameU="visVersion" v:val="VT0(15):26"/>
				</v:userDefs>
				<v:textBlock v:margins="rect(4,4,4,4)" v:verticalAlign="0"/>
				<v:textRect cx="175.5" cy="182.156" width="351.01" height="168"/>
				<rect x="0" y="98.1562" width="351" height="168" class="st12"/>
				<text x="120.98" y="111.16" class="st2" v:langID="1033"><v:paragraph v:horizAlign="1"/><v:tabList/>OPC UA Monitoring Broker</text>			</g>
			<g id="shape1018-89" v:mID="1018" v:groupContext="shape" transform="translate(8.4375,-25.125)">
				<title>Square.17</title>
				<desc>OPC UA Client</desc>
				<v:userDefs>
					<v:ud v:nameU="visVersion" v:val="VT0(15):26"/>
				</v:userDefs>
				<v:textBlock v:margins="rect(4,4,4,4)" v:verticalAlign="0"/>
				<v:textRect cx="54.5625" cy="211.594" width="109.13" height="109.125"/>
				<rect x="0" y="157.031" width="109.125" height="109.125" class="st13"/>
				<text x="25.89" y="170.03" class="st2" v:langID="1033"><v:paragraph v:horizAlign="1"/><v:tabList/>OPC UA Client<v:newlineChar/></text>			</g>
			<g id="group1019-92" transform="translate(189.563,-21.75)" v:mID="1019" v:groupContext="group">
				<title>Sheet.1019</title>
				<g id="shape1020-93" v:mID="1020" v:groupContext="shape" v:layerMember="1">
					<title>Closed Folder.1047</title>
					<desc>/etc/opcu-certs/client-pki</desc>
					<v:userDefs>
						<v:ud v:nameU="visVersion" v:prompt="" v:val="VT0(15):26"/>
						<v:ud v:nameU="ConnGap" v:prompt="" v:val="VT0(0.083333333333333):0"/>
					</v:userDefs>
					<v:textBlock v:margins="rect(4,4,4,4)"/>
					<v:textRect cx="75.375" cy="276.158" width="114.99" height="20.0036"/>
					<path d="M4.8 266.16 L145.95 266.16 A4.8 4.85172 -180 0 0 150.75 261.3 L150.75 149.71 A4.8 4.85172 -180 0 0 145.95
								 144.86 L139.8 144.86 A4.8 4.85172 0 0 1 135 140.01 L135 139.1 A4.8 4.85172 -180 0 0 130.2 134.25
								 L82.8 134.25 A4.8 4.85172 -180 0 0 78 139.1 L78 140.01 A4.8 4.85172 0 0 1 73.2 144.86 L4.8 144.86
								 A4.8 4.85172 -180 0 0 -0 149.71 L0 261.3 A4.8 4.85172 -180 0 0 4.8 266.16 Z" class="st14"/>
					<text x="23.02" y="279.16" class="st5" v:langID="1033"><v:paragraph v:horizAlign="1"/><v:tabList/>/etc/opcu-certs/client-pki</text>				</g>
				<g id="shape1021-96" v:mID="1021" v:groupContext="shape" v:layerMember="1" transform="translate(11.8929,-31.5)">
					<title>Closed Folder.1049</title>
					<desc>own</desc>
					<v:userDefs>
						<v:ud v:nameU="visVersion" v:prompt="" v:val="VT0(15):26"/>
						<v:ud v:nameU="ConnGap" v:prompt="" v:val="VT0(0.083333333333333):0"/>
					</v:userDefs>
					<v:textBlock v:margins="rect(4,4,4,4)"/>
					<v:textRect cx="30.8571" cy="276.158" width="27.95" height="20.0036"/>
					<path d="M1.97 266.16 L59.75 266.16 A1.96503 1.98621 -180 0 0 61.71 264.17 L61.71 218.49 A1.96503 1.98621 -180
								 0 0 59.75 216.5 L57.23 216.5 A1.96503 1.98621 0 0 1 55.27 214.51 L55.27 214.14 A1.96503 1.98621
								 -180 0 0 53.3 212.16 L33.9 212.16 A1.96503 1.98621 -180 0 0 31.93 214.14 L31.93 214.51 A1.96503
								 1.98621 0 0 1 29.97 216.5 L1.97 216.5 A1.96503 1.98621 -180 0 0 -0 218.49 L0 264.17 A1.96503 1.98621
								 -180 0 0 1.97 266.16 Z" class="st15"/>
					<text x="22.02" y="279.16" class="st2" v:langID="1033"><v:paragraph v:horizAlign="1"/><v:tabList/>own</text>				</g>
				<g id="group1022-99" transform="translate(-223.156,191.328) rotate(-90) scale(-1,1)" v:mID="1022"
						v:groupContext="group">
					<v:userDefs>
						<v:ud v:nameU="ScrollDia" v:prompt="" v:val="VT0(0.15625):1"/>
						<v:ud v:nameU="visVersion" v:prompt="" v:val="VT0(15):26"/>
						<v:ud v:nameU="ScrollDia" v:prompt="" v:val="VT0(0.043402777777778):1"/>
					</v:userDefs>
					<title>Horizontal Scroll.1051</title>
					<g id="shape1022-100" v:mID="1022" v:groupContext="groupContent">
						<path d="M3.13 263.03 L1.56 263.03 A1.5625 1.5625 -180 1 0 1.56 266.16 L15.31 266.16 A1.562 1.562 -180 0
									 0 16.87 264.59 L16.87 244.28 L18.44 244.28 A1.5625 1.5625 -180 1 0 18.44 241.16 L4.69 241.16
									 A1.562 1.562 -180 0 0 3.13 242.72 L3.13 263.03 Z" class="st3"/>
						<path d="M3.13 263.03 L1.56 263.03 A1.5625 1.5625 -180 1 0 1.56 266.16 L15.31 266.16 A1.562 1.562 -180 0
									 0 16.87 264.59 L16.87 244.28 L18.44 244.28 A1.5625 1.5625 -180 1 0 18.44 241.16 L4.69 241.16
									 A1.562 1.562 -180 0 0 3.13 242.72 L3.13 263.03" class="st4"/>
						<path d="M3.13 263.03 L3.13 264.59" class="st4"/>
						<path d="M4.69 244.28 L18.44 244.28" class="st4"/>
						<path d="M6.25 242.72 A1.562 1.562 -180 0 0 4.69 241.16" class="st4"/>
					</g>
					<g id="shape1023-106" v:mID="1023" v:groupContext="shape">
						<title>Sheet.1023</title>
						<v:userDefs>
							<v:ud v:nameU="ScrollDia" v:prompt="" v:val="VT0(0.15625):1"/>
							<v:ud v:nameU="FillForegnd" v:prompt="" v:val="VT0(1):26"/>
							<v:ud v:nameU="ScrollDia" v:prompt="" v:val="VT0(0.043402777777778):1"/>
							<v:ud v:nameU="FillForegnd" v:prompt="" v:val="VT5(#a092e8)"/>
						</v:userDefs>
						<path d="M3.13 264.59 L1.56 264.59 a0.78125 0.78125 -180 0 0 0 -1.5625 A1.5625 1.5625 -180 1 0 1.56 266.16
									 A1.562 1.562 -180 0 0 3.13 264.59 ZM6.25 242.72 L4.69 242.72 a0.78125 0.78125 -180 0 0 -1.06581E-14
									 1.5625 A1.562 1.562 -180 0 0 6.25 242.72 Z" class="st7"/>
					</g>
				</g>
				<g id="group1024-108" transform="translate(-196.406,209.203) rotate(-90) scale(-1,1)" v:mID="1024"
						v:groupContext="group">
					<v:userDefs>
						<v:ud v:nameU="ScrollDia" v:prompt="" v:val="VT0(0.15625):1"/>
						<v:ud v:nameU="visVersion" v:prompt="" v:val="VT0(15):26"/>
						<v:ud v:nameU="ScrollDia" v:prompt="" v:val="VT0(0.043402777777778):1"/>
					</v:userDefs>
					<title>Horizontal Scroll.1053</title>
					<g id="shape1024-109" v:mID="1024" v:groupContext="groupContent">
						<path d="M3.13 263.03 L1.56 263.03 A1.5625 1.5625 -180 1 0 1.56 266.16 L15.31 266.16 A1.562 1.562 -180 0
									 0 16.87 264.59 L16.87 244.28 L18.44 244.28 A1.5625 1.5625 -180 1 0 18.44 241.16 L4.69 241.16
									 A1.562 1.562 -180 0 0 3.13 242.72 L3.13 263.03 Z" class="st3"/>
						<path d="M3.13 263.03 L1.56 263.03 A1.5625 1.5625 -180 1 0 1.56 266.16 L15.31 266.16 A1.562 1.562 -180 0
									 0 16.87 264.59 L16.87 244.28 L18.44 244.28 A1.5625 1.5625 -180 1 0 18.44 241.16 L4.69 241.16
									 A1.562 1.562 -180 0 0 3.13 242.72 L3.13 263.03" class="st4"/>
						<path d="M3.13 263.03 L3.13 264.59" class="st4"/>
						<path d="M4.69 244.28 L18.44 244.28" class="st4"/>
						<path d="M6.25 242.72 A1.562 1.562 -180 0 0 4.69 241.16" class="st4"/>
					</g>
					<g id="shape1025-115" v:mID="1025" v:groupContext="shape">
						<title>Sheet.1025</title>
						<v:userDefs>
							<v:ud v:nameU="ScrollDia" v:prompt="" v:val="VT0(0.15625):1"/>
							<v:ud v:nameU="FillForegnd" v:prompt="" v:val="VT0(1):26"/>
							<v:ud v:nameU="ScrollDia" v:prompt="" v:val="VT0(0.043402777777778):1"/>
							<v:ud v:nameU="FillForegnd" v:prompt="" v:val="VT5(#a092e8)"/>
						</v:userDefs>
						<path d="M3.13 264.59 L1.56 264.59 a0.78125 0.78125 -180 0 0 0 -1.5625 A1.5625 1.5625 -180 1 0 1.56 266.16
									 A1.562 1.562 -180 0 0 3.13 264.59 ZM6.25 242.72 L4.69 242.72 a0.78125 0.78125 -180 0 0 -1.06581E-14
									 1.5625 A1.562 1.562 -180 0 0 6.25 242.72 Z" class="st7"/>
					</g>
				</g>
				<g id="shape1026-117" v:mID="1026" v:groupContext="shape" v:layerMember="1" transform="translate(83.8929,-29.9531)">
					<title>Closed Folder.1055</title>
					<desc>trusted</desc>
					<v:userDefs>
						<v:ud v:nameU="visVersion" v:prompt="" v:val="VT0(15):26"/>
						<v:ud v:nameU="ConnGap" v:prompt="" v:val="VT0(0.083333333333333):0"/>
					</v:userDefs>
					<v:textBlock v:margins="rect(4,4,4,4)"/>
					<v:textRect cx="30.8571" cy="276.158" width="39.85" height="20.0036"/>
					<path d="M1.97 266.16 L59.75 266.16 A1.96503 1.98621 -180 0 0 61.71 264.17 L61.71 218.49 A1.96503 1.98621 -180
								 0 0 59.75 216.5 L57.23 216.5 A1.96503 1.98621 0 0 1 55.27 214.51 L55.27 214.14 A1.96503 1.98621
								 -180 0 0 53.3 212.16 L33.9 212.16 A1.96503 1.98621 -180 0 0 31.93 214.14 L31.93 214.51 A1.96503
								 1.98621 0 0 1 29.97 216.5 L1.97 216.5 A1.96503 1.98621 -180 0 0 -0 218.49 L0 264.17 A1.96503 1.98621
								 -180 0 0 1.97 266.16 Z" class="st15"/>
					<text x="16.07" y="279.16" class="st2" v:langID="1033"><v:paragraph v:horizAlign="1"/><v:tabList/>trusted</text>				</g>
				<g id="group1027-120" transform="translate(-147.906,191.328) rotate(-90) scale(-1,1)" v:mID="1027"
						v:groupContext="group">
					<v:userDefs>
						<v:ud v:nameU="ScrollDia" v:prompt="" v:val="VT0(0.15625):1"/>
						<v:ud v:nameU="visVersion" v:prompt="" v:val="VT0(15):26"/>
						<v:ud v:nameU="ScrollDia" v:prompt="" v:val="VT0(0.043402777777778):1"/>
					</v:userDefs>
					<title>Horizontal Scroll.1056</title>
					<g id="shape1027-121" v:mID="1027" v:groupContext="groupContent">
						<path d="M3.13 263.03 L1.56 263.03 A1.5625 1.5625 -180 1 0 1.56 266.16 L15.31 266.16 A1.562 1.562 -180 0
									 0 16.87 264.59 L16.87 244.28 L18.44 244.28 A1.5625 1.5625 -180 1 0 18.44 241.16 L4.69 241.16
									 A1.562 1.562 -180 0 0 3.13 242.72 L3.13 263.03 Z" class="st3"/>
						<path d="M3.13 263.03 L1.56 263.03 A1.5625 1.5625 -180 1 0 1.56 266.16 L15.31 266.16 A1.562 1.562 -180 0
									 0 16.87 264.59 L16.87 244.28 L18.44 244.28 A1.5625 1.5625 -180 1 0 18.44 241.16 L4.69 241.16
									 A1.562 1.562 -180 0 0 3.13 242.72 L3.13 263.03" class="st4"/>
						<path d="M3.13 263.03 L3.13 264.59" class="st4"/>
						<path d="M4.69 244.28 L18.44 244.28" class="st4"/>
						<path d="M6.25 242.72 A1.562 1.562 -180 0 0 4.69 241.16" class="st4"/>
					</g>
					<g id="shape1028-127" v:mID="1028" v:groupContext="shape">
						<title>Sheet.1028</title>
						<v:userDefs>
							<v:ud v:nameU="ScrollDia" v:prompt="" v:val="VT0(0.15625):1"/>
							<v:ud v:nameU="FillForegnd" v:prompt="" v:val="VT0(1):26"/>
							<v:ud v:nameU="ScrollDia" v:prompt="" v:val="VT0(0.043402777777778):1"/>
							<v:ud v:nameU="FillForegnd" v:prompt="" v:val="VT5(#a092e8)"/>
						</v:userDefs>
						<path d="M3.13 264.59 L1.56 264.59 a0.78125 0.78125 -180 0 0 0 -1.5625 A1.5625 1.5625 -180 1 0 1.56 266.16
									 A1.562 1.562 -180 0 0 3.13 264.59 ZM6.25 242.72 L4.69 242.72 a0.78125 0.78125 -180 0 0 -1.06581E-14
									 1.5625 A1.562 1.562 -180 0 0 6.25 242.72 Z" class="st7"/>
					</g>
				</g>
				<g id="group1029-129" transform="translate(-124.406,209.203) rotate(-90) scale(-1,1)" v:mID="1029"
						v:groupContext="group">
					<v:userDefs>
						<v:ud v:nameU="ScrollDia" v:prompt="" v:val="VT0(0.15625):1"/>
						<v:ud v:nameU="visVersion" v:prompt="" v:val="VT0(15):26"/>
						<v:ud v:nameU="ScrollDia" v:prompt="" v:val="VT0(0.043402777777778):1"/>
					</v:userDefs>
					<title>Horizontal Scroll.1058</title>
					<g id="shape1029-130" v:mID="1029" v:groupContext="groupContent">
						<path d="M3.13 263.03 L1.56 263.03 A1.5625 1.5625 -180 1 0 1.56 266.16 L15.31 266.16 A1.562 1.562 -180 0
									 0 16.87 264.59 L16.87 244.28 L18.44 244.28 A1.5625 1.5625 -180 1 0 18.44 241.16 L4.69 241.16
									 A1.562 1.562 -180 0 0 3.13 242.72 L3.13 263.03 Z" class="st3"/>
						<path d="M3.13 263.03 L1.56 263.03 A1.5625 1.5625 -180 1 0 1.56 266.16 L15.31 266.16 A1.562 1.562 -180 0
									 0 16.87 264.59 L16.87 244.28 L18.44 244.28 A1.5625 1.5625 -180 1 0 18.44 241.16 L4.69 241.16
									 A1.562 1.562 -180 0 0 3.13 242.72 L3.13 263.03" class="st4"/>
						<path d="M3.13 263.03 L3.13 264.59" class="st4"/>
						<path d="M4.69 244.28 L18.44 244.28" class="st4"/>
						<path d="M6.25 242.72 A1.562 1.562 -180 0 0 4.69 241.16" class="st4"/>
					</g>
					<g id="shape1030-136" v:mID="1030" v:groupContext="shape">
						<title>Sheet.1030</title>
						<v:userDefs>
							<v:ud v:nameU="ScrollDia" v:prompt="" v:val="VT0(0.15625):1"/>
							<v:ud v:nameU="FillForegnd" v:prompt="" v:val="VT0(1):26"/>
							<v:ud v:nameU="ScrollDia" v:prompt="" v:val="VT0(0.043402777777778):1"/>
							<v:ud v:nameU="FillForegnd" v:prompt="" v:val="VT5(#a092e8)"/>
						</v:userDefs>
						<path d="M3.13 264.59 L1.56 264.59 a0.78125 0.78125 -180 0 0 0 -1.5625 A1.5625 1.5625 -180 1 0 1.56 266.16
									 A1.562 1.562 -180 0 0 3.13 264.59 ZM6.25 242.72 L4.69 242.72 a0.78125 0.78125 -180 0 0 -1.06581E-14
									 1.5625 A1.562 1.562 -180 0 0 6.25 242.72 Z" class="st7"/>
					</g>
				</g>
			</g>
			<g id="shape1031-138" v:mID="1031" v:groupContext="shape" v:layerMember="0" transform="translate(117.563,-70.9687)">
				<title>Dynamic connector.1062</title>
				<desc>Certificate Store</desc>
				<v:textBlock v:margins="rect(4,4,4,4)"/>
				<v:textRect cx="37.6875" cy="264.375" width="62.67" height="17.6036"/>
				<path d="M0 257.44 L70.85 256.93" class="st16"/>
				<rect v:rectContext="textBkgnd" x="11.2603" y="259.575" width="52.8547" height="9.59985" class="st10"/>
				<text x="11.26" y="266.78" class="st18" v:langID="1033"><v:paragraph v:horizAlign="1"/><v:tabList/>Certificate Store</text>			</g>
		</g>
		<g id="shape1032-146" v:mID="1032" v:groupContext="shape" v:layerMember="2" transform="translate(144.577,-220.75)">
			<title>Numbered Label.1094</title>
			<desc>1</desc>
			<v:userDefs>
				<v:ud v:nameU="visLegendShape" v:val="VT0(2):26"/>
				<v:ud v:nameU="visLocToPar" v:val="VT7(PNT(1.9050436604829,1.904079861939)):40"/>
				<v:ud v:nameU="visVersion" v:val="VT0(11):26"/>
				<v:ud v:nameU="visIsConnected" v:prompt="" v:val="VT0(0):26"/>
				<v:ud v:nameU="visLocToPar" v:prompt="" v:val="VT7(PNT(2.0080129813866,3.0659724278582)):40"/>
			</v:userDefs>
			<v:textBlock v:margins="rect(0,0,0,0)"/>
			<v:textRect cx="13.4417" cy="252.78" width="39.89" height="27.1562"/>
			<ellipse cx="13.5781" cy="252.578" rx="13.5781" ry="13.5781" class="st19"/>
			<text x="11.41" y="255.18" class="st20" v:langID="1033"><v:paragraph v:horizAlign="1"/><v:tabList/>1</text>		</g>
		<g id="shape1033-149" v:mID="1033" v:groupContext="shape" v:layerMember="2" transform="translate(513.374,-220.75)">
			<title>Numbered Label.1095</title>
			<desc>2</desc>
			<v:userDefs>
				<v:ud v:nameU="visLegendShape" v:val="VT0(2):26"/>
				<v:ud v:nameU="visLocToPar" v:val="VT7(PNT(1.9050436604829,1.904079861939)):40"/>
				<v:ud v:nameU="visVersion" v:val="VT0(11):26"/>
				<v:ud v:nameU="visIsConnected" v:prompt="" v:val="VT0(0):26"/>
				<v:ud v:nameU="visLocToPar" v:prompt="" v:val="VT7(PNT(7.1301913570849,3.0659724278582)):40"/>
			</v:userDefs>
			<v:textBlock v:margins="rect(0,0,0,0)"/>
			<v:textRect cx="13.4417" cy="252.78" width="39.89" height="27.1562"/>
			<ellipse cx="13.5781" cy="252.578" rx="13.5781" ry="13.5781" class="st19"/>
			<text x="11.41" y="255.18" class="st20" v:langID="1033"><v:paragraph v:horizAlign="1"/><v:tabList/>2</text>		</g>
		<g id="shape1034-152" v:mID="1034" v:groupContext="shape" v:layerMember="2" transform="translate(891.172,-220.75)">
			<title>Numbered Label.1096</title>
			<desc>3</desc>
			<v:userDefs>
				<v:ud v:nameU="visLegendShape" v:val="VT0(2):26"/>
				<v:ud v:nameU="visLocToPar" v:val="VT7(PNT(1.9050436604829,1.904079861939)):40"/>
				<v:ud v:nameU="visVersion" v:val="VT0(11):26"/>
				<v:ud v:nameU="visIsConnected" v:prompt="" v:val="VT0(0):26"/>
				<v:ud v:nameU="visLocToPar" v:prompt="" v:val="VT7(PNT(12.377386797106,3.0659724278582)):40"/>
			</v:userDefs>
			<v:textBlock v:margins="rect(0,0,0,0)"/>
			<v:textRect cx="13.4417" cy="252.78" width="39.89" height="27.1562"/>
			<ellipse cx="13.5781" cy="252.578" rx="13.5781" ry="13.5781" class="st19"/>
			<text x="11.41" y="255.18" class="st20" v:langID="1033"><v:paragraph v:horizAlign="1"/><v:tabList/>3</text>		</g>
	</g>
</svg>
