<?xml version="1.0" encoding="UTF-8" standalone="no"?>
<!DOCTYPE svg PUBLIC "-//W3C//DTD SVG 1.1//EN" "http://www.w3.org/Graphics/SVG/1.1/DTD/svg11.dtd">
<!-- Generated by Microsoft Visio, SVG Export resource-grouping.svg Resource Grouping -->
<svg xmlns="http://www.w3.org/2000/svg" xmlns:xlink="http://www.w3.org/1999/xlink" xmlns:ev="http://www.w3.org/2001/xml-events"
		xmlns:v="http://schemas.microsoft.com/visio/2003/SVGExtensions/" width="15.5755in" height="9.81814in"
		viewBox="0 0 1121.43 706.906" xml:space="preserve" color-interpolation-filters="sRGB" class="st12">
	<v:documentProperties v:langID="1033" v:viewMarkup="false">
		<v:userDefs>
			<v:ud v:nameU="msvSubprocessMaster" v:prompt="" v:val="VT4(Rectangle)"/>
			<v:ud v:nameU="msvNoAutoConnect" v:val="VT0(1):26"/>
		</v:userDefs>
	</v:documentProperties>

	<style type="text/css">
	<![CDATA[
		.st1 {fill:none;stroke:none;stroke-width:0.25}
		.st2 {fill:#000000;font-family:Calibri;font-size:2.50001em}
		.st3 {fill:#75a4f5;stroke:#c7c8c8;stroke-width:0.25}
		.st4 {fill:none;stroke:#2b74ef;stroke-width:1.5}
		.st5 {stroke:#2b74ef;stroke-linecap:round;stroke-linejoin:round;stroke-width:1.5}
		.st6 {fill:#2b74ef;stroke:#2b74ef;stroke-width:0.25}
		.st7 {fill:#feffff;font-family:Calibri;font-size:1.99999em}
		.st8 {font-size:1em}
		.st9 {stroke:#03a587;stroke-linecap:round;stroke-linejoin:round;stroke-width:1.5}
		.st10 {fill:#7b67e1;stroke:none;stroke-width:0.25}
		.st11 {fill:#feffff;font-family:Calibri;font-size:3em}
		.st12 {fill:none;fill-rule:evenodd;font-size:12px;overflow:visible;stroke-linecap:square;stroke-miterlimit:3}
	]]>
	</style>

	<g v:mID="4" v:index="2" v:groupContext="foregroundPage">
		<v:userDefs>
			<v:ud v:nameU="msvThemeOrder" v:val="VT0(0):26"/>
		</v:userDefs>
		<title>Resource Grouping</title>
		<v:pageProperties v:drawingScale="1" v:pageScale="1" v:drawingUnits="0" v:shadowOffsetX="9" v:shadowOffsetY="-9"/>
		<v:layer v:name="Connector" v:index="0"/>
		<g id="shape1080-1" v:mID="1080" v:groupContext="shape" transform="translate(250.216,-627.906)">
			<title>Sheet.1080</title>
			<desc>Broker Deployment Strategy: Resource Grouping</desc>
			<v:textBlock v:margins="rect(4,4,4,4)"/>
			<v:textRect cx="310.5" cy="676.531" width="621" height="60.75"/>
			<rect x="0" y="646.156" width="621" height="60.75" class="st1"/>
			<text x="13.33" y="685.53" class="st2" v:langID="1033"><v:paragraph v:horizAlign="1"/><v:tabList/>Broker Deployment Strategy: Resource Grouping</text>		</g>
		<g id="group1081-4" transform="translate(19.5,-19.5)" v:mID="1081" v:groupContext="group">
			<title>Sheet.1081</title>
			<g id="shape1001-5" v:mID="1001" v:groupContext="shape" transform="translate(796.68,125.5) rotate(90)">
				<title>Rectangle.1061</title>
				<v:userDefs>
					<v:ud v:nameU="visVersion" v:val="VT0(15):26"/>
				</v:userDefs>
				<rect x="0" y="382.906" width="432" height="324" class="st3"/>
			</g>
			<g id="shape1002-7" v:mID="1002" v:groupContext="shape" transform="translate(1372.68,125.5) rotate(90)">
				<title>Rectangle.1062</title>
				<v:userDefs>
					<v:ud v:nameU="visVersion" v:val="VT0(15):26"/>
				</v:userDefs>
				<rect x="0" y="382.906" width="432" height="324" class="st3"/>
			</g>
			<g id="group1003-9" transform="translate(175.865,1.13687E-13)" v:mID="1003" v:groupContext="group">
				<title>Sheet.1003</title>
				<g id="shape1004-10" v:mID="1004" v:groupContext="shape" transform="translate(0,-9.5625)">
					<title>Sheet.1004</title>
					<path d="M36 692.84 L0 706.91 L0 634.91 L36 648.41 L36 692.84 Z" class="st4"/>
				</g>
				<g id="shape1005-12" v:mID="1005" v:groupContext="shape" transform="translate(36.3649,1.13687E-13)">
					<title>Rectangle.1005</title>
					<v:userDefs>
						<v:ud v:nameU="visVersion" v:val="VT0(15):26"/>
					</v:userDefs>
					<rect x="0" y="615.781" width="112.5" height="91.125" class="st4"/>
				</g>
			</g>
			<g id="group1006-14" transform="translate(751.865,1.13687E-13)" v:mID="1006" v:groupContext="group">
				<title>Sheet.1006</title>
				<g id="shape1007-15" v:mID="1007" v:groupContext="shape" transform="translate(0,-9.5625)">
					<title>Sheet.1007</title>
					<path d="M36 692.84 L0 706.91 L0 634.91 L36 648.41 L36 692.84 Z" class="st4"/>
				</g>
				<g id="shape1008-17" v:mID="1008" v:groupContext="shape" transform="translate(36.3649,1.13687E-13)">
					<title>Rectangle.1005</title>
					<v:userDefs>
						<v:ud v:nameU="visVersion" v:val="VT0(15):26"/>
					</v:userDefs>
					<rect x="0" y="615.781" width="112.5" height="91.125" class="st4"/>
				</g>
			</g>
			<g id="group1009-19" transform="translate(576,1.13687E-13)" v:mID="1009" v:groupContext="group">
				<title>Sheet.1009</title>
				<g id="shape1010-20" v:mID="1010" v:groupContext="shape" transform="translate(0,-9.5625)">
					<title>Sheet.1010</title>
					<path d="M36 692.84 L0 706.91 L0 634.91 L36 648.41 L36 692.84 Z" class="st4"/>
				</g>
				<g id="shape1011-22" v:mID="1011" v:groupContext="shape" transform="translate(36.3649,1.13687E-13)">
					<title>Rectangle.1005</title>
					<v:userDefs>
						<v:ud v:nameU="visVersion" v:val="VT0(15):26"/>
					</v:userDefs>
					<rect x="0" y="615.781" width="112.5" height="91.125" class="st4"/>
				</g>
			</g>
			<g id="group1012-24" transform="translate(351.73,1.13687E-13)" v:mID="1012" v:groupContext="group">
				<title>Sheet.1012</title>
				<g id="shape1013-25" v:mID="1013" v:groupContext="shape" transform="translate(0,-9.5625)">
					<title>Sheet.1013</title>
					<path d="M36 692.84 L0 706.91 L0 634.91 L36 648.41 L36 692.84 Z" class="st4"/>
				</g>
				<g id="shape1014-27" v:mID="1014" v:groupContext="shape" transform="translate(36.3649,1.13687E-13)">
					<title>Rectangle.1005</title>
					<v:userDefs>
						<v:ud v:nameU="visVersion" v:val="VT0(15):26"/>
					</v:userDefs>
					<rect x="0" y="615.781" width="112.5" height="91.125" class="st4"/>
				</g>
			</g>
			<g id="group1015-29" v:mID="1015" v:groupContext="group">
				<title>Sheet.1015</title>
				<g id="shape1016-30" v:mID="1016" v:groupContext="shape" transform="translate(0,-9.5625)">
					<title>Sheet.1016</title>
					<path d="M36 692.84 L0 706.91 L0 634.91 L36 648.41 L36 692.84 Z" class="st4"/>
				</g>
				<g id="shape1017-32" v:mID="1017" v:groupContext="shape" transform="translate(36.3649,1.13687E-13)">
					<title>Rectangle.1005</title>
					<v:userDefs>
						<v:ud v:nameU="visVersion" v:val="VT0(15):26"/>
					</v:userDefs>
					<rect x="0" y="615.781" width="112.5" height="91.125" class="st4"/>
				</g>
			</g>
			<g id="shape1018-34" v:mID="1018" v:groupContext="shape" transform="translate(975.191,580.675) rotate(89.6621)">
				<title>Sheet.1018</title>
				<path d="M0 706.91 L30.94 706.91" class="st5"/>
			</g>
			<g id="shape1019-37" v:mID="1019" v:groupContext="shape" transform="translate(1151.27,585.191) rotate(90.0281)">
				<title>Sheet.1019</title>
				<path d="M0 706.91 L30.94 706.91" class="st5"/>
			</g>
			<g id="shape1020-40" v:mID="1020" v:groupContext="shape" transform="translate(1375.69,589.012) rotate(90.3379)">
				<title>Sheet.1020</title>
				<path d="M0 706.91 L30.94 706.91" class="st5"/>
			</g>
			<g id="shape1021-43" v:mID="1021" v:groupContext="shape" transform="translate(168.524,-320.406)">
				<title>Rectangle.1083</title>
				<desc>ML Processing Broker</desc>
				<v:userDefs>
					<v:ud v:nameU="visVersion" v:val="VT0(15):26"/>
				</v:userDefs>
				<v:textBlock v:margins="rect(4,4,4,4)"/>
				<v:textRect cx="83.25" cy="661.906" width="166.5" height="90"/>
				<rect x="0" y="616.906" width="166.5" height="90" class="st6"/>
				<text x="13.38" y="654.71" class="st7" v:langID="1033"><v:paragraph v:horizAlign="1"/><v:tabList/>ML Processing <tspan
							x="50.6" dy="1.2em" class="st8">Broker</tspan></text>			</g>
			<g id="shape1022-47" v:mID="1022" v:groupContext="shape" v:layerMember="0" transform="translate(251.774,-320.406)">
				<title>Dynamic connector.1084</title>
				<path d="M0 706.91 L-159.16 981.75" class="st9"/>
			</g>
			<g id="shape1023-50" v:mID="1023" v:groupContext="shape" v:layerMember="0" transform="translate(269.127,-45.5625)">
				<title>Dynamic connector.1085</title>
				<path d="M-0.65 706.91 L-17.35 432.06" class="st9"/>
			</g>
			<g id="shape1024-53" v:mID="1024" v:groupContext="shape" v:layerMember="0" transform="translate(444.345,-45.5625)">
				<title>Dynamic connector.1086</title>
				<path d="M0 706.91 L-192.57 432.06" class="st9"/>
			</g>
			<g id="shape1025-56" v:mID="1025" v:groupContext="shape" transform="translate(1529.31,409.532) rotate(78.2619)">
				<title>Sheet.1025</title>
				<path d="M0 706.91 L35.06 706.91" class="st5"/>
			</g>
			<g id="shape1026-59" v:mID="1026" v:groupContext="shape" transform="translate(-427.71,705.2) rotate(-99.8028)">
				<title>Sheet.1026</title>
				<path d="M0 706.91 L31.97 706.91" class="st5"/>
			</g>
			<g id="group1027-62" transform="translate(933.568,-2.27374E-13)" v:mID="1027" v:groupContext="group">
				<title>Sheet.1027</title>
				<g id="shape1028-63" v:mID="1028" v:groupContext="shape" transform="translate(0,-9.5625)">
					<title>Sheet.1028</title>
					<path d="M36 692.84 L0 706.91 L0 634.91 L36 648.41 L36 692.84 Z" class="st4"/>
				</g>
				<g id="shape1029-65" v:mID="1029" v:groupContext="shape" transform="translate(36.3649,1.13687E-13)">
					<title>Rectangle.1005</title>
					<v:userDefs>
						<v:ud v:nameU="visVersion" v:val="VT0(15):26"/>
					</v:userDefs>
					<rect x="0" y="615.781" width="112.5" height="91.125" class="st4"/>
				</g>
			</g>
			<g id="shape1030-67" v:mID="1030" v:groupContext="shape" v:layerMember="0" transform="translate(1035.09,-91.125)">
				<title>Dynamic connector.1093</title>
				<path d="M-8.91 706.91 L-9.09 675.97" class="st5"/>
			</g>
			<g id="shape1031-70" v:mID="1031" v:groupContext="shape" transform="translate(744.524,-342.906)">
				<title>Rectangle.1094</title>
				<desc>ML Processing Broker</desc>
				<v:userDefs>
					<v:ud v:nameU="visVersion" v:val="VT0(15):26"/>
				</v:userDefs>
				<v:textBlock v:margins="rect(4,4,4,4)"/>
				<v:textRect cx="83.25" cy="661.906" width="166.5" height="90"/>
				<rect x="0" y="616.906" width="166.5" height="90" class="st6"/>
				<text x="13.38" y="654.71" class="st7" v:langID="1033"><v:paragraph v:horizAlign="1"/><v:tabList/>ML Processing <tspan
							x="50.6" dy="1.2em" class="st8">Broker</tspan></text>			</g>
			<g id="shape1032-74" v:mID="1032" v:groupContext="shape" v:layerMember="0" transform="translate(1026.18,-45.5625)">
				<title>Dynamic connector.1095</title>
				<path d="M0 706.91 L-198.41 409.56" class="st9"/>
			</g>
			<g id="shape1033-77" v:mID="1033" v:groupContext="shape" v:layerMember="0" transform="translate(845.127,-45.5625)">
				<title>Dynamic connector.1096</title>
				<path d="M-0.65 706.91 L-17.35 409.56" class="st9"/>
			</g>
			<g id="shape1034-80" v:mID="1034" v:groupContext="shape" v:layerMember="0" transform="translate(827.774,-342.906)">
				<title>Dynamic connector.1097</title>
				<path d="M0 706.91 L-159.16 1004.25" class="st9"/>
			</g>
			<g id="shape1035-83" v:mID="1035" v:groupContext="shape" transform="translate(137.599,609.777) rotate(-89.5134)">
				<title>Sheet.1035</title>
				<path d="M0 706.91 L28.84 706.91" class="st5"/>
			</g>
			<g id="shape1036-86" v:mID="1036" v:groupContext="shape" v:layerMember="0" transform="translate(1026,-131.063)">
				<title>Dynamic connector.1099</title>
				<path d="M0 715.91 L-47.86 715.91 A3 3 -180 1 0 -53.86 715.91 L-182.82 715.91 A3 3 -180 0 0 -188.82 715.91 L-313.44
							 715.91 A3 3 -180 1 0 -319.44 715.91 L-632.26 715.91 A3 3 -180 1 0 -638.26 715.91 L-759.17 715.91 A3
							 3 -180 1 0 -765.17 715.91 L-886.08 715.91 A3 3 -180 1 0 -892.08 715.91 L-931.5 715.91" class="st5"/>
			</g>
			<g id="shape1037-89" v:mID="1037" v:groupContext="shape" transform="translate(-614.291,615.781) rotate(-90)">
				<title>Sheet.1037</title>
				<path d="M0 706.91 L30.94 706.91" class="st5"/>
			</g>
			<g id="shape1072-92" v:mID="1072" v:groupContext="shape" transform="translate(91.2162,-473.406)">
				<title>Square.1072</title>
				<desc>GPU</desc>
				<v:userDefs>
					<v:ud v:nameU="visVersion" v:val="VT0(15):26"/>
				</v:userDefs>
				<v:textBlock v:margins="rect(4,4,4,4)"/>
				<v:textRect cx="54" cy="652.906" width="108" height="108"/>
				<rect x="0" y="598.906" width="108" height="108" class="st10"/>
				<text x="21.8" y="663.71" class="st11" v:langID="1033"><v:paragraph v:horizAlign="1"/><v:tabList/>GPU</text>			</g>
			<g id="shape1073-95" v:mID="1073" v:groupContext="shape" transform="translate(305.774,-473.406)">
				<title>Square.1073</title>
				<desc>GPU</desc>
				<v:userDefs>
					<v:ud v:nameU="visVersion" v:val="VT0(15):26"/>
				</v:userDefs>
				<v:textBlock v:margins="rect(4,4,4,4)"/>
				<v:textRect cx="54" cy="652.906" width="108" height="108"/>
				<rect x="0" y="598.906" width="108" height="108" class="st10"/>
				<text x="21.8" y="663.71" class="st11" v:langID="1033"><v:paragraph v:horizAlign="1"/><v:tabList/>GPU</text>			</g>
			<g id="shape1074-98" v:mID="1074" v:groupContext="shape" transform="translate(665.774,-473.406)">
				<title>Square.1074</title>
				<desc>GPU</desc>
				<v:userDefs>
					<v:ud v:nameU="visVersion" v:val="VT0(15):26"/>
				</v:userDefs>
				<v:textBlock v:margins="rect(4,4,4,4)"/>
				<v:textRect cx="54" cy="652.906" width="108" height="108"/>
				<rect x="0" y="598.906" width="108" height="108" class="st10"/>
				<text x="21.8" y="663.71" class="st11" v:langID="1033"><v:paragraph v:horizAlign="1"/><v:tabList/>GPU</text>			</g>
			<g id="shape1075-101" v:mID="1075" v:groupContext="shape" transform="translate(881.774,-473.406)">
				<title>Square.1075</title>
				<desc>GPU</desc>
				<v:userDefs>
					<v:ud v:nameU="visVersion" v:val="VT0(15):26"/>
				</v:userDefs>
				<v:textBlock v:margins="rect(4,4,4,4)"/>
				<v:textRect cx="54" cy="652.906" width="108" height="108"/>
				<rect x="0" y="598.906" width="108" height="108" class="st10"/>
				<text x="21.8" y="663.71" class="st11" v:langID="1033"><v:paragraph v:horizAlign="1"/><v:tabList/>GPU</text>			</g>
			<g id="shape1076-104" v:mID="1076" v:groupContext="shape" v:layerMember="0" transform="translate(251.774,-410.406)">
				<title>Dynamic connector.1076</title>
				<path d="M0 706.91 L-106.56 643.91" class="st9"/>
			</g>
			<g id="shape1077-107" v:mID="1077" v:groupContext="shape" v:layerMember="0" transform="translate(359.774,-473.406)">
				<title>Dynamic connector.1077</title>
				<path d="M0 706.91 L-108 769.91" class="st9"/>
			</g>
			<g id="shape1078-110" v:mID="1078" v:groupContext="shape" v:layerMember="0" transform="translate(827.774,-432.906)">
				<title>Dynamic connector.1078</title>
				<path d="M0 706.91 L-108 666.41" class="st9"/>
			</g>
			<g id="shape1079-113" v:mID="1079" v:groupContext="shape" v:layerMember="0" transform="translate(935.774,-473.406)">
				<title>Dynamic connector.1079</title>
				<path d="M0 706.91 L-108 747.41" class="st9"/>
			</g>
		</g>
	</g>
</svg>
