<?xml version="1.0" encoding="UTF-8"?>
<svg width="2155px" height="2155px" viewBox="0 0 2155 2155" version="1.1" xmlns="http://www.w3.org/2000/svg" xmlns:xlink="http://www.w3.org/1999/xlink">
    <!-- Generator: Sketch 51.3 (57544) - http://www.bohemiancoding.com/sketch -->
    <title>icon dark</title>
    <desc>Created with Sketch.</desc>
    <defs>
        <polygon id="path-1" points="736.510909 1260.07374 0.216278296 834.666207 0.216278296 0.874579505 736.510909 431.494059"></polygon>
        <polygon id="path-3" points="733.557714 1260.23238 0.3536796 831.62714 0.3536796 0.0387190034 733.557714 433.855901"></polygon>
        <path d="M736.083211,0.0979766184 L975.704271,140.48338 L959.716949,261.219346 C959.716949,261.219346 1109.63485,360.289738 1202.38064,391.040775 C1262.55751,410.993175 1243.48583,294.035567 1243.48583,294.035567 L1471.32355,430.848978 L736.083211,861.59998 L0.842867565,430.848978 L736.083211,0.0979766184 Z" id="path-5"></path>
    </defs>
    <g id="icon-dark" stroke="none" stroke-width="1" fill="none" fill-rule="evenodd">
        <g id="Cube-Main" transform="translate(1083.218465, 1066.562500) scale(-1, -1) translate(-1083.218465, -1066.562500) translate(346.718465, 220.562500)">
            <g id="triange" transform="translate(734.196900, 0.031032)">
                <mask id="mask-2" fill="white">
                    <use xlink:href="#path-1"></use>
                </mask>
                <use id="Rectangle-5" fill="#3FB594" xlink:href="#path-1"></use>
                <polyline id="Path-5" stroke="#FFFFFF" stroke-width="117" fill-rule="nonzero" mask="url(#mask-2)" transform="translate(286.095151, 807.027778) scale(1, -1) rotate(299.000000) translate(-286.095151, -807.027778) " points="1241.44547 1028.93532 968.627187 1088.64879 544.339503 837.308047 195.007283 1040.35933 -324.332147 736.166046 -71.6794314 601.974944 187.785428 746.221966 447.298925 604.347313 -64.3059187 294.585607 -828.358126 722.507624 184.583538 1319.46995 1400.54843 630.276825"></polyline>
                <path d="M44.64817,647.048961 L44.64817,379.333567" id="Path-2" stroke="#FFFFFF" stroke-width="138" fill-rule="nonzero" mask="url(#mask-2)"></path>
            </g>
            <g id="circle" transform="translate(1.263369, 0.436885)">
                <mask id="mask-4" fill="white">
                    <use xlink:href="#path-3"></use>
                </mask>
                <use id="Rectangle-5" fill="#0AABA9" transform="translate(366.955697, 630.135549) scale(-1, 1) translate(-366.955697, -630.135549) " xlink:href="#path-3"></use>
                <polyline id="Path-5" stroke="#EAE9F0" stroke-width="125" fill-rule="nonzero" mask="url(#mask-4)" points="1060.66458 -343.727553 1057.29972 1041.79778 62.7735073 1616.11716 62.6381487 718.475054 558.540644 435.673354 558.540427 709.293819 304.114372 858.572057 304.114372 1180.93051 806.684854 898.635274 802.2742 19.8918889 -177.537408 603.058312 -160.292889 1998.42991"></polyline>
            </g>
            <g id="square" transform="translate(0.168183, 829.292558)">
                <mask id="mask-6" fill="white">
                    <use xlink:href="#path-5"></use>
                </mask>
                <g id="Rectangle-5"></g>
                <polyline id="Path-5" stroke="#FFFFFF" stroke-width="120" fill-rule="nonzero" mask="url(#mask-6)" points="1492.36727 73.8353445 737.097123 502.083189 341.708818 275.319238 599.756637 125.178758 735.509685 209.734466 992.584745 67.7507504 535.809374 -210.994616 -245.400692 215.880336 735.035938 789.57615 1896.97848 111.734139"></polyline>
                <g id="Group" mask="url(#mask-6)">
                    <g transform="translate(957.368973, 191.190681)"></g>
                </g>
            </g>
        </g>
    </g>
</svg>