<?xml version="1.0" encoding="UTF-8"?>
<svg width="2155px" height="2155px" viewBox="0 0 2155 2155" version="1.1" xmlns="http://www.w3.org/2000/svg" xmlns:xlink="http://www.w3.org/1999/xlink">
    <!-- Generator: Sketch 51.3 (57544) - http://www.bohemiancoding.com/sketch -->
    <title>icon dark</title>
    <desc>Created with Sketch.</desc>
    <defs>
        <polygon id="path-1" points="744.151186 1273.14525 0.218521882 843.324708 0.218521882 0.883652051 744.151186 435.970209"></polygon>
        <polygon id="path-3" points="742.708677 0.0989929896 1485.57612 435.318437 742.708677 870.537881 0.631225919 435.749934"></polygon>
    </defs>
    <g id="icon-dark" stroke="none" stroke-width="1" fill="none" fill-rule="evenodd">
        <g id="Cube-Main" transform="translate(1090.426447, 1075.250000) scale(-1, -1) translate(-1090.426447, -1075.250000) translate(346.926447, 220.750000)">
            <g id="left" transform="translate(740.802798, 0.031354)">
                <mask id="mask-2" fill="white">
                    <use xlink:href="#path-1"></use>
                </mask>
                <use id="Rectangle-5" fill="#3FB594" xlink:href="#path-1"></use>
                <polygon id="Path-6" fill="#FFFFFF" fill-rule="nonzero" mask="url(#mask-2)" points="507.432599 986.13473 507.432599 567.830189 -11.8264206 258.876884 -11.8264206 712.145877 -0.410382797 717.039874 116.595617 789.188838 116.595617 905.782401 116.595617 948.070088 255.476601 1011.05662 255.476601 712.145877 114.717941 624.273961 114.717941 490.982593 379.006615 647.564848 379.006615 1078.14484 762.234221 1299.50053 762.234221 420.662958 -4.59001425 -18.8594292 -4.59001425 133.215613 -0.410382797 140.990753 620.866771 507.059768 620.866771 1050.89534"></polygon>
            </g>
            <g id="top" transform="translate(0.169928, 837.895315)">
                <mask id="mask-4" fill="white">
                    <use xlink:href="#path-3"></use>
                </mask>
                <g id="Rectangle-5"></g>
                <polygon id="Path-4" fill="#FFFFFF" fill-rule="nonzero" mask="url(#mask-4)" points="1484.75536 435.07775 742.928 870.46096 0.539956819 435.660639 133.209955 357.168472 742.67442 713.934946 1367.30337 349.369651 1008.10174 142.768968 997.177073 148.97132 742.928 289.642165 604.202914 204.995748 483.865839 275.157512 742.928 423.94884 996.1667 281.174366 1134.70037 363.166579 743.938374 584.132525 237.681994 293.174526 636.734182 60.6721659 744.948747 127.871878 910.05603 38.8208632 1526.13331 384.082497"></polygon>
            </g>
            <g id="right" transform="translate(0.000000, 1.010374)" fill-rule="nonzero">
                <polygon id="Path-3" fill="#0AABA9" points="741.736291 0.471639243 1.06731402 437.535187 1.06731402 1271.52559 741.736291 836.747219"></polygon>
                <polygon id="Path-2" fill="#EAE9F0" points="133.017766 1195.30651 133.017766 752.069228 510.755412 538.193658 510.755412 678.359316 241.826321 829.804848 241.826321 1131.76842 376.687517 1052.89218 376.687517 906.340649 631.802907 758.530094 631.802907 323.0196 1.14202848 684.357651 0.725918246 1272.87341"></polygon>
                <polygon id="Path-7" fill="#EAE9F0" points="741.655383 0.0631483506 741.655383 139.75322 0.639459274 571.648594 0.00563237242 437.896317"></polygon>
            </g>
        </g>
    </g>
</svg>